<svg xmlns="http://www.w3.org/2000/svg" viewBox="0 0 15 15">
  <defs>
    <style>
      .cls-1 {
        fill: #e2e2e2;
      }
    </style>
  </defs>
  <g id="np_link_670654_3C72F6" transform="translate(-156 -211)">
    <path id="np_link_670654_3C72F6-2" data-name="np_link_670654_3C72F6" class="cls-1" d="M12.5,5A7.5,7.5,0,1,0,20,12.5,7.5,7.5,0,0,0,12.5,5Zm.361,10.44-.995.995a2.219,2.219,0,0,1-3.135,0l-.166-.166a2.217,2.217,0,0,1,0-3.135l1.592-1.592a2.216,2.216,0,0,1,3.135,0l.166.165a2.224,2.224,0,0,1,.226.264.459.459,0,1,1-.742.54,1.307,1.307,0,0,0-.133-.156l-.165-.165a1.306,1.306,0,0,0-1.13-.364,1.29,1.29,0,0,0-.708.364L9.214,13.783a1.3,1.3,0,0,0,0,1.838l.166.166a1.3,1.3,0,0,0,1.839,0l.995-.995a.458.458,0,1,1,.648.648Zm3.574-3.574-1.591,1.592a2.2,2.2,0,0,1-1.21.62,2.264,2.264,0,0,1-.355.029,2.224,2.224,0,0,1-1.57-.649l-.166-.166a2.286,2.286,0,0,1-.226-.264.459.459,0,0,1,.742-.54,1.313,1.313,0,0,0,.133.156l.165.165a1.3,1.3,0,0,0,1.839,0l1.592-1.592a1.3,1.3,0,0,0,0-1.839l-.165-.165a1.3,1.3,0,0,0-1.838,0l-.995.995a.459.459,0,1,1-.648-.648l.995-.995a2.219,2.219,0,0,1,3.135,0l.165.165a2.22,2.22,0,0,1,0,3.135Z" transform="translate(151 206)"/>
  </g>
</svg>
