<svg height="525.16895" viewBox="0 0 446.88238 525.16893" width="446.88239" xmlns="http://www.w3.org/2000/svg">
	<g transform="translate(-3.267 -3.267)">
		<path d="m246.89184 348.06171c17.6128 12.34301 29.44116 43.47229 29.44116 64.80529 0 46.933-38.4 85.333-85.333 85.333h-102.4c-46.933 0-85.333-38.4-85.333-85.333 0-40.96 26.561695-75.947 65.815695-83.627l-.188562 31.50308c-19.627 6.827-31.493133 29.93692-31.493133 52.12392 0 28.16 23.04 51.2 51.2 51.2h102.399c28.16 0 51.2-23.04 51.2-51.2 0-12.8-5.20981-27.8528-14.39831-35.25543zm-31.93134-16.42135-19.72653 30.42442c-3.413-.853-8.60731-.39778-12.02131-.39778h-77.54566l-.005-34.18014 84.48447.0471c5.38755.003 16.52103.5864 24.81403 4.1064z" fill="#2971ff"/>
		<path d="m105.667 358.13665.0323 36.63671c.008 9.21048-7.24372 15.28678-16.63072 15.28678s-17.095903-5.92895-17.190858-15.13895l-.344722-33.43572v-34.32907-53.586-34.32906-48.56229c0-9.21047 7.68-16.74605 17.067-16.74605s17.067 7.53558 17.067 16.74605v46.88837 34.32906 51.91209z" fill="#2ed6a1" stroke-width=".990553"/>
		<path d="m410.48734 57.121221c39.78228 25.149308 51.60121 77.594049 26.4519 117.376319l-54.81332 86.70477c-21.92478 34.68158-65.29473 47.95504-102.45072 34.45947l18.51349-30.41422c20.37741 5.03017 42.93628-3.55331 54.54365-21.91436l54.81234-86.70455c15.66403-23.64927 8.53529-55.28195-15.9461-70.758448-23.64927-15.664026-55.28195-8.535293-70.75845 15.946108l-54.81234 86.70455c-11.41985 19.19318-10.34405 41.94843 2.93971 58.19964l-18.41818 29.11068c-28.96067-27.58806-35.19606-71.51631-12.43914-106.38542l54.81234-86.704554c24.50471-38.762612 77.78255-50.769293 117.56482-25.619985" fill="#2971ff"/>
		<path d="m322.14209 196.8696c8.16086 5.15908 10.41209 15.14856 5.25278 23.30845l-29.01843 45.90262-18.51349 30.41421-29.01843 45.90263-18.05566 28.56123-23.21475 36.72209c-5.15908 8.16087-15.98069 10.59962-23.30845 5.25279-7.32775-5.34683-10.41209-15.14856-5.25278-23.30845l18.70102-29.58208 20.82333-31.80916 31.59759-49.98246 19.34563-30.60174 29.01843-45.90262c3.49287-7.78537 13.48234-10.0366 21.64321-4.87751" fill="#2ed6a1"/>
		<path d="m173.934 88.6v102.4c0 40.96-29.01011 76.0987-68.26411 83.7787l-.003-34.30536c19.62711-6.827 34.13311-26.43334 34.13311-48.62034v-102.4c0-28.16-23.04-51.2-51.2-51.2s-51.2 23.04-51.2 51.2v102.4c0 22.187 11.974 40.44954 31.6 47.27654v35.60792c-39.253-7.68-65.733-42.77746-65.733-83.73746v-102.4c0-46.933 38.4-85.333 85.333-85.333s85.334 38.4 85.334 85.333" fill="#2971ff"/>
		<path d="m124.84881 528.43595-.0471-93.05081c-.005-9.387 7.68-17.067 17.067-17.067s17.067 7.68 17.067 17.067v93.04187z" fill="#2ed6a1"/>
	</g>
</svg>
