<svg xmlns="http://www.w3.org/2000/svg" viewBox="0 0 500 500" data-name="Layer 1" id="Layer_1"><defs id="defs4"><style id="style2">.cls-1{fill:#091440}</style></defs><g transform="matrix(.60842 0 0 .5692 28.72 -60.293)" id="layer1" fill="#aca793"><text style="line-height:0%;-inkscape-font-specification:'Lato Semi-Bold'" x="51.377" y="346.825" id="text4063" font-weight="600" font-family="Lato" letter-spacing="0" word-spacing="0"><tspan id="tspan4065" x="51.377" y="346.825" style="line-height:1.25;-inkscape-font-specification:Monospace" font-weight="400" font-size="128.78" font-family="monospace">01101100 </tspan><tspan x="51.377" y="507.799" id="tspan4067" style="line-height:1.25;-inkscape-font-specification:Monospace" font-weight="400" font-size="128.78" font-family="monospace">01101111 </tspan><tspan x="51.377" y="668.774" id="tspan4069" style="line-height:1.25;-inkscape-font-specification:Monospace" font-weight="400" font-size="128.78" font-family="monospace">01110110 </tspan><tspan x="51.377" y="829.749" id="tspan4071" style="line-height:1.25;-inkscape-font-specification:Monospace" font-weight="400" font-size="128.78" font-family="monospace">01100101</tspan></text></g><g data-name="&lt;Group&gt;" id="_Group_"><g data-name="&lt;Group&gt;" id="_Group_2"><g data-name="&lt;Group&gt;" id="_Group_3"><path d="M231.88 278.06h74.22a50 50 0 0 0 0-100h-23.65l-50.57-43.9h74.22a93.92 93.92 0 0 1 35.38 180.92L400 365.86h-67z" class="cls-1" data-name="&lt;Path&gt;" id="_Path_"/></g><g data-name="&lt;Group&gt;" id="_Group_4"><path d="M268.12 221.95H193.9a50 50 0 0 0 0 100h23.64l50.57 43.9H193.9a93.92 93.92 0 0 1-35.38-180.92L100 134.14h67z" class="cls-1" data-name="&lt;Path&gt;" id="_Path_2"/></g></g></g></svg>