<svg height="250" viewBox="0 0 6.614583 66.145833" width="25" xmlns="http://www.w3.org/2000/svg" xmlns:xlink="http://www.w3.org/1999/xlink"><linearGradient id="a" gradientUnits="userSpaceOnUse" x1="77.44241653" x2="90.54488806" y1="85.74549104" y2="72.64301951"><stop offset="0" stop-color="#2c2fa9"/><stop offset="1" stop-color="#504cff"/></linearGradient><linearGradient id="b" gradientUnits="userSpaceOnUse" x1="77.44241653" x2="90.54488806" y1="103.21545008" y2="90.11297855"><stop offset="0" stop-color="#101866"/><stop offset="1" stop-color="#3133b4"/></linearGradient><linearGradient id="c" gradientUnits="userSpaceOnUse" x1="87.5972965924" x2="93.9301578319" y1="91.0961285414" y2="84.7623380486"><stop offset="0" stop-color="#3133b4"/><stop offset="1" stop-color="#4342e0"/></linearGradient><linearGradient id="d" gradientUnits="userSpaceOnUse" x1="74.0580760114" x2="80.3909372509" y1="91.0951992881" y2="84.7623380486"><stop offset="0" stop-color="#1d2285"/><stop offset="1" stop-color="#2f31b0"/></linearGradient><linearGradient id="e" gradientUnits="userSpaceOnUse" x1="1.522907" x2="5.083274" y1="58.088606" y2="54.370584"><stop offset="0" stop-color="#2970ff"/><stop offset="1" stop-color="#2dd8a3"/></linearGradient><linearGradient id="f" gradientUnits="userSpaceOnUse" x1="5.490609" x2="1.319409" y1="12.265434" y2="7.528574"><stop offset="0" stop-color="#195489"/><stop offset="1" stop-color="#2a8ac7"/></linearGradient><path d="m162.98333 64.465046v-16.69616l.92038.80811c1.71629 1.50692 3.71443 1.43786 5.89939-.20388 2.30105-1.72897 3.58727-1.73102 5.89481-.009.76619.57166 1.79073 1.11397 2.27675 1.20515 2.71102.5086 5.117-1.49602 5.117-4.26337 0-1.154-.4811-2.12428-1.56361-3.15346-.66773-.63484-1.10057-.79735-2.36785-.88902-1.6825-.1217-2.1917.0613-3.83481 1.37809-.87679.70266-1.23494.81695-2.56028.81695-2.4298 0-3.96653-1.43895-4.15609-3.89164-.10061-1.30179-.0233-1.5281 1.10181-3.2252 1.6709-2.52038 1.67433-3.60712.0194-6.12684-.98042-1.49273-1.19062-2.02992-1.19062-3.04281 0-2.23902 1.951-4.21872 4.15756-4.21872 1.31133 0 1.73712.18511 3.47219 1.50951 1.13911.86951 1.31363.91988 2.84851.82214 1.43369-.0913 1.79043-.23143 2.89667-1.13791 1.06516-.87281 1.49194-1.04989 2.74074-1.13718 1.26637-.0885 1.61232-.006 2.40516.57722 2.16652 1.59234 2.50531 1.74548 3.86348 1.74648 3.07832.002 5.04617-2.83246 3.95312-5.69454-.59708-1.56344-1.88856-2.54851-3.5506-2.70821-1.35656-.13035-2.43704.27254-3.81501 1.42255-1.71265 1.42933-3.67787 1.33031-5.70545-.28747-1.96824-1.570439-3.81388-1.570219-6.01612.00079-2.3694 1.69015-3.96145 1.69583-6.11015.0218-1.99751-1.556359-4.09184-1.600489-5.77597-.1218l-.92038.8081v-16.5638593-16.5638707h84.66666 84.66667l-.0139 28.376561c-.0131 26.777179-.0392 28.339279-.46302 27.715099-.24702-.3638-1.90765-2.22465-3.69028-4.13522s-3.24114-3.59274-3.24114-3.73816 1.56226-1.75514 3.4717-3.57714c2.00221-1.91055 3.39549-3.43604 3.29167-3.60403-.10582-.17122-1.02056-.29128-2.21924-.29128h-2.03922l-3.03408 3.04271c-1.66874 1.67349-3.12532 3.04271-3.23683 3.04271s-.20275-3.429-.20275-7.62c0-5.57389-.0853-7.70526-.3175-7.9375-.41684-.416839-2.36839-.408059-2.94241.0132-.41531.3048-.4452 1.32625-.3813 13.03073l.0693 12.7h1.71979 1.7198l.0737-3.65754c.0406-2.01165.17205-3.61899.29221-3.57188.12015.0471 1.68006 1.72278 3.46647 3.72369l3.24802 3.63802h2.21447 2.21447v19.18229 19.18229h-84.66667-84.66666zm28.8849-17.87297c.54947-.49727.64081-1.68057.16635-2.15504-.51703-.51702-2.00507-.39236-2.31903.19428-.43579.81429-.32071 1.54209.31415 1.98676.75287.52733 1.23463.52052 1.83853-.026zm25.29792-4.23606c.80001-.41251 1.62104-1.00315 1.8245-1.31254.33286-.50615.29972-.64598-.33056-1.39503-1.1711-1.39177-1.59551-1.49534-2.77581-.67739-2.4861 1.72287-5.94018.83362-7.15546-1.84218-1.44361-3.17851.27796-7.24915 3.25462-7.69553 1.53343-.22995 2.57948-.005 3.78723.81466.52062.3533 1.09572.64237 1.278.64237.18229 0 .78358-.46304 1.33619-1.02897.85938-.88008.96278-1.10743.71457-1.57121-.15961-.29824-1.09149-.93653-2.07084-1.41843-1.59967-.78714-2.00966-.87541-4.0343-.86853-1.86491.006-2.51179.12734-3.74999.7015-3.17445 1.47202-4.80951 4.20679-4.81818 8.0588-.004 1.89845.0966 2.35932.85167 3.89318.8811 1.78977 2.06549 2.9907 3.73277 3.7849 1.51737.72279 2.40308.86952 4.61241.76408 1.64632-.0786 2.39663-.25849 3.54318-.84968zm15.55274.14238c1.661-.77753 3.5217-2.6336 4.34278-4.33198.51918-1.0739.64116-1.74624.64805-3.57188.008-2.06375-.0658-2.38679-.89404-3.92271-.99299-1.84155-2.33443-3.13514-4.21092-4.0607-1.00283-.49464-1.66111-.60503-3.60789-.60503-2.84424 0-4.32477.59319-6.22616 2.49458-1.85024 1.85024-2.47683 3.38682-2.48497 6.09386-.006 1.94566.0929 2.44522.73202 3.70417 1.23719 2.43701 3.30778 4.13548 5.84667 4.79594 1.43032.37209 4.44087.0655 5.85446-.59625zm-5.8694-3.11837c-.59898-.272-1.43242-.94473-1.85209-1.49494-.70517-.92453-.76303-1.17407-.76303-3.29055 0-2.11647.0579-2.36601.76303-3.29054 1.73243-2.27132 5.29979-2.6257 7.39138-.73426 2.00865 1.81643 2.00865 6.23318 0 8.04961-1.40393 1.26959-3.71867 1.58746-5.53929.76068zm48.34402 3.43074c.7455-.28327 1.57271-.71165 1.83825-.95197.56493-.51124 1.04532-.31046 1.04532.4369 0 .47746.15311.51889 1.65364.44741l1.65365-.0788.0687-12.66977c.0496-9.13519-.0148-12.77048-.23083-13.03073-.16476-.19853-.7515-.360959-1.30387-.360959-1.92652 0-1.84132-.25768-1.84132 5.568939 0 2.95479-.10766 5.31428-.24639 5.40002-.13552.0838-.68763-.14715-1.22693-.51312-2.92337-1.98386-7.81673-1.3198-10.18965 1.38279-3.32808 3.79049-2.91099 10.08252.86928 13.11328 2.10225 1.68544 5.40127 2.20927 7.91012 1.25598zm-4.39247-3.42217c-1.25884-.57806-1.82296-1.1681-2.37116-2.48014-.96338-2.30569-.16641-5.51483 1.67312-6.73711 2.54746-1.69266 6.23606-.70772 7.35203 1.96317.42689 1.02168.46994 3.71538.0761 4.7579-.95818 2.53605-4.10307 3.70249-6.73004 2.49618zm25.53752 3.10073c1.79031-.82288 3.16977-1.96011 3.16977-2.61317 0-.59112-1.55781-1.84203-2.29396-1.84203-.28832 0-.80104.29466-1.13937.6548s-1.128.85066-1.75481 1.09004c-2.61031.99688-6.0879-.71561-6.49839-3.20005-.0849-.51388.096-.53299 6.26257-.66146l6.35-.13229-.0339-1.87936c-.0596-3.30804-1.5579-5.79473-4.40526-7.31139-.91912-.48957-1.53917-.59537-3.49837-.59694-2.07059-.002-2.57664.0941-3.87894.73359-1.7247.84697-3.21054 2.37148-4.02223 4.12692-.45838.99134-.5655 1.72421-.5655 3.86885 0 2.26581.0895 2.81684.62337 3.83645 1.1589 2.2135 3.24708 3.94519 5.46205 4.52956 1.55619.41057 4.67461.10814 6.22294-.60352zm-8.4719-10.04637c0-1.76871 2.3318-3.51102 4.67148-3.49052 2.216.0194 4.05977 1.60864 4.05977 3.49928 0 .54161-.10784.55533-4.36562.55533-4.27932 0-4.36563-.0112-4.36563-.56409zm24.28739 10.03687c.72214-.37163 1.57074-1.10867 2.03182-1.7647.65894-.93756.79023-1.37897.78262-2.63137-.0172-2.83424-1.33439-4.14494-5.10964-5.08454-2.72582-.67842-3.47136-1.13091-3.47136-2.10688 0-.97191.5525-1.38001 2.0593-1.5211 1.02587-.0961 1.42668.005 2.25193.56885 1.2564.85814 1.46608.85482 2.64798-.0419 1.19136-.90389 1.21816-1.46347.1184-2.47219-2.56711-2.35459-7.89375-1.87829-10.10201.90333-.70145.88358-.80307 1.2224-.80726 2.69167-.008 2.71231 1.21835 3.90677 5.04893 4.9187 2.56118.67659 3.54523 1.30108 3.54523 2.24981 0 1.71531-3.45253 2.22854-5.49056.81618-.56109-.38884-1.17523-.70698-1.36475-.70698-.50277 0-2.4051 1.57083-2.4051 1.98599 0 .58015 2.14285 2.23618 3.43148 2.6519 1.81537.58565 5.25403.35579 6.83299-.45677zm-68.53516-7.92958.0699-8.11408-.81823-.17971c-.45002-.0988-1.22563-.10328-1.72358-.01l-.90536.16985v8.01371c0 4.40753.0846 8.09827.18794 8.20163.10336.10337.8475.15298 1.65364.11025l1.46571-.0777zm7.47307 2.95471c.1181-4.52447.1995-5.26993.66146-6.05776.76258-1.30052 1.75917-1.93832 3.21905-2.06015 1.45869-.12174 2.29347.23432 3.10306 1.32354.51079.68722.56514 1.18953.68696 6.35l.1323 5.60375 1.63935.0784 1.63936.0784.1799-.95894c.0989-.52742.1265-3.30114.0612-6.16382-.13083-5.73818-.38806-6.82357-1.96784-8.30345-2.00245-1.87582-5.65684-2.02709-8.14698-.33723-1.17695.7987-1.1534.79743-1.25798.0677-.10707-.74719-1.14925-1.12966-2.42569-.8902l-.96615.18125v8.20272 8.20272l1.65365-.0788 1.65365-.0788zm-71.18964-2.76084c.17327-.20878.27714-.77217.23083-1.25199-.0658-.68137-.24658-.92916-.82576-1.1316-.90575-.31659-1.53726.0171-1.88638.99664-.19266.54056-.1402.80986.23944 1.22936.56354.6227 1.78462.70854 2.24187.15759zm11.96591-.0583c.54947-.49727.64081-1.68057.16635-2.15503-.51703-.51703-2.00507-.39237-2.31903.19427-.39241.73322-.33879 1.35921.164 1.91479.54455.60172 1.3539.62043 1.98868.046zm51.83337-12.24177c1.2022-1.2022.94021-2.93471-.57955-3.83246-1.02399-.60488-2.13814-.35397-3.00553.67686-.911 1.08267-.87469 2.17612.10479 3.1556.57258.57259 1.02441.7734 1.74014.7734.71574 0 1.16756-.20081 1.74015-.7734zm-80.70752 16.90299.0108-3.82646.79026.92475c1.57102 1.83837 1.56202 3.9658-.0246 5.81213l-.78718.91604zm-.004-12.15084-.007-3.82647.78718.91605c1.58761 1.8475 1.59154 3.94342.0109 5.81084l-.78383.92604z" fill="#fefefe" stroke-width=".264583"/><g stroke-width="2.135957" transform="matrix(.00424305 0 0 .00424305 2.88678 46.852752)"><path d="m111.27371 1350.4967c-91.442043-12.2488-171.87701-43.714-247.77106-96.9251-11.16038-7.8248-23.13105-15.6444-26.60147-17.3769-9.02991-4.5079-66.04374-61.8304-82.39943-82.8456-24.61919-31.6328-42.64853-60.5319-60.8828-97.5888-25.85619-52.5467-40.30374-97.05705-50.3126-155.00417-6.49366-37.59543-8.08343-115.46394-3.1804-155.77768 12.26569-100.85117 53.12493-198.55804 116.1184-277.67446 20.0054-25.12569 61.86717-66.95927 85.4959-85.4383 45.48381-35.57095 107.883115-70.04225 156.3277194-86.36023 31.1765206-10.50144 36.3112766-13.09723 36.3112766-18.35653 0-2.31939-1.239688-4.21706-2.754872-4.21706-5.550222 0-44.142188 13.00576-69.999064 23.59017-70.06786 28.682-122.66955 64.79241-179.28904 123.07966-32.69519 33.65824-33.31727 34.15898-49.97039 40.22339-62.53946 22.77434-134.7743 69.83771-180.73385 117.75398-28.10644 29.30309-60.97444 71.7511-71.31946 92.10689-7.80011 15.34819-10.19925 3.07434-4.33863-22.19617 27.49665-118.56324 111.09628-218.14381 222.22109-264.70098 12.4119-5.20011 27.75288-10.96233 34.09105-12.80489 15.5917-4.53261 16.32547-7.09161 1.37545-4.79685-21.33616 3.275-51.9386 12.25027-80.06707 23.48255-15.00608 5.99225-27.80356 10.37524-28.43884 9.73996-1.93389-1.93389 37.09618-32.99714 63.70572-50.70209 65.39992-43.51456 139.92888-71.04684 220.564395-81.48029 21.632913-2.79908 79.442452-3.79489 106.768012-1.83916 12.513827.89563 15.027913.51771 15.57914-2.34193.361511-1.87546-6.967622-23.98262-16.286954-49.12702-20.0419446-54.07499-28.674374-83.60859-34.495691-118.017933-7.422965-43.876745-5.015549-97.2330703 5.867304-130.03763 2.054001-6.19151 4.6957531-11.257292 5.8705297-11.257292 1.2092296 0 2.7464996 10.193968 3.5431904 23.495532 2.1781426 36.367235 16.4351669 78.12393 39.8953069 116.847443 13.856212 22.87118 22.529353 34.29309 47.339695 62.34304 11.160377 12.61764 27.779042 33.69063 36.930382 46.82884 9.15132 13.13823 18.56344 26.29065 20.91581 29.22759l4.277 5.33989-.92209-12.97985c-.65265-9.18662-4.3831-21.67078-12.76513-42.71915-14.40821-36.18087-17.36792-51.7428-15.81969-83.17881 1.78801-36.304834 10.74934-52.002414 16.20184-28.38084 3.54934 15.376601 16.46466 47.24317 25.37005 62.59674 4.08837 7.04866 17.72261 26.75286 30.29832 43.78712 12.5757 17.03426 25.03408 34.09522 27.68529 37.91325 2.65122 3.81802 5.59327 6.94186 6.53791 6.94186.94463 0 2.34642-3.93292 3.11506-8.73985 1.95041-12.19717 9.51841-26.59967 12.44129-23.67679 1.2468 1.24681 4.92426 12.80966 8.17213 25.69519 17.49433 69.40699 59.11583 132.86541 117.19155 178.67659 20.52899 16.19364 22.43811 18.40309 36.90292 42.70858 21.86802 36.74526 35.68691 54.73149 61.01975 79.42132l22.31691 21.75046 1.37981 22.27218 1.37981 22.27216 15.33423 20.05609c18.91414 24.73834 33.30019 38.87167 54.08345 53.13335 15.47217 10.61718 16.45768 10.96978 28.83542 10.31738l12.81575-.6755.6609 19.22362c1.81548 52.80661-12.35375 106.81402-34.25789 130.5772l-8.4865 9.20675-8.07155-4.64539-8.07155-4.64538-12.53788 6.6525c-22.3262 11.84613-48.20845 17.01324-72.29774 14.4335-13.93825-1.49265-14.2466-1.66789-29.49379-16.75996-24.61377-24.36338-58.38964-39.81726-86.81652-39.72221-17.24596.0577-28.97277 4.97642-38.01374 15.94468-3.6266 4.39971-7.57014 7.39608-8.76341 6.6586-3.91228-2.41793-9.6971-23.40339-10.91438-39.59399l-1.19362-15.87582-26.69946-13.78913c-14.68471-7.58399-43.52343-24.15391-64.08603-36.82202-20.56261-12.66813-43.02421-25.14225-49.91466-27.72031-12.36315-4.62565-12.71454-4.63784-26.69216-.92687-7.79024 2.06824-16.678347 5.02155-19.75137 6.56287-11.39104 5.71341-33.307181 57.79151-42.923005 101.99554-4.041403 18.57828-4.727472 28.38916-4.801846 68.66624-.0769 41.61273.482363 49.53328 4.885981 69.20261 7.039945 31.44497 16.013722 57.72346 28.187996 82.54484 46.814634 95.44738 132.660474 162.27498 237.790224 185.11008 29.41662 6.3896 101.12565 6.9634 130.2801 1.0425 44.00843-8.9376 90.40378-28.2408 127.64364-53.1073 23.70689-15.83 66.13747-56.9598 84.07656-81.4991 6.71859-9.1905 12.77893-16.1467 13.46743-15.4582 2.22133 2.2214-22.22239 48.5049-39.55026 74.8873-23.67325 36.0436-46.9096 64.0854-78.7871 95.0811-80.25418 78.034-175.70474 126.0272-289.14572 145.3845-34.77161 5.9334-117.55577 7.5753-151.65298 3.0079zm300.49306-738.09627c3.30496-1.25656 7.69132-3.80709 9.74748-5.66789 3.50479-3.17179 2.56546-4.59763-15.02872-22.81286-17.8769-18.50792-49.00248-54.95288-71.9429-84.23797-5.8359-7.44994-10.92322-12.60787-11.30517-11.46206-1.97642 5.92929 38.42154 106.20531 46.10571 114.44376 10.38261 11.13159 28.07502 15.19232 42.4236 9.73702zm-459.389302 721.93487c-108.179558-19.0399-203.493198-67.1565-280.846128-141.7778-54.45056-52.5278-99.70056-121.471-127.63666-194.46809l-8.17435-21.35958-.0436-54.46691c-.0458-57.21754 1.32913-71.71033 10.90708-114.97013 16.02161-72.36333 46.3411-138.06049 90.86073-196.87965 21.4913-28.39422 31.16322-39.02243 33.94614-37.30249 1.12889.69771.51019 4.59897-1.44564 9.11533-59.71033 137.88233-62.57971 292.00041-8.0176 430.63722 27.82694 70.7054 66.12805 130.0414 119.21597 184.6891 53.53594 55.1088 121.811775 101.5978 190.225061 129.5241 10.57299 4.3159 20.1367391 8.7136 21.2527769 9.7727 3.2566943 3.0904-14.8166239 1.9614-40.2438099-2.5138zm377.831882-167.3267c-74.20145-12.3634-150.73308-54.3455-196.96048-108.0444-22.98557-26.7006-22.53072-29.8729 1.94975-13.5983 45.38491 30.1718 97.38896 50.5497 155.49552 60.9312 20.91427 3.7366 93.83528 3.7333 115.3417 0 23.81986-4.1406 61.97581-14.5002 80.68261-21.9059 25.40352-10.0577 59.24969-28.3748 81.65016-44.1888 25.90696-18.2896 69.53516-61.87059 88.12706-88.03178 13.50476-19.00293 46.43826-80.4578 46.43826-86.65513 0-1.54163 1.11506-3.4921 2.4779-4.33439 3.18132-1.96617 1.15919 24.0782-3.70086 47.66556-26.48054 128.51844-123.34189 225.99334-253.44635 255.05184-25.46651 5.6879-92.06564 7.4448-118.05527 3.1144zm-821.72331-162.6518c-6.43544-16.08381-18.39508-68.34028-21.96583-95.9776-4.23919-32.81096-4.79227-92.9451-1.13942-123.88553 5.71349-48.3946 18.79626-96.8947 39.11482-145.00537 8.77602-20.78004 13.56961-28.83995 26.06341-43.82288 37.56021-45.04328 90.33933-86.35302 146.12341-114.36946 26.56078-13.33963 40.33145-18.61202 41.91586-16.0484.70888 1.147-4.41909 10.00866-11.39546 19.69258-6.9764 9.68394-19.53457 29.1417-27.90706 43.23947-12.42266 20.91754-18.43666 28.57223-32.69561 41.61533-71.64416 65.5351-128.53775 166.70492-147.88198 262.96795-9.75251 48.53162-12.43291 103.0263-7.48543 152.18455 2.65952 26.42506 1.98046 31.22366-2.74671 19.40936z" fill="#fbe08e"/><path d="m116.61361 1346.17c-80.343785-8.8051-160.61563-36.6751-225.90002-78.4312-46.17752-29.5353-58.64615-39.3269-90.353-70.9545-43.80939-43.6998-71.03054-80.403-98.17292-132.3698-28.25336-54.094-46.95946-113.13257-56.88343-179.53084-1.86747-12.49466-2.837-38.66279-2.76981-74.75851.0929-49.85659.68926-59.09963 5.83313-90.3989 12.03373-73.22233 38.54579-142.31034 76.77755-200.07539 21.89623-33.0834 29.86329-40.92189 43.30743-42.60853 25.88129-3.24697 63.39473-9.79353 66.91491-11.67749 2.11512-1.13197 14.32596-2.6915 27.13523-3.46565 12.80925-.77414 28.12652-2.33636 34.03834-3.4716 5.911818-1.13526 14.11289-2.50676 18.224609-3.04779 49.060016-6.45559 65.184978-11.15701 104.661915-30.51527 7.636048-3.74449 15.567413-6.78103 17.625237-6.74786 2.057846.0331 14.072607 5.44748 26.699469 12.03181l22.957954 11.97151 29.181766.66866c16.04997.36777 31.12539 1.70885 33.50092 2.98019 2.37552 1.27134 12.79265 2.32717 23.14918 2.34629 37.49693.0692 64.96831 3.45529 75.43292 9.29771 5.2865 2.95145 18.35379 7.27044 29.03845 9.59771 33.44012 7.28381 32.32584 6.34591 45.06748 37.9339 29.2481 72.50926 37.70002 92.09693 42.41927 98.30817 6.71602 8.83929 21.24963 15.70435 33.24681 15.70435 11.67111 0 31.78438-9.29067 31.78438-14.68174 0-1.99091-5.36021-8.87349-11.91156-15.29463-23.1124-22.65303-76.139-86.99342-83.92082-101.82626-2.28411-4.35368-.96381-4.07921 17.31041 3.59851 29.98069 12.59604 71.07991 35.34805 82.25989 45.53802 5.65029 5.14994 5.9294 4.05139 1.60197-6.30559-4.30722-10.30862-4.03542-13.55427 1.135-13.55427 2.38645 0 4.89222-1.44177 5.56842-3.20393.67623-1.76217 1.96387-3.20394 2.86144-3.20394 3.03746 0 33.76477 25.63072 35.2254 29.38272.79746 2.04853 2.00387 14.07024 2.68088 26.71487l1.23091 22.99025 18.36812 22.87542c10.10985 12.59066 27.51107 30.74159 38.70389 40.37145 19.74042 16.98381 20.76418 18.32041 34.96877 45.65472l14.63302 28.15871-2.61854 16.34544c-3.95205 24.66962-11.92494 47.57755-21.60309 62.07073-4.77957 7.15744-9.69862 13.01356-10.93124 13.01356-1.23259 0-5.25921-1.86531-8.94803-4.14513l-6.70693-4.1451-9.24067 6.20609c-18.94338 12.72253-30.62706 15.73263-61.54419 15.85572l-28.15961.11214-11.35561-11.9669c-25.81642-27.2062-69.34187-46.85444-97.38246-43.96041-12.77424 1.31842-28.56835 9.52122-33.84824 17.5794-1.88857 2.8823-4.25754 5.24057-5.26441 5.24057-2.90725 0-8.98967-23.17454-10.33334-39.37097l-1.22843-14.80748-26.17836-13.5264c-14.3981-7.43952-44.03515-24.51494-65.86011-37.94541-21.82496-13.43046-44.60518-26.05431-50.62272-28.05301-10.38127-3.44812-11.73995-3.43506-26.55865.25506-23.845358 5.9379-26.765425 8.46253-38.783091 33.53096-11.858131 24.73561-18.885986 45.79984-26.209971 78.55767-4.433478 19.82959-5.003886 27.74718-4.924108 68.35064.09911 50.50864 2.75829 68.62848 16.03192 109.24739 56.99783 174.42006 244.21418 273.66276 420.09958 222.69316 63.17455-18.3073 113.61721-50.8645 163.60231-105.594l14.57168-15.9547-5.79432 11.7356c-18.77917 38.035-54.82593 86.1087-93.75924 125.042-45.80288 45.8029-88.78003 76.3569-147.45747 104.8329-46.53282 22.5822-72.3845 30.9825-131.36138 42.6845-45.63501 9.0547-111.61156 11.5564-161.26479 6.1147zm-273.45452-79.0362c-38.28693-19.5364-80.89638-48.3611-121.67636-82.3124-10.06914-8.383-13.25402-10.0468-14.9517-7.811-3.85824 5.0813-22.99728 14.497-26.93024 13.2487-5.79517-1.8393-44.74555-43.5467-61.55844-65.9156-27.21221-36.2049-52.18628-81.1456-69.3935-124.87298-10.57987-26.88588-13.91319-63.6278-10.26971-113.19902 7.86721-107.03684 39.93886-194.56043 101.08404-275.85836 18.04889-23.99761 26.65436-33.62837 28.44675-31.836.48903.48905-2.92812 10.49545-7.59367 22.23647-78.39257 197.2772-39.68073 420.70909 101.46831 585.64159 28.45226 33.2464 58.20596 59.6553 97.48583 86.5267 9.06445 6.201 3.65212 4.2364-16.11131-5.8481zm481.29014-103.4714c-14.91985-2.7154-33.20993-8.2243-52.71079-15.8765-37.49187-14.7118-54.08166-23.0575-79.1001-39.7921-26.6933-17.8548-71.97043-61.2717-68.01837-65.2238.54811-.5481 10.45517 4.9483 22.01572 12.2143 52.45866 32.9709 119.47063 54.8168 179.30175 58.4523 35.40512 2.1513 46.50605 3.0694 47.35287 3.9162 1.44579 1.4458-32.22322 26.339-38.80904 28.6935l-6.40787 2.2909 8.09401.1685c13.25917.2762 48.17343-4.0873 69.67229-8.7076 57.71957-12.4043 119.24813-42.6836 170.22598-83.7711 9.51988-7.673 29.4348-25.9803 44.25537-40.6831 26.83632-26.62297 26.9827-26.7287 35.79103-25.85241 4.86449.48395 9.28107 1.31644 9.81464 1.85002 1.68556 1.68555-13.43637 29.63789-24.4501 45.19509-44.24947 62.5035-111.87839 106.1609-193.78961 125.0995-28.83732 6.6675-92.02766 7.7064-123.23778 2.0263zm-824.71615-209.89411c-10.77074-46.67014-15.31813-121.15646-10.1447-166.17001 7.81043-67.95773 33.86685-150.59704 57.32174-181.79896 24.77843-32.96259 73.64018-75.69207 118.03365-103.22014 20.89767-12.95849 67.90493-36.34772 69.61472-34.63793.53377.53378-7.03166 12.87786-16.81206 27.43131-9.78038 14.55346-21.44145 33.00358-25.91344 41.00026-5.87461 10.50475-15.26423 21.4615-33.83666 39.48397-55.52725 53.88296-98.6259 118.16263-122.14227 182.16957-22.20578 60.43975-31.70957 112.52095-32.01624 175.45033-.0959 19.67751-.25457 35.77729-.35262 35.77729-.098 0-1.7865-6.96856-3.75212-15.48569zm-24.97469-287.68061c0-6.17217 7.525-36.04445 13.81491-54.84156 18.42104-55.05048 51.0106-104.86193 97.77187-149.43916 27.51177-26.22683 54.96985-45.30409 90.2612-62.71146 33.71141-16.62806 53.84288-23.9258 86.12213-31.21956 23.9821-5.41894 26.50892-6.53648 21.68187-9.58921-4.73143-2.99224-14.0457-2.4886-41.91106 2.26621-30.46056 5.19764-50.01912 10.49842-79.58056 21.568-12.22729 4.57866-22.63468 7.92156-23.12753 7.42871-2.8289-2.82888 66.65303-47.08385 70.34296-44.80335 1.54831.95691 1.76671.48305.62713-1.3608-1.2801-2.07126-.7667-2.45225 1.91688-1.42246 2.47006.94785 3.16658.59959 2.13595-1.06798-1.0306-1.66758-.33408-2.01583 2.13596-1.06798 2.0159.77356 3.18608.63114 2.60038-.31654-1.43579-2.32316 87.24745-43.34277 108.70887-50.2823 44.04353-14.24141 83.507245-20.49947 139.127534-22.06248 41.78847-1.1743 60.973704.002 57.124773 3.50195-1.034103.94038-9.089033 3.85606-17.8998578 6.47928-17.4699532 5.20127-70.6931432 25.76928-84.3703192 32.60475-4.699107 2.34848-20.693071 11.39648-35.54214 20.10666-25.1289 14.74011-28.38262 16.05069-46.99106 18.92774-32.56616 5.03503-36.05202 5.78407-37.45088 8.04748-.82824 1.34012.60977 1.69104 3.78981.92476 10.21936-2.46246 41.45964-4.18278 39.2998-2.16411-1.17478 1.09799-10.0657 8.50235-19.75761 16.45416-9.6919 7.95178-17.62164 15.42202-17.62164 16.60051 0 1.17847-7.99261 9.98646-17.76134 19.57329-9.76876 9.58682-22.67794 22.96178-28.68707 29.72213-10.26342 11.54647-12.71492 13.00941-40.44348 24.13465-68.65514 27.54578-128.97071 68.19213-177.89183 119.88036-20.38812 21.54134-53.3919 63.87332-60.90153 78.11478-3.99788 7.58166-7.52412 10.39995-7.52412 6.01353zm941.23721-170.48225c-8.05128-12.78149-11.19972-19.62129-18.26771-39.68541-11.70751-33.23449-9.19199-32.82501 11.90228 1.93753 24.81444 40.89318 23.81001 38.63221 18.83323 42.39337-6.06476 4.58342-6.83517 4.29635-12.4678-4.64549zm-78.45395-104.89845c-59.16058-25.92845-135.08586-81.96506-176.09263-129.96504-10.66718-12.48636-12.98801-16.52065-12.28752-21.35958 1.47471-10.1873-5.07292-35.39578-15.28575-58.85032-13.37239-30.71082-17.09005-49.81375-15.4803-79.54474 2.07138-38.257182 5.75531-42.643676 13.31233-15.851108 9.62537 34.125658 19.49473 51.697678 57.89196 103.074358 15.65952 20.95291 28.47185 38.87222 28.47185 39.82067s1.65671 2.36019 3.68158 3.13721c5.09902 1.95669 9.13416-4.24596 9.13416-14.04065 0-4.39809 1.06918-10.70236 2.37598-14.00947 2.26319-5.72755 2.60883-5.15124 7.28259 12.14271 16.19327 59.91869 52.05213 119.75189 97.58901 162.8345 12.08781 11.43632 21.01667 20.75691 19.84189 20.7124-1.17478-.0444-10.37061-3.68993-20.43515-8.10094zm-307.450979-153.05553c-12.341221-27.50629-30.19293366-76.48191-37.1264438-101.85533-16.5531362-60.576728-18.5155472-121.167357-5.3819502-166.170204 2.7450253-9.405949 2.8388793-8.971357 4.3821726 20.291595 2.7068775 51.326027 8.93539354 86.671564 22.2338864 126.172939 7.785885 23.12685 29.930723 68.20168 45.573471 92.7627 7.107954 11.16037 12.890333 21.25277 12.849707 22.42755-.04058 1.17477-8.280616 6.08891-18.311115 10.92027l-18.237232 8.78432z" fill="#f9d370"/><path d="m300.30595 1321.7776c-28.81112-7.6039-62.55184-22.2027-93.98213-40.6639-23.02752-13.5257-7.36559-13.1959-149.517021-3.1482-57.56405301 4.0688-109.876706 7.4007-116.25036 7.404-14.976009.01-33.225395-8.867-73.772869-35.8771-21.92537-14.6052-31.00477-21.9491-33.79309-27.3334-6.72075-12.978-18.23211-50.263-24.00659-77.7565-7.60813-36.224-9.58765-99.1934-4.36288-138.7851 7.7708-58.88474 25.01371-109.51998 55.70353-163.57807l13.91672-24.51338-27.5053-38.9437c-67.50138-95.57262-96.01746-137.21982-95.03911-138.80284 2.20145-3.56201 30.75595-16.51257 52.30475-23.72222 42.71424-14.29101 64.68797-17.41111 121.443816-17.24418 44.825374.13179 53.165433.73242 77.962447 5.61409 30.010672 5.90805 57.698768 15.42742 92.723024 31.8788 21.457893 10.07907 27.370673 11.86308 20.546183 6.19927-2.82681-2.34605-2.14717-4.00174 5.28829-12.88256 9.08305-10.84874 10.00296-12.8016 6.03021-12.8016-1.37596 0-4.01921-1.24678-5.87388-2.77064-2.90211-2.38447-18.38974-8.93996-30.605582-12.95454-7.545547-2.47974-3.345272-5.13347 12.613172-7.969 8.99311-1.59791 17.57508-4.12925 19.07104-5.62523 1.49599-1.49596 7.59453-2.71995 13.55231-2.71995 8.08915 0 10.83236-.79234 10.83236-3.12879 0-3.93548 6.58046-7.551 13.74331-7.551 3.44741 0 5.48031-1.18849 5.48031-3.20393 0-1.87758 1.98954-3.23335 4.8059-3.275 5.25076-.0775 14.41772-6.70097 14.41772-10.41711 0-1.28017.47328-2.32758 1.05172-2.32758 2.71892 0 13.59178 11.33814 27.91985 29.1146 14.37822 17.83868 16.50106 19.62633 24.87933 20.95077 5.03791.79639 20.21342 5.27031 33.72335 9.94203 13.50993 4.6717 28.40824 9.29541 33.10734 10.27489 36.15762 7.53671 97.24686 57.54116 128.30481 105.02364 5.43823 8.31415 12.94397 16.50566 18.40215 20.08345 19.15492 12.5559 80.77251 59.2685 80.77251 61.23403 0 3.48131-26.25337 14.55362-42.92006 18.10145-10.84564 2.30871-21.14952 2.97718-32.77507 2.1263l-16.95632-1.24103-12.94708-12.77557c-16.8218-16.59895-20.68288-19.43792-38.5786-28.36609-21.45543-10.70414-35.39416-14.77303-50.91435-14.86257-16.01769-.0925-29.28547 5.07989-38.66149 15.07174-3.45042 3.67706-6.92819 6.68555-7.72838 6.68555-2.6252 0-8.42567-24.60627-8.42567-35.74273 0-5.99441-.59074-12.4384-1.31278-14.31997-.72202-1.88156-12.66036-9.20638-26.52962-16.27736-13.86928-7.07098-41.37063-23.00558-61.11414-35.41024-44.50507-27.96212-54.01025-32.81502-64.27363-32.81502-10.16475 0-34.856478 6.73318-42.102393 11.48088-11.311817 7.4118-32.338652 58.76955-42.248256 103.19082-4.01293 17.9885-4.688534 27.62662-4.763271 67.95266-.07732 41.71557.475849 49.50891 4.927248 69.41862 10.870251 48.61922 27.692432 88.76511 53.217102 127.00181 20.91794 31.3356 62.45862 72.4101 95.02604 93.9597 41.72127 27.6066 89.81938 46.3218 137.52731 53.5127 23.96335 3.6119 77.81945 4.151 100.09543 1.002 74.43823-10.523 139.69452-42.9149 192.1781-95.3932 16.49286-16.4912 18.08329-17.6297 12.86141-9.2064-13.12726 21.1751-18.82783 28.1422-27.36986 33.451-4.91095 3.0521-18.06023 12.0122-29.22061 19.9112-11.16037 7.899-54.41351 38.2186-96.11808 67.377s-80.1518 56.0423-85.4383 59.7419c-5.28649 3.6996-24.51011 17.0637-42.71915 29.6981-18.20904 12.6343-34.70318 24.8193-36.65365 27.0777-1.95047 2.2585-3.87283 4.0533-4.27191 3.9887-.39908-.065-7.45387-1.8934-15.67731-4.0637zm32.13744-157.1274c-21.49672-3.496-40.87293-8.7106-46.17149-12.4258-2.74125-1.9221 6.15164-2.5115 39.42247-2.6128 38.18904-.1162 45.98932-.7705 70.20836-5.8888 71.42625-15.0948 129.98545-43.6264 192.10571-93.599l22.73047-18.2856 13.25723.6583c7.29148.3621 13.71031 1.1114 14.26403 1.6651 2.29255 2.2926-14.27676 22.9697-34.4516 42.9927-43.15937 42.8347-95.31896 70.8018-157.67991 84.5453-26.52415 5.8456-86.33815 7.398-113.68527 2.9506zm-67.38074-21.2093c-24.01645-6.6753-58.01049-24.4204-85.05459-44.399-21.77383-16.0853-58.43944-53.2206-55.47471-56.1853.50048-.5005 8.53508 3.9518 17.85469 9.894 40.92894 26.0962 91.99718 46.1692 144.56818 56.8244 16.15317 3.2739 29.36941 6.5622 29.36941 7.3074 0 2.2251-32.75437 26.8278-37.37926 28.0765-2.34955.6344-8.59722-.049-13.88372-1.518zm-620.73196-63.686c-22.93726-32.4657-38.21591-62.7998-58.81524-116.77106-12.73629-33.36981-14.63897-37.51857-14.63897-31.92005 0 3.50547-27.37765 20.06886-29.56088 17.88422-3.08118-3.08317-1.23875-83.25328 2.46197-107.12817 5.17363-33.37716 19.46751-90.00169 28.48645-112.84772 17.00937-43.08668 47.12537-94.46901 76.92272-131.24155 17.77824-21.93987 21.82859-24.12013 15.50014-8.3435-51.30592 127.90389-58.41032 250.85408-22.22266 384.58904 6.48086 23.9506 7.47265 31.12359 8.41696 60.87479.58873 18.5488 2.36984 39.7325 3.95803 47.0748 1.58817 7.3424 2.32959 13.3341 1.6476 13.3149-.68201-.019-6.15227-6.9878-12.15612-15.4857zm-74.94414-408.79634c-2.2996-5.99266 3.13789-22.05039 16.52391-48.79766 28.75804-57.46278 82.73552-118.5564 126.4836-143.15859 9.35221-5.2593 18.38908-9.56236 20.08195-9.56236 1.91544 0-2.09112 7.46231-10.60799 19.7576-7.52731 10.86669-18.76832 28.40824-24.98009 38.98123-8.8799 15.11444-17.08751 24.93081-38.39695 45.92308-27.96855 27.55223-49.36029 52.28294-71.59482 82.76978-7.04866 9.66476-13.56679 17.58308-14.48475 17.59625-.91795.0128-2.27914-1.56602-3.02486-3.50933zm-92.33511-11.4184c-.21722-11.09869 9.46731-45.06059 19.804-69.44895 10.2494-24.18245 25.52445-50.85599 38.83652-67.81692 8.18574-10.4295 10.29608-11.79737 24.66968-15.99034 8.645-2.52186 16.14977-4.1536 16.67727-3.6261.52749.52749-1.93522 4.56313-5.47271 8.96809-37.43647 46.61672-54.64282 73.42292-77.80527 121.21475-14.1368 29.16891-16.5846 33.08017-16.70949 26.69947zm993.96367-89.21474c-8.13631-9.86374-14.56678-19.6429-13.47163-20.48701 13.63364-10.50835 17.26947-12.47574 19.30115-10.44406 2.80968 2.80968 5.27099 38.99397 2.64884 38.94091-1.04668-.0213-4.86195-3.62559-8.47836-8.00984zm-921.51979-3.69941c33.74175-56.02849 52.96165-79.51778 85.86048-104.93314 39.19576-30.27991 96.71618-57.21576 145.19222-67.99111 28.23719-6.27662 28.72592-5.05773 6.81616 16.99936-10.50237 10.57299-23.27691 23.91745-28.38788 29.65433-8.16792 9.16825-12.18997 11.52996-33.23103 19.51282-58.32774 22.12925-113.15203 55.823-166.53006 102.34554-14.8629 12.95402-14.8644 12.95471-9.71989 4.4122zm852.21463-111.18126c-6.53511-13.49976-3.64217-14.57317 3.15028-1.16888 3.03573 5.99068 4.62785 10.89216 3.53809 10.89216-1.08977 0-4.09952-4.37548-6.68837-9.72328zm-748.59911-74.75353c9.02547-7.45486 66.41567-35.44942 91.50581-44.63596 27.71298-10.14686 72.02783-21.69983 98.5944-25.70375 24.11343-3.63418 58.619519-4.39896 55.4281-1.22847-2.34338 2.328-82.73591 35.28593-97.07927 39.79887-5.28649 1.66331-23.06834 5.00087-39.51521 7.41677-35.24345 5.17696-63.74126 12.09564-92.09065 22.3577-11.30618 4.09267-21.16294 7.40667-21.90388 7.36442-.74094-.0423 1.53637-2.45857 5.0607-5.36958zm270.227902-81.59387c.01709-.88109 14.092087-8.12418 31.279944-16.09575l31.250659-14.49379 19.4490465.61007 19.4490465.61005-18.5255012 5.89249c-10.1890297 3.24086-29.2670388 10.20943-42.3955728 15.48569-21.698679 8.72054-40.589087 12.44721-40.507622 7.99124zm240.860648-39.12812c-6.78417-7.12946-12.71841-15.0592-13.18723-17.62165-.4688-2.56246-1.92251-11.70496-3.23045-20.31667-1.42833-9.4044-6.13239-24.33267-11.77861-37.37925-12.2096-28.21235-16.05445-41.60937-17.6175-61.38656-2.03202-25.710958 2.05637-57.608662 6.77857-52.886471.71883.718837 3.23753 10.757299 5.59712 22.307692 8.87636 43.450479 22.94104 80.244309 49.39878 129.229509l14.55422 26.94642-7.01098 11.9927c-3.85604 6.59599-7.94655 12.01164-9.09003 12.0348-1.14349.0233-7.62973-5.79108-14.41389-12.92052zm-159.4372231-92.47482c-20.8957729-50.40908-30.1644829-118.389039-22.8699959-167.73668626 1.978452-13.38430874 4.826346-27.32143074 6.32865-30.97138274 2.432108-5.908938 2.8750842-2.773594 4.0417442 28.607021 2.3167876 62.317036 11.5975227 101.558147 41.0447078 173.546538 1.092307 2.67029.519166 3.73793-2.006625 3.73793-1.944597 0-7.289489 1.81366-11.877525 4.03036l-8.341876 4.03036z" fill="#f0c35a"/><path d="m231.80028 1291.0391c-73.88808-35.9909-143.567224-105.8388-180.092246-180.5286-5.666289-11.587-11.536926-24.3206-13.045873-28.2969-1.751036-4.6143-3.051194-6.02-3.593983-3.8857-.699633 2.7509-7.370228 3.7694-37.6149585 5.743-20.2204685 1.3194-68.0028835 4.4423-106.1831195 6.9397-38.18024 2.4974-71.71631 5.0115-74.52458 5.5868-5.47844 1.1223-5.53102 2.7174-1.29469 39.2613.61285 5.2865-.71978 1.294-2.96138-8.872-15.24644-69.1456-7.88267-154.76267 19.21324-223.38842 16.12519-40.84025 42.45153-84.36745 73.280937-121.1606 8.82238-10.52903 15.088809-19.73195 13.925417-20.45098-1.163413-.71903-24.616954-33.43517-52.118964-72.70252-42.95009-61.32411-49.53894-71.75322-46.70916-73.93333 6.07533-4.68052 48.48594-13.30479 77.23368-15.70561 56.193388-4.69287 120.676812 5.65433 174.724203 28.03677 27.026398 11.19233 58.458527 27.67451 58.458527 30.65409 0 1.27098-7.44915 3.98843-16.55367 6.0388s-19.651832 5.61633-23.438458 7.92433c-12.696665 7.73881-33.158198 56.3462-43.799751 104.04858-4.01293 17.9885-4.688534 27.62662-4.763271 67.95266-.07732 41.71557.475849 49.50891 4.927248 69.41862 10.870251 48.61922 27.692432 88.76511 53.217102 127.00181 20.76766 31.1105 62.48062 72.4254 94.53487 93.6326 57.74078 38.2016 125.29858 59.0031 192.46496 59.2611l22.15342.085-7.69447 3.8479c-9.20191 4.6018-143.64758 98.476-144.67049 101.0136-1.29599 3.2149-5.81478 1.8593-25.07454-7.5221zm100.64311-126.3889c-21.49488-3.4957-40.87124-8.7101-46.17348-12.4258-2.7409-1.9208 6.173-2.4872 39.42247-2.5051 36.71252-.019 46.53841-.7561 67.52772-5.0605 34.86038-7.149 71.38009-19.5591 103.79892-35.2727 30.75427-14.9068 42.93899-22.2257 73.96699-44.4292l20.77302-14.8651 17.14181-.3697c9.42801-.2033 17.1411.3013 17.14022 1.1214-.004 3.3629-22.31691 27.9669-36.19779 39.9138-40.90416 35.2051-88.76984 58.8332-143.71461 70.9423-26.52415 5.8456-86.33815 7.398-113.68527 2.9506zm-515.9318-10.762c0-1.8315.97685-2.7262 2.17079-1.9883s1.61782 2.2364.94192 3.33c-1.83101 2.9626-3.11271 2.4102-3.11271-1.3417zm448.55106-10.4473c-24.01645-6.6753-58.01049-24.4204-85.05459-44.399-21.77383-16.0853-58.43944-53.2206-55.47471-56.1853.50048-.5005 8.53508 3.9518 17.85469 9.894 40.92894 26.0962 91.99718 46.1692 144.56818 56.8244 16.15317 3.2739 29.36941 6.5622 29.36941 7.3074 0 2.2251-32.75437 26.8278-37.37926 28.0765-2.34955.6344-8.59722-.049-13.88372-1.518zm-212.390445-17.6359c-1.159141-3.0442-.913805-3.2895 1.195709-1.1957 1.459756 1.4489 2.116029 3.1724 1.458389 3.83-.65764.6577-1.851982-.5278-2.654098-2.6343zm-448.962215-127.71559c-10.46671-20.39207-24.33223-59.23489-31.87665-89.29898-9.15301-36.47425-9.81392-38.60089-11.2838-36.30841-.78145 1.21877-5.61243 4.34135-10.7355 6.93906l-9.31467 4.72309 1.45485-17.7859c3.53187-43.17782 16.64959-102.5751 30.3443-137.3995 16.86432-42.8844 47.05366-94.40976 76.88822-131.2282 17.77824-21.93987 21.82859-24.12013 15.50014-8.3435-39.03766 97.31952-51.78083 189.47117-41.19748 297.91747 3.51617 36.02982 3.50291 36.87277-.85592 54.46691-3.91106 15.78682-7.97487 43.68101-9.6051 65.92975-.5333 7.2783-.77954 7.0243-9.31839-9.61179zm849.31692-167.67665c-11.00992-1.43569-12.77008-2.54243-28.02462-17.62123-12.70576-12.5594-20.67231-18.26948-36.31128-26.02634-11.01893-5.46534-26.0418-11.07543-33.38416-12.46685-7.34235-1.39141-13.34973-3.18762-13.34973-3.99158 0-1.40674-3.6609-.43827-22.64 5.98929-4.81594 1.631-12.79165 6.41958-17.72379 10.6413-4.93211 4.22172-9.31649 7.32131-9.74306 6.88799-2.4405-2.47918-7.564-28.80355-7.564-38.86361v-11.82768l-20.44677-11.05524c-11.24571-6.08039-20.95202-12.37191-21.56954-13.98117-.63487-1.6544 6.85832-12.62966 17.24283-25.25554 10.10107-12.28128 18.36561-23.3566 18.36561-24.61184 0-3.60885 4.85415-2.74599 23.8838 4.24553 22.69209 8.33711 79.46471 37.7582 118.7584 61.54377 30.98625 18.75685 111.44557 74.80302 111.50454 77.67157.0511 2.4873-19.34015 11.63796-32.0984 15.1471-15.19426 4.17915-32.27807 5.48123-46.89983 3.57453zm-975.99057-170.8726c-.37079-21.12543 22.1797-81.68467 41.04686-110.23117 10.42503-15.77334 11.89572-17.09968 22.85178-20.60891 6.44032-2.06284 12.42415-3.50462 13.2974-3.20394.87325.30066-7.63598 14.4838-18.90939 31.51806-17.06667 25.78793-35.44942 60.21435-54.746 102.52596l-3.40943 7.47585-.13121-7.47585zm107.08307-11.10698c-4.55439-4.5544-2.77364-11.77318 8.16814-33.1117 14.71916-28.70517 35.27551-56.81988 61.89127-84.64814 29.25119-30.58375 68.81858-61.23339 79.04971-61.23339 1.27899 0-3.83323 8.89092-11.36051 19.7576-7.52731 10.86669-18.78769 28.40824-25.02311 38.98123-8.95385 15.18243-17.4462 25.2854-40.39745 48.05904-15.98318 15.85948-37.58668 39.16812-48.00776 51.79697-10.4211 12.62884-19.57961 22.96154-20.3523 22.96154-.77266 0-2.55825-1.15342-3.96799-2.56315zm888.40358-79.66566-5.06741-7.4411 5.06741-4.12009c4.63447-3.76806 5.19148-3.81542 6.51926-.55415 2.00141 4.91578 2.11398 19.58893.15016 19.57105-.88108-.009-3.88232-3.36311-6.6694-7.45571zm-873.87906-42.72103c0-2.77768 34.74777-55.32567 41.50009-62.75932 15.20742-16.74187 60.73685-42.52755 100.28017-56.79384 21.01338-7.58114 59.26084-17.06474 63.33934-15.70525 1.37827.45942-6.04418 9.45311-16.49431 19.98598-10.45015 10.53288-23.18195 23.84451-28.29292 29.58139-8.14731 9.14512-12.21652 11.54244-33.01553 19.4506-35.63487 13.549-82.13553 38.02628-121.44296 63.92579-3.23064 2.12865-5.87388 3.17025-5.87388 2.31465zm57.67085-146.40482c8.19526-6.54558 67.18383-35.07391 87.57425-42.35311 42.93903-15.32878 93.36537-26.61061 113.92864-25.4891l11.87434.64762-51.68771 20.65424c-36.04285 14.40259-58.47611 22.06328-74.11527 25.30951-27.92341 5.79609-55.83502 13.45277-74.09365 20.3253-16.86005 6.3461-20.60752 6.59783-13.4806.90554zm333.20936-102.6254c7.6360475-3.68397 18.2090369-7.18835 23.495532-7.78749 14.402504-1.63232 8.207544 2.2375-12.36281538 7.72268-9.73648442 2.59628-19.34829262 5.18006-21.35957462 5.74171-2.011282.56167 2.59081-1.99293 10.226858-5.6769zm172.62823-20.63807c-11.22469-11.76832-11.76979-12.87511-13.03959-26.4753-1.40491-15.04744-4.70503-25.63292-17.38046-55.74977-9.85403-23.41317-14.00199-42.71637-13.88633-64.622.12795-24.234421 3.54678-42.923884 7.18617-39.28449.51851.518491 2.99427 11.011381 5.50172 23.317536 7.43042 36.467164 19.85842 70.689964 40.82541 112.420204l19.48587 38.78243-6.83515 11.94656c-3.75933 6.57063-7.57947 11.94658-8.48919 11.94658-.90973 0-6.92555-5.52679-13.36845-12.28175zm-165.8776437-114.10449c-10.9434283-34.2113-17.3764193-73.430635-17.4128593-106.15899-.02136-18.96469 5.553724-58.253631 9.561357-67.38408 2.6650345-6.071679 2.9018695-4.798375 3.062643 16.465154.3527747 46.66091 7.2137264 87.832706 22.598601 135.611676 5.288246 16.42307 9.614991 30.74403 9.614991 31.82435 0 1.0803-3.604428 3.25432-8.009841 4.83113-4.405412 1.57678-9.1417907 3.28781-10.5252931 3.80226-1.5733462.58504-4.90274857-6.52783-8.8895986-18.9915z" fill="#e8b957"/><path d="m166.6366 1245.1425c-13.36798-8.4777-47.01486-40.9246-63.20384-60.9496-49.216172-60.8784-81.834378-137.5633-93.5270794-219.88082-1.0715245-7.54367-2.1312157-9.72843-3.9791393-8.20391-1.3852752 1.14284-39.5241413 4.57543-84.7530403 7.62797-45.228901 3.05254-87.280561 6.34033-93.448141 7.30617-11.08829 1.73645-11.21341 1.69444-11.1822-3.75405.0976-17.02982 13.83707-59.82674 29.88377-93.08438 19.29237-39.98446 38.82904-68.08918 74.212582-106.75938 9.691907-10.59215 17.56118-20.22047 17.487276-21.39625-.07388-1.17578-21.084677-31.93438-46.690618-68.35245l-46.55625-66.21468 7.7094-2.77626c16.61787-5.98427 53.603472-9.52688 85.671841-8.20594 35.721987 1.47144 59.8766542 5.23568 92.760104 14.45563 36.140955 10.13328 97.289145 37.63559 97.325815 43.77371.009 1.31564-5.57717 3.49212-12.41117 4.83662-6.83399 1.3445-16.686098 4.5934-21.893562 7.21975-8.059075 4.06457-10.801665 7.31817-18.429127 21.86287-22.275131 42.47612-35.039869 98.06966-35.066013 152.72095-.06878 143.79054 84.990752 270.02065 219.657952 325.97705 15.77843 6.5562 18.9713 8.5923 16.01968 10.2157-7.56816 4.1624-95.5606 66.2505-96.24449 67.9107-1.14028 2.7682-3.2119 2.0961-13.34375-4.3294zm175.32052-79.4246c-17.63769-2.4463-42.94607-8.0689-46.56947-10.3461-1.55671-.9783 12.55665-2.3501 32.03936-3.1143 71.47162-2.8032 124.70151-17.2311 191.74527-51.9722l26.63015-13.7994 21.96431-.4111c12.08036-.2261 21.96364.2354 21.96288 1.0257-.002 2.3425-21.31438 19.7154-37.07948 30.2259-30.28277 20.1894-70.17359 36.2911-110.08417 44.4348-23.56726 4.8089-78.80273 6.9811-100.60885 3.9567zm-107.35841-35.0222c-25.64619-10.5465-57.13037-31.8478-82.63877-55.9111-15.28512-14.4192-29.07847-30.2883-27.59398-31.7466.43531-.4277 8.48092 4.0143 17.87914 9.8711 37.32855 23.2622 77.70152 40.7878 120.1476 52.1552 12.04146 3.2247 21.89357 6.4784 21.89357 7.2302 0 2.8198-29.36517 23.5621-33.28834 23.5135-2.25-.028-9.62965-2.3284-16.39922-5.1123zm-652.58302-196.15103c-9.09544-26.38163-16.74915-62.92355-23.15176-110.53579-.86887-6.46127-1.95611-10.0657-2.41608-8.00984-1.27488 5.69816-4.79499 4.45396-4.79499-1.69482 0-11.58187 15.10787-72.08707 22.47132-89.99493 17.57899-42.75196 46.07613-90.80694 75.06256-126.57872 17.80372-21.97131 21.7932-24.10778 15.58004-8.3435-30.86208 78.30471-43.87562 141.07589-46.20556 222.87404-1.20526 42.31234-1.61079 45.7027-7.15388 59.80681-9.16578 23.32192-21.30724 63.07961-21.30724 69.77137 0 9.83386-3.16312 6.97975-8.08441-7.29462zm846.44771-187.43026c-.72606-1.17478-.35891-2.13596.81587-2.13596s2.72999.96118 3.45604 2.13596c.72606 1.17478.35891 2.13596-.81587 2.13596s-2.72999-.96118-3.45604-2.13596zm-950.4828-94.24579c4.63546-27.90137 21.02755-71.14028 35.56926-93.82436 6.23547-9.7269 9.22297-12.34026 16.651-14.56576 4.97868-1.49164 9.4906-2.27364 10.02648-1.73777.53588.53589-5.25804 11.05713-12.87537 23.38053-14.57401 23.57802-36.48987 66.0754-42.97984 83.34286-5.12507 13.63595-8.37935 15.36937-6.39153 3.4045zm123.24527-34.50489-4.57059-4.86516 5.03251-10.62054c12.80148-27.01608 50.73971-73.18016 81.04453-98.61679 21.9921-18.45924 47.77013-36.10413 49.79199-34.08225.7699.76991-4.62198 10.10395-11.98196 20.74235-7.35997 10.63839-18.36848 27.78148-24.46337 38.09576-9.3091 15.7536-17.26279 24.78815-49.72518 56.48251-21.25395 20.7511-39.07416 37.72927-39.60046 37.72927-.52627 0-3.01364-2.18931-5.52747-4.86515zm30.86264-117.44992c14.01205-22.84361 33.99336-52.814 37.6646-56.49395 13.19108-13.22235 63.65343-36.1799 102.26157-46.52329 35.99753-9.64402 36.0109-9.56399 4.00789 24.01833l-27.98822 29.36941-20.7623 7.46863c-11.41925 4.10775-37.87121 15.86805-58.7821 26.13397-20.91092 10.26595-37.29156 17.47805-36.40144 16.0269zm33.83807-124.68121c8.63816-6.88415 64.79857-32.84772 88.64224-40.98027 29.49783-10.06104 63.13482-18.08816 71.69397-17.10902 4.67941.53532-6.73903 5.80167-46.08638 21.25566-28.76889 11.29922-59.03532 22.26977-67.25876 24.37899-8.22344 2.10921-23.12174 6.54039-33.10734 9.84704-12.4062 4.10822-16.80283 4.93398-13.88373 2.6076zm489.89656-130.53419c-1.70705-2.05586-4.78042-12.23314-6.82972-22.61618-2.17588-11.02438-7.73308-27.79408-13.35776-40.30908-13.95607-31.05238-16.84209-43.40255-16.86582-72.17405-.0301-36.615398 4.83181-52.875527 8.47039-28.327697 4.68689 31.620127 18.86702 75.001257 38.54019 117.905607l10.22316 22.29523-7.26742 13.4792c-3.9971 7.41357-7.83937 13.48047-8.53836 13.48205-.69901.002-2.6676-1.67922-4.37466-3.73508zm-166.073764-135.48483c-8.787414-26.6261-11.581417-87.194537-5.592193-121.227272 5.01446-28.49377 7.4974032-26.394079 7.5420448 6.3778945.041224 30.3160815 3.2782034 58.5241925 10.5268313 91.7361835 5.4805251 25.110924 5.5107703 24.501354-1.23469018 24.892104-3.08955562.17897-6.34052562 1.49545-7.22434212 2.9255-1.0341879 1.67334-2.4661978-.003-4.0176508-4.70441z" fill="#d7a950"/><path d="m333.56005 1162.3808c-11.07966-1.7863-21.51157-4.0126-23.18201-4.9474-1.69117-.9465 10.07657-2.2577 26.5527-2.9588 31.9755-1.3607 56.12602-4.995 88.94151-13.3847 18.4482-4.7166 24.59687-5.2751 52.33095-4.7539l31.42658.5906-8.54383 3.952c-14.98242 6.93-37.84043 14.1938-58.73883 18.6658-27.60353 5.9068-81.09128 7.3014-108.78707 2.8364zm-266.130707-39.3461c-10.585955-16.6264-25.98828-49.3745-33.650194-71.5464-15.101048-43.6991-22.12209-84.57195-24.2939317-141.42708-.8842436-23.14746-2.1805349-36.28556-3.4997663-35.47024-2.0458841 1.26442-43.780058 4.59297-114.715351 9.14922-19.38382 1.24505-37.88655 2.70852-41.11718 3.25217-3.23064.54364-5.87389.43321-5.87389-.2454 0-3.04693 17.2673-37.46493 25.55902-50.94547 17.37307-28.24483 34.943985-49.26998 69.91623-83.66088 19.289597-18.96895 34.160987-34.82843 33.047513-35.2433-3.376714-1.25812-79.253553-110.59186-77.501443-111.67473 4.35464-2.69131 42.459053-3.52758 64.320385-1.41161 43.3266156 4.19357 86.152264 15.43895 124.953511 32.81093 21.318564 9.5447 42.291724 20.85372 41.024464 22.12098-.45163.45163-7.7059 2.62868-16.12061 4.8379-8.41469 2.2092-17.702943 5.59157-20.640547 7.51635-6.34343 4.15638-21.511291 33.52208-30.43812 58.92961-40.034528 113.94628-18.342086 238.55908 59.406597 341.26275 5.80544 7.6688 10.55534 15.1079 10.55534 16.5315 0 1.4235-11.92748 10.8704-26.5055 20.9931-14.578035 10.1227-26.911951 19.6243-27.408732 21.1146-.49676 1.4903-3.654773-1.612-7.017795-6.894zm108.547027-30.6724c-15.23268-11.2137-40.58048-34.644-43.61674-40.3173-2.00396-3.7444-1.7784-3.866 2.71316-1.4622 2.69436 1.442 9.73567 5.6861 15.64738 9.4313 5.91169 3.7453 21.23721 12.4084 34.05669 19.2514l23.30814 12.4418-6.22048 4.9774c-3.42127 2.7376-7.79682 4.9822-9.72343 4.988-1.92664.01-9.20075-4.1838-16.16472-9.3104zm-607.06895-230.0584c-4.54074-21.17272-7.05134-54.15474-6.15651-80.87843.89029-26.58789 1.00377-27.09697 12.31397-55.2381 12.76021-31.74896 30.00289-64.07471 50.3612-94.41466 16.36387-24.38706 37.86027-50.63985 38.90319-47.5111.41357 1.24071-1.60765 7.87267-4.49157 14.73768-18.3514 43.68415-31.79285 96.20815-39.85304 155.73015l-4.13536 30.53825-14.09425 24.62313c-7.75181 13.54272-17.51374 33.07278-21.69314 43.40011-4.17939 10.32736-7.862 19.08361-8.18356 19.45836-.32157.37477-1.65848-4.32566-2.97093-10.44539zm-87.74115-216.68922c0-5.64852 10.08676-36.48799 16.64409-50.88801 5.44599-11.95946 9.13115-17.32537 12.87658-18.74937 2.88591-1.09722 5.63375-1.60832 6.1063-1.13576.77594.77593-32.45682 69.42471-34.68897 71.65687-.5159.5159-.938.11822-.938-.88373zm162.7007-79.5469-6.91636-7.74454 7.78138-11.29821c10.50735-15.25622 45.34616-48.28835 65.72905-62.32048 9.13558-6.28918 17.0904-10.9546 17.67738-10.36762.58698.58696-5.56607 11.01915-13.67342 23.18261-8.10737 12.16349-18.84844 29.08087-23.86905 37.59422-8.02769 13.61244-23.16759 28.66038-37.58089 37.35266-1.22747.74024-5.3441-2.13914-9.14809-6.39864zm43.69864-97.16182c.87973-1.46847 8.61786-13.37913 17.19582-26.46814l15.59629-23.7982 18.96842-7.59196c18.44365-7.38196 49.68531-16.36622 56.91143-16.36622 2.17297 0-6.60489 10.6526-22.35604 27.13074l-25.93379 27.13072-30.25471 11.31651c-16.64007 6.22407-30.58595 11.3165-30.99082 11.3165-.40489 0-.0171-1.20148.8634-2.66995zm446.01773-296.95936c-4.06077-8.55084-8.80262-22.24766-10.53742-30.43739-3.29006-15.53181-3.97594-49.461261-1.18617-58.677552l1.61639-5.339893 1.30565 5.339893c.71811 2.936942 3.67602 15.432292 6.57315 27.767442 2.89713 12.33516 8.21468 31.40516 11.81676 42.37778 3.60208 10.97261 6.51868 21.5456 6.48133 23.49554-.073 3.80798-4.79487 11.02115-7.21469 11.02115-.80949 0-4.79424-6.99614-8.855-15.54697zm-148.417536-154.261643c-.983053-4.956081.645251-28.010118 2.173529-30.773174.91436-1.65315 1.222579 4.1139354.684916 12.81574471-.969917 15.69781529-2.010256 22.23351429-2.858445 17.95742929z" fill="#b78739"/><path d="m21.884835 993.2835c-7.463804-32.39181-9.543244-57.87026-8.212543-100.62476.681563-21.89794 2.718668-48.94566 4.526884-60.10603 3.738225-23.07225 4.148649-30.64027 1.57544-29.04994-.983865.60808-29.0984051 3.08842-62.476756 5.51186-33.378329 2.42345-62.45243 4.95717-64.60912 5.63047-3.50586 1.0945-3.64087.69367-1.27449-3.78383 14.029847-26.54649 65.152386-74.91542 114.6635598-108.48752 10.8666832-7.36837 19.7576062-13.79102 19.7576062-14.27257 0-.48153-11.603674-17.43745-25.78591888-37.67981-16.32401212-23.29928-27.88462512-37.74867-31.50537212-39.37791l-5.719454-2.5736 6.711051-.0963c11.874812-.17045 50.233468 8.45122 76.553911 17.20666 25.738437 8.56181 71.591957 29.00634 71.591957 31.92041 0 .8603-3.55973 2.23196-7.9105 3.04818-11.576078 2.17167-23.133637 8.68202-28.304534 15.94389-7.626564 10.71053-23.351055 48.3599-29.820507 71.39974-20.301294 72.29934-19.012371 136.83347 4.30028 215.30682 3.410206 11.47916 6.200364 21.23269 6.200364 21.67452 0 .4418-7.208856 5.90827-16.019681 12.1477-8.810824 6.23942-16.019681 12.15602-16.019681 13.14802s-.881104 1.8037-1.957989 1.8037c-1.076907 0-3.895923-8.4104-6.264507-18.68965zm-456.015895-209.42161c-2.31238-24.88019 2.87459-43.9928 23.88511-88.01046 16.58789-34.75211 56.42762-95.91461 69.38799-106.5254 4.76015-3.89721 4.60207-2.96476-2.56982 15.15763-9.03296 22.82503-20.37902 58.9195-27.9409 88.88656-6.18984 24.52968-7.41126 27.26533-17.64308 39.51521-12.68308 15.18461-40.11176 56.51895-40.11176 60.4474 0 1.46106-.82567 3.16677-1.83482 3.79047-1.00915.62368-2.43687-5.34395-3.17272-13.26141zm113.24537-257.08887-5.91919-6.74563 8.1135-8.41204c13.1358-13.61912 46.46414-38.40377 42.3527-31.49561-7.88674 13.25152-35.71205 53.39893-37.00967 53.39893-.88997 0-4.28178-3.03554-7.53734-6.74565zm443.00783-430.235634c.10252-2.488269.60862-2.994399 1.29046-1.290475.61701 1.541894.54114 3.384157-.16853 4.093919-.70976.70976-1.21459-.551791-1.12185-2.803444z" fill="#9f702e"/></g><g stroke-width=".264583"><g transform="matrix(.07703226 0 0 .07703226 8.299908 22.340551)"><path d="m-69.672208 303.41704c-3.634133-1.08442-7.246045-3.42401-10.317896-6.68334-2.238439-2.37505-3.550841-4.38754-4.923527-7.5499-3.408278-7.85192-2.547313-16.59925 2.339231-23.7664 1.356259-1.98924 3.576059-4.5999 6.858765-8.06646 5.479766-5.78668 7.863228-9.97086 9.723101-17.06895.579601-2.21202 1.087604-6.28538 1.087604-8.72083 0-1.39566.06388-1.59792.504647-1.59792.277556 0 1.039887.59531 1.694067 1.32292 2.053971 2.28451 3.172597 4.18821 5.328094 9.06748 1.326171 3.00198 2.473259 10.03043 2.173107 13.31511-.166671 1.82393-1.034862 4.54819-1.889127 5.92782-.315373.50932-.639141 1.10463-.719484 1.32292-.203626.55321-4.82709 6.99276-6.173877 8.59895-1.800733 2.14757-5.042128 7.09865-6.099651 9.31694-2.555034 5.35949-2.631328 10.58896-.242361 16.61223.718198 1.81078 2.892575 6.10218 3.34479 6.60135.385051.42503.25621 1.66547-.190804 1.83701-.230182.0883-.438541.1525-.463021.14261-.02447-.01-.939625-.28508-2.033658-.61154z" fill="#1d1f47"/><path d="m-57.496597 302.05511c-1.758802-2.07627-3.338269-4.94258-4.005054-7.26812-1.044106-3.64151-.489712-9.7958 1.230596-13.66077.250791-.56344.634537-1.44116.852768-1.95048.218231-.50933.888717-1.79975 1.489967-2.86761 1.558718-2.7684 1.570775-2.78867 2.328923-3.91577 2.16585-3.21987 4.532672-7.74034 5.245036-10.01767.182081-.58208.435502-1.26507.56316-1.51776.127657-.25269.232103-.63964.232103-.8599 0-.66572.370661-.46522 1.827575.9886 1.524908 1.52167 4.512088 5.87465 5.03849 7.34219.182689.50932.544237 1.40229.803439 1.98437 1.087368 2.4419 1.590908 5.26551 1.590908 8.92104 0 3.91217-.354129 5.88243-1.647339 9.16521-2.073436 5.26335-5.691634 9.41964-10.62171 12.20134-.95467.53865-1.866641 1.32085-2.366037 2.02935-.446934.63407-.878985 1.15083-.960112 1.14835-.08113-.002-.802349-.77755-1.602713-1.72237z" fill="#2ea7de"/></g><g transform="matrix(.06591172 0 0 .06591172 4.816478 14.311971)"><path d="m-51.414643 365.61695c.27961-.40019 4.9377-7.07883 10.35131-14.84144l9.84293-14.11384-9.73798-14.69829c-5.35589-8.08406-9.77767-14.79994-9.82618-14.92419-.0485-.12424 3.82383-.22589 8.60519-.22589h8.69338l10.154569 14.85375c9.362895 13.69572 10.127551 14.89727 9.808035 15.41198-.190592.30702-4.985943 7.01737-10.656334 14.91187l-10.3098 14.35365h-8.71675-8.71675z" fill="#096166"/><g fill="#29343a"><path d="m-13.988984 360.4302-4.225038-5.91435 4.493135-6.27158c3.9900464-5.56935 4.5298494-6.21804 4.8210074-5.79346.18033.26296 3.891685 5.5978 8.24745499 11.8552 4.35576901 6.25739 8.01145601 11.52591 8.12374501 11.70781.161753.26202-1.607278.33073-8.515551.33073h-8.719714z"/><path d="m-13.693034 324.41875c-2.452772-3.58701-4.444669-6.58499-4.42644-6.66218.01823-.0772 1.685105-2.56922 3.704167-5.53785l3.671022-5.3975 8.6651054-.004c4.765807-.002 8.665104.0687 8.665104.15747 0 .15971-15.229248 23.31129-15.617841 23.74232-.110845.12295-2.2083484-2.71129-4.6611174-6.2983z"/></g></g><g transform="matrix(.1016231 0 0 .1016231 -10.135315 -.741549)"><path d="m108.87447 306.41828v-18.78542h18.78542 18.78542v9.78958 9.78959h-2.38125-2.38125v-7.40834-7.40833h-13.89063-13.89062v14.02292 14.02291h13.89062 13.89063v-1.5875-1.5875h2.38125 2.38125v3.96875 3.96876h-18.78542-18.78542z" fill="#2a74be"/><path d="m118.66406 304.69849v-9.92188h2.38125 2.38125v7.54063 7.54062h13.89062 13.89063v-13.89062-13.89063h-13.89063-13.89062v1.32292 1.32291h-2.38125-2.38125v-3.83823-3.83823l18.71927.0679 18.71927.0679.0679 18.71927.0679 18.71927h-18.78719-18.78719z" fill="#2976b9"/></g></g><path d="m2.4612118 25.028982c-.4372046-.43739-.7949172-.80719-.7949172-.82182 0-.0146.130148-.15631.2892175-.31489l.2892175-.28831.5124322.51192.5124321.51193.5124322-.51193.5124322-.51192.2892172.28831c.1590697.15858.289218.30042.289218.31522 0 .0262-1.5775817 1.61673-1.6036201 1.61673-.00723 0-.3708571-.35786-.8080616-.79524zm.4928347-1.53101-.3015482-.3024.3085476-.30855.308548-.30855.3085481.30855.3085475.30855-.3015482.3024c-.1658517.16633-.3078476.30241-.3155474.30241-.0077 0-.1496957-.13608-.3155474-.30241zm-2.03683398-.013-.2882232-.28912.2882232-.28912c.15852208-.15901.30045388-.28912.31540288-.28912.01495 0 .1568807.13011.3154034.28912l.2882227.28912-.2882227.28912c-.1585227.15901-.3004541.28911-.3154034.28911-.01495 0-.1568808-.1301-.31540288-.28911zm4.07395698 0-.2882232-.28912.2882232-.28912c.158523-.15901.3004542-.28912.315403-.28912.014946 0 .15688.13011.315404.28912l.2882222.28912-.2882222.28912c-.158524.15901-.3004552.28911-.315404.28911-.014946 0-.15688-.1301-.315403-.28911zm-3.0427742-.99263c-.1551553-.15564-.2821007-.29469-.2821007-.309 0-.0143.3607427-.38661.8016496-.82735l.8016497-.80132.8016497.80132c.4409073.44074.8016499.81344.8016499.82822 0 .0148-.1301483.15664-.289218.31522l-.2892172.28832-.5124322-.51193-.5124322-.51193-.5062054.50571c-.2784134.27814-.5122109.50571-.5195495.50571-.00734 0-.1402887-.12734-.2954437-.28297z" fill="#f3ba2d" stroke-width=".026284"/><path d="m1.5515973 18.724927c-.2945345-.10507-.4471642-.40765-.3576563-.70906.016701-.0562.063637-.13505.1210558-.20326.051578-.0613.1154906-.15591.1420289-.21033.041543-.0852.047224-.11748.040862-.23242-.00863-.15579-.044151-.23907-.1544218-.36198-.1339851-.14936-.1670591-.23111-.1670591-.41298 0-.18186.033073-.26362.1670591-.41296.1102704-.12293.1457962-.2062.1544218-.362.00636-.11494.00069-.14723-.040862-.23242-.026537-.0545-.090535-.14913-.142214-.21049-.16288-.19339-.1936958-.43493-.081731-.64064.1782986-.3276.5836454-.39647.8725525-.14824.1611566.13845.2489029.17493.4183534.17393.1617926-.00086.2161127-.0243.4217394-.18083.2622179-.19967.5404582-.19138.7747401.0231.2337832.214.5081252.2204.7595685.0177.1591035-.12823.2444113-.1687.3782299-.17944.3264385-.0262.6047706.22184.6096149.54327.00344.22864-.1159085.42573-.3175617.52439-.085301.0417-.1307225.0516-.2364055.0514-.1617189-.00036-.2851496-.0536-.4469068-.19255-.2361374-.20293-.4975195-.19626-.7344426.0187-.1310031.1189-.2629993.17356-.4183531.17325-.1593839-.00036-.2605152-.0418-.3966368-.1627-.1515711-.13461-.2301171-.16817-.3935863-.16812-.1734936.00004-.2896292.054-.4139952.19232-.098201.10922-.1438097.22634-.1438097.36929 0 .14807.030223.22704.1440952.37651.1396972.18335.1773112.27495.1763444.42943-.0009455.1512-.054143.27978-.1693044.40922-.1116641.12553-.1502736.22249-.1505449.37808-.0002812.164.054037.28881.1809524.41573.1160511.11606.2378331.15963.411288.14719.1404916-.0103.2285273-.0499.3647339-.16461.1371072-.11556.2356883-.1545.3904634-.15427.1760317.00028.2969897.0544.4183191.18711.3854092.42171-.034967 1.07216-.5869715.90824-.057737-.0172-.1330587-.0627-.2032547-.12301-.1690194-.1451-.279015-.19005-.4428745-.18097-.1601764.009-.2319074.041-.3826937.17161-.1712303.14828-.382518.19793-.5651373.13278zm3.2429672-.35677c-.1598698-.11198-.079261-.3608.1165441-.35974.1180966.00042.197372.0829.197372.20475 0 .0888-.1033575.1853-.1985315.1853-.039655 0-.091576-.0137-.1153846-.0302zm-1.5839184-1.55512c-.118375-.0798-.118375-.24494 0-.32472.073687-.0496.1135809-.0523.195678-.0135.070139.0333.1093148.0963.1093148.1758 0 .0796-.039176.14251-.1093148.1758-.082097.0389-.1219904.0362-.195678-.0135zm1.5883108-.0122c-.080502-.0491-.1107124-.14315-.074112-.23075.088352-.21145.3836352-.14867.3836352.0815 0 .0418-.018085.0766-.063218.12177-.074298.0742-.1547225.0833-.2463062.0274z" fill="#fcc118" stroke-width=".018593"/><path d="m1.334524 12.260116c-.1123981-.019-.2109583-.0964-.2622252-.20574l-.026336-.0562v-2.1084795-2.108489l.027662-.0563c.035665-.0726.1180172-.14848.1907621-.17569l.055023-.0206 2.105399.003 2.1053983.003.04348.0232c.06562.035.136137.1063.166735.16858l.02736.0557v2.108689 2.1086895l-.03247.066c-.03951.0802-.109144.14612-.188259.17809l-.05644.0228-2.0540403.001c-1.129722.00073-2.0756434-.002-2.102045-.007zm2.4089129-1.27126c.05172-.008.11854-.0217.148487-.0307.07531-.0226.1980343-.082.2045543-.099.0042-.011-.08427-.23678-.147913-.37743l-.0098-.0217-.05795.0293c-.112102.0566-.275811.0754-.382023.0438-.121739-.0362-.2396983-.15321-.2940838-.29183-.077368-.197199-.083382-.4699595-.014902-.6760895.064092-.19294.1823158-.30884.3504898-.34361.103133-.0213.274372.007.359327.0592.01783.011.03403.02.03601.02.0019 0 .03055-.0613.06349-.136109.03294-.0749.07108-.16134.08476-.19218l.02486-.0561-.07895-.0411c-.04342-.0226-.1222693-.0527-.1752113-.0669-.08758-.0235-.11366-.0259-.289285-.0266-.212718-.00073-.2866528.012-.4211299.073-.2377621.10781-.4242573.332149-.5024104.604369-.041454.14438-.051269.22876-.050671.43555.0004846.1700705.00412.2193705.022341.3044005.094652.441629.3590965.717399.7572043.789629.09637.0175.259085.0176.372852.00015z" fill="url(#f)" stroke-width=".009899"/><path d="m2.8801358 5.4471808c-.8501758-.1525-1.531559-.742419-1.801446-1.559629-.26762821-.8103694-.047328-1.7248594.5622663-2.3340494.6039191-.60352 1.4814199-.82161 2.3035675-.57251.5936768.17987 1.1236118.63525 1.3934011 1.19737.5515271 1.1491504.061623 2.5331094-1.0905066 3.0806484-.4061218.193-.9347675.26576-1.3672823.18817zm.3304515-.935849c.00974-.037.033104-.1279.051928-.20194.0243-.0956.041492-.13273.05928-.12809.013778.004.1142744.0108.2233226.0158.153584.007.2215153.003.3014127-.0207.1822763-.053.3095162-.20358.3615373-.4279.047077-.202989-.00206-.347369-.1573515-.462279l-.0849-.0628.067476-.0292c.1554206-.0671.2425271-.21372.2443366-.41128.00189-.20508-.1018003-.33104-.3771618-.4582l-.1284983-.0594.05126-.20259c.028194-.11143.049667-.20365.047721-.20494-.029988-.0198-.2385911-.0554-.2467891-.0421-.00594.01-.029809.098-.05305.19647-.028228.11956-.050462.179-.066971.179-.060648 0-.1855733-.0424-.1787788-.0608.024937-.0671.089347-.37105.08051-.37988-.021612-.0216-.2168448-.0639-.2296071-.0497-.00726.008-.031513.0914-.053896.18518-.022383.0938-.045654.17964-.051712.19078-.00773.0142-.08061.002-.2443707-.0401-.128346-.0332-.2419851-.0573-.2525315-.0535-.010547.004-.029752.0541-.042677.11191-.012927.0578-.026996.11415-.031265.12528-.00447.0117.020692.0255.059283.0328.1178472.0222.2062944.0664.2235996.11188.012561.033-.017586.17914-.1278039.61936-.079333.3168704-.152816.5921504-.1632941.6117304-.016335.0306-.030943.0339-.1024626.0242-.045877-.007-.104685-.0161-.1306851-.0219-.043354-.01-.051203-.002-.094688.093-.086248.1884-.099247.17086.1769306.23867.1746105.0429.2432628.0672.2432628.0861 0 .0145-.020578.1075-.04573.20673-.025154.0992-.043328.18276-.040389.18564.00964.009.2335583.0644.2392498.0587.00306-.003.026965-.09.053133-.19325.026168-.10323.050988-.19321.055154-.19996.00576-.009.1809396.0302.199858.0451.00194.002-.019375.0934-.047378.20402l-.050916.20124.074303.0191c.040867.0105.082381.0221.092254.0256.056082.0206.080245.007.097095-.0579zm.028556-.67702c-.00987-.003-.085155-.02-.1672925-.0377-.1177677-.0253-.1477936-.0381-.142016-.0604.00403-.0155.034787-.140079.068347-.276859l.061021-.24868.075801.0104c.1239837.017.3614091.10274.437901.15815.1019186.0738.1458098.15093.1352068.2375-.01848.150899-.1282929.226669-.3253658.224489-.06911-.00086-.1337315-.004-.1436043-.007zm.020795-.8457394c-.057673-.0139-.1113137-.0293-.1192007-.0342-.011173-.007.097544-.48998.113968-.50641.00813-.008.2215525.0515.3117123.0871.1271159.0502.2203088.15363.2199526.24414-.0003428.0886-.031671.14687-.1058664.19687-.049809.0336-.083662.0407-.1882184.0394-.070118-.00085-.1746741-.0129-.2323474-.0269z" fill="#f7931a" stroke-width=".01795"/><path d="m3.2226216 58.577911c-.9331201-.039723-1.7984693-.698842-2.0846217-1.5876-.28554788-.830176-.0510269-1.809288.5877271-2.413843.6890641-.68948 1.825999-.858902 2.6870472-.40215.7962067.398573 1.314005 1.283213 1.2655091 2.173294-.026723.937542-.6822125 1.812732-1.5719432 2.107007-.2834593.100616-.5842402.133568-.8837185.123292zm.025283-.857164c0-.188529 0-.377058 0-.565587-.2549857.01286-.513463.04911-.7541131.136239.1540206.377837.3965689.72197.705084.989506.097621.02399.028169-.142981.049025-.20553.0000013-.118209.0000025-.236419.0000041-.354628zm.2932306.524859c.2860169-.265101.516915-.592353.6632089-.954174-.2404727-.0882-.499036-.122411-.754117-.137247v1.132176c.037571.0049.067071-.01204.090908-.04075zm-.7240795-.059273c-.2173608-.243666-.3884592-.525965-.5164913-.825818-.1694439.05956-.3278352.148923-.4796367.244414.2740911.297788.6289115.524536 1.023764.621385l-.00229-.0094-.025356-.03054zm1.1026507.02217c.3686239-.105238.6994862-.321787.9575194-.603672-.1516948-.082215-.333249-.224316-.4880334-.228038-.1275774.312432-.3197734.59389-.5376101.84975l.022648-.0053.04546-.01275zm-2.1110566-.83239c.1642313-.137521.5562894-.137426.3608094-.424973-.062267-.186663-.052036-.432397-.094975-.600661-.2541687 0-.5083375 0-.7625062 0 .016095.392109.1551949.775811.3826408 1.094675.037793-.02337.076-.04609.1140315-.06904zm3.2314612.01469c.206266-.306891.3307729-.670345.3459773-1.040334-.2585596 0-.5171191 0-.7756787 0-.00878.274633-.056698.547935-.1414651.809298.1783895.08945.3655663.172792.5335301.285074.016893-.01173.015999-.05014.037636-.05404zm-2.5566152-.311813c.2475841-.0775.5063217-.110148.7644223-.126831 0-.200538 0-.401077 0-.601615-.319775 0-.63955 0-.959325 0 .010173.251486.052192.501982.130161.741452.022239.009.043445-.01429.064742-.01301zm1.8116413-.0365c.06718-.224603.1055916-.457758.1138201-.692054-.3195795.000002-.639159.000005-.9587385.000009v.601588c.2798195.0094.5597741.06817.8258677.138395l.019057-.04807zm-2.2041225-.950677c-.00776-.256764.1147371-.543636.1204132-.767729-.1804449-.07384-.3516861-.168202-.5171791-.27085-.2263591.319665-.3668194.702417-.3822021 1.094948h.7757991c.00106-.01879.00211-.03758.00317-.05637zm1.1568908-.244468c0-.100264 0-.200528 0-.300792-.2779836-.01571-.5547973-.05839-.8206957-.142305-.079046.23976-.1291305.491283-.1357592.74403h.9564387c.0000054-.100311.0000108-.200622.0000162-.300933zm1.1587444.274357c-.012133-.243856-.058334-.485918-.13545-.717522-.2665144.08123-.542649.129245-.8209736.142729v.601588h.95644c-.0000249-.0089.0000103-.01786-.0000164-.02679zm.9794464.0081c-.021077-.385906-.1587535-.762192-.3826517-1.076391-.1717603.107411-.3508992.203347-.538233.280709.077098.264847.1360461.53713.1450226.813978h.7758044l.0000416-.01318zm-2.1381908-1.351912c0-.188529 0-.377059 0-.565588-.224392.155701-.3991644.386861-.5497755.61633-.045216.131689-.3304326.406673-.067761.422625.2015958.05291.4092264.08481.6175638.09236-.0000092-.188577-.0000183-.377153-.0000275-.56573zm.2896899.560986c.2224481-.01607.4434676-.05617.6561893-.12353-.1507439-.388287-.4101294-.740214-.7327267-1.003079-.025197.05751-.00364.161783-.010817.237314v.893858c.029193.000558.058336-.0032.087354-.0046zm-1.2028554-.254051c.1318644-.302583.3224468-.576676.5433767-.820778-.4063729.09444-.7775249.320962-1.0563063.630254.1528348.09879.3156236.181782.4837707.251154.0008935-.01719.0453-.04498.029159-.06063zm2.1280619.03047c.1288004-.06704.3243522-.135672.4045179-.230531-.2774996-.304397-.6449916-.528349-1.0473944-.62069.2380693.259305.4343419.557005.5713873.881602.024013-.0097.047816-.0203.071489-.03038z" fill="url(#e)" stroke-width=".004598"/><g stroke-width=".092925" transform="matrix(.19614781 0 0 .19614781 -13.179646 45.508978)"><path d="m94.912379 77.01051v4.367491h-2.183746c-2.852807 0-5.214969 1.823195-6.114486 4.36749h-5.240989c-.899517-2.544295-3.261679-4.36749-6.114486-4.36749h-2.183746v-4.367491h2.183746a10.902929 10.902929 0 0 1 8.734981 4.367491 10.902929 10.902929 0 0 1 8.73498-4.367491z" fill="url(#a)"/><path d="m92.728633 94.480469h2.183746v4.367491h-2.183746a10.902929 10.902929 0 0 1 -8.73498-4.367491 10.902929 10.902929 0 0 1 -8.734981 4.367491h-2.183746v-4.367491h2.183746c2.852807 0 5.214969-1.823195 6.114486-4.36749h5.240989c.899517 2.544295 3.261679 4.36749 6.114486 4.36749z" fill="url(#b)"/><path d="m86.614143 85.745491h8.298232v4.36749h-8.298232z" fill="url(#c)"/><path d="m73.074928 85.745491h8.298232v4.36749h-8.298232z" fill="url(#d)"/></g></svg>