<svg viewBox="0 0 18 18" xmlns="http://www.w3.org/2000/svg">
	<path d="m3.375 339.665h-1.125v-1.665h-1.125v1.665h-1.125v1.125h3.375z" fill="#c4cbd2" transform="translate(0 -322.79)"/>
	<path d="m2.25 127.835v-1.71h1.125v-1.125h-3.375v1.125h1.125v1.71z" fill="#c4cbd2" transform="translate(0 -119.375)"/>
	<path d="m2.25 194.75h1.125v-6.75h-3.375v6.75z" fill="#8997a5" transform="translate(0 -179.54)"/>
	<path d="m109.125 263v1.665h-1.125v1.125h3.375v-1.125h-1.125v-1.665z" fill="#c4cbd2" transform="translate(-103.14 -251.165)"/>
	<path d="m108 51.125h1.125v1.71h1.125v-1.71h1.125v-1.125h-3.375z" fill="#c4cbd2" transform="translate(-103.14 -47.75)"/>
	<path d="m109.125 113h-1.125v6.75h3.375v-6.75z" fill="#8997a5" transform="translate(-103.14 -107.915)"/>
	<path d="m216 214.665v1.125h3.375v-1.125h-1.125v-1.665h-1.125v1.665z" fill="#c4cbd2" transform="translate(-206.28 -203.415)"/>
	<path d="m218.25 2.835v-1.71h1.125v-1.125h-3.375v1.125h1.125v1.71z" fill="#c4cbd2" transform="translate(-206.28)"/>
	<path d="m218.25 69.75h1.125v-6.75h-3.375v6.75z" fill="#8997a5" transform="translate(-206.28 -60.165)"/>
	<path d="m326.125 288v1.665h-1.125v1.125h3.375v-1.125h-1.125v-1.665z" fill="#c4cbd2" transform="translate(-310.375 -275.04)"/>
	<path d="m325 76.125h1.125v1.71h1.125v-1.71h1.125v-1.125h-3.375z" fill="#c4cbd2" transform="translate(-310.375 -71.625)"/>
	<path d="m326.125 138h-1.125v6.75h3.375v-6.75z" fill="#8997a5" transform="translate(-310.375 -131.79)"/>
</svg>
