<svg color-interpolation="auto" height="267.89059" stroke="#000" stroke-linecap="square" stroke-miterlimit="10" width="268.31259" xmlns="http://www.w3.org/2000/svg">
	<path d="m268.3126 47.6719q0 15.8906-8.0157 26.4374-4.3593 5.7657-24.3281 26.0157-9.2812 9.8437-28.9688 28.125-11.3906 9.2812-29.25 9.2812-9.8437 0-19.8281-4.2187l-24.6093 24.0468q4.7812 12.7969 4.7812 20.8126 0 15.8906-9 27.1406-4.6406 5.7656-23.625 25.0312-8.8594 9.2813-27.4219 27-12.0937 10.5469-29.8125 10.5469-19.125 0-33.6797-14.4141-14.5547-14.414-14.5547-33.3984 0-17.1562 9.2813-28.125 5.2031-6.1875 24.3281-25.5938 8.4375-8.7187 25.875-25.4531 5.2032-4.5 14.9063-7.7343 9.1406-2.9532 16.5937-2.9532 10.125 0 19.9688 4.7813l24.4687-24.75q-4.7812-7.7344-4.7812-20.25 0-12.5157 5.3437-22.2188 4.7813-8.5781 21.0938-24.8906 12.2344-11.8125 24.4687-23.625 3.6563-3.6563 11.3907-10.4063 11.9531-8.8593 27.4218-8.8593 19.4063 0 33.6797 14.1328 14.2735 14.1328 14.2735 33.5391zm-31.6407.2812q0-6.6094-4.7109-11.4609-4.711-4.8516-11.1797-4.8516-6.3281 0-10.5469 3.6563-4.3594 4.6406-13.0781 13.6406-9.4219 9.7031-25.875 26.4375 3.2344-1.125 6.4687-1.125 6.3282 0 11.7422 5.0625 5.4141 5.0625 5.4141 11.3906 0 2.8125-1.5469 6.8906 18-17.8594 29.25-29.5312 4.5-4.0782 12.0938-13.0782 1.9687-3.2343 1.9687-7.0312zm20.8125-.4219q0-14.9062-10.9687-25.8047-10.9688-10.8984-25.875-10.8984-14.2031 0-22.6407 7.1719-5.4843 4.6406-26.2968 25.4531-8.1563 7.875-23.4844 24.3281-7.1719 8.5781-7.1719 22.6407 0 9.2812 2.5313 11.5312 2.8125-2.8125 8.5781-8.2969-.1406-1.6875-.1406-2.9531 0-11.1094 4.7812-16.5938 3.375-3.7968 27-27.4218 7.1719-7.5938 22.7813-21.375 5.625-4.0782 14.0625-4.0782 10.8281 0 18.4219 7.8047 7.5937 7.8047 7.5937 18.6329 0 8.8593-4.0781 14.9062-4.7813 7.0312-14.0625 15.6094-7.875 6.8906-15.75 13.9218-7.3125 7.4532-14.4844 14.9063-9.7031 8.8594-17.8594 8.8594-.8437 0-2.3906-.211-1.5469-.2109-2.3906-.2109-.9844 0-9.5625 9.4219 5.625 2.25 12.0937 2.25 10.4063 0 17.5781-4.5 4.9219-3.0938 23.4844-21.375 10.125-9.4219 20.1094-18.8438 12.6562-12.6562 16.0312-21.5156 2.1094-5.4844 2.1094-13.3594zm-73.8281 43.4531q-1.4063-5.0624-6.75-6.3281-9 8.0157-49.6406 48.5157-42.6094 42.3281-42.6094 44.1562 0 1.4062 2.1094 3.8672 2.1093 2.4609 3.5156 2.4609 1.8281 0 44.5781-42.75 41.2032-41.2031 48.7969-49.9219zm-56.3906 86.625q0-6.8906-1.9688-11.8124-3.0937 2.25-6.3281 4.6406-3.375 2.9531-3.375 6.6094 0 .8437.1406 2.5312.1406 1.6875.1406 2.5312 0 4.7813-3.0937 9.4219-3.375 5.0625-25.8047 27.4219-22.4297 22.3594-26.5078 24.4688-6.3281 3.2343-12.7969 3.2343-10.8281 0-18.6328-7.664-7.8047-7.6641-7.8047-18.4922 0-10.6875 6.6094-17.8594 2.25-2.5313 26.7188-26.4375 7.3124-7.7344 21.375-20.5312 5.2031-3.7969 13.6406-3.7969.5625 0 1.6875.2109 1.125.211 1.6875.211 1.125 0 9-9.2813-5.4844-2.3906-11.6719-2.3906-12.5156 0-21.7266 7.664-9.2109 7.6641-31.1484 29.7422-7.1719 6.8907-20.3906 21.2344-6.1875 7.5937-6.1875 21.2344 0 15.0469 10.9687 26.0156 10.9688 10.9687 25.875 10.9687 13.5 0 22.0781-7.1718 6.8907-5.7656 29.25-28.125 7.4532-7.1719 21.5157-22.5 6.75-8.2969 6.75-22.0782zm-30.5157 16.1719q-2.8124.7031-5.625.7031-6.6093 0-11.9531-5.6953-5.3437-5.6953-5.3437-12.3047 0-2.5312.7031-5.4843-13.7813 12.6562-39.2344 39.6562-3.6562 4.3594-3.6562 9.4219 0 6.4688 4.7812 11.0391 4.7813 4.5703 11.25 4.5703 6.0469 0 9.1407-2.25 1.5468-1.125 11.8124-11.25 9.4219-9.5625 28.125-28.4063z" stroke="none"/>
</svg>
