<svg height="100mm" viewBox="0 0 100 100" width="100mm" xmlns="http://www.w3.org/2000/svg"><g transform="matrix(.63403844 0 0 .63403844 -24.911195 -20.99929)"><path d="m118.36435 39.211559c-8.74674-1.223364 2.8488 6.949474 3.54488 11.116725 4.49987 7.873617 7.40926 16.753094 7.77226 25.850011 8.4432 2.899127 15.7815 8.936374 20.1843 16.709575 8.79366-10.758477 15.31756-25.619601 10.99519-39.558827-12.16169-9.130009-27.29638-14.120257-42.49663-14.117484z" fill="#2dd8a3"/><path d="m89.838444 44.970898c-15.361695 6.453309-28.254319 18.522489-35.721334 33.417081 13.330928-2.479731 27.678715-1.376297 39.808422 5.009512 6.640888-5.969741 15.557398-9.325851 24.488948-9.17825-4.89184-12.868717-14.46181-26.006859-28.576036-29.248343z" fill="#2970ff"/><path d="m178.00825 71.63232c-4.50037 12.762708-12.59349 24.621206-24.14478 31.94999 1.80282 8.78199.12532 18.19309-4.53254 25.84596 13.69707 2.26041 29.79095.51034 39.75417-10.11824 1.96362-16.542-1.98745-33.707681-11.07685-47.67771z" fill="#2970ff"/><path d="m76.905383 91.276597c-10.746295.0092-22.421204 2.699309-29.931507 10.911483-1.968029 16.52115 1.972966 33.68609 11.040152 47.64567 4.518464-12.74448 12.627673-24.57805 24.184054-31.87764-1.803183-8.75782-.147286-18.144456 4.479314-25.789126-3.222093-.587783-6.497447-.874686-9.772013-.890387z" fill="#2dd8a3"/><path d="m86.184403 128.61695c-8.804235 10.72769-15.334086 25.53125-11.124385 39.4715 13.259183 10.02181 30.121642 15.05584 46.702052 14.10818-8.7646-10.29022-14.94211-23.23231-15.4683-36.88612-8.412686-2.91159-15.721858-8.93978-20.109367-16.69356z" fill="#2970ff"/><path d="m142.05386 138.19208c-6.65784 5.95104-15.58527 9.27761-24.51582 9.10435 4.88736 12.95053 14.4101 25.9566 28.53573 29.30881 15.40157-6.43003 28.33943-18.49899 35.83295-33.41192-13.34874 2.48449-27.70263 1.39862-39.85286-5.00124z" fill="#2dd8a3"/></g></svg>