<?xml version="1.0" encoding="UTF-8" standalone="no"?>
<svg
   xmlns:dc="http://purl.org/dc/elements/1.1/"
   xmlns:cc="http://creativecommons.org/ns#"
   xmlns:rdf="http://www.w3.org/1999/02/22-rdf-syntax-ns#"
   xmlns:svg="http://www.w3.org/2000/svg"
   xmlns="http://www.w3.org/2000/svg"
   height="237.69"
   width="1253.26"
   id="svg34"
   version="1.1"
   viewBox="0 0 1253.26 237.69">
  <metadata
     id="metadata38">
    <rdf:RDF>
      <cc:Work
         rdf:about="">
        <dc:format>image/svg+xml</dc:format>
        <dc:type
           rdf:resource="http://purl.org/dc/dcmitype/StillImage" />
        <dc:title>transparent background - primary - positive - gradient</dc:title>
      </cc:Work>
    </rdf:RDF>
  </metadata>
  <defs
     id="defs14">
    <style
       id="style2">.a{fill:url(#a);}.b{fill:url(#b);}.c{fill:#091440;}</style>
    <linearGradient
       gradientUnits="userSpaceOnUse"
       y2="210.14999"
       x2="364.47"
       y1="331.84"
       x1="242.78"
       id="a">
      <stop
         id="stop4"
         stop-color="#2576f4"
         offset="0.2" />
      <stop
         id="stop6"
         stop-color="#3298da"
         offset="1" />
    </linearGradient>
    <linearGradient
       gradientUnits="userSpaceOnUse"
       y2="211.71001"
       x2="515.40002"
       y1="297.94"
       x1="366.04001"
       id="b">
      <stop
         id="stop9"
         stop-color="#36bdba"
         offset="0" />
      <stop
         id="stop11"
         stop-color="#39d8aa"
         offset="0.93" />
    </linearGradient>
  </defs>
  <title
     id="title16">transparent background - primary - positive - gradient</title>
  <g
     transform="translate(-232.87,-142)"
     id="g853">
    <path
       style="fill:url(#a)"
       class="a"
       d="M 291.62,200.75 232.87,142 h 63.45 l 94,94 h -63.45 a 47,47 0 0 0 0,94 h 23.5 l 47,47 h -70.5 a 94,94 0 0 1 -94,-94 c 0,-38.12 18.8,-68.85 58.75,-82.25 z"
       id="path18" />
    <path
       style="fill:url(#b)"
       class="b"
       d="M 456.12,318.25 514.87,377 h -63.45 l -94,-94 h 63.45 a 47,47 0 0 0 0,-94 h -23.5 l -47,-47 h 70.5 a 94,94 0 0 1 94,94 c 0,38.12 -18.8,68.85 -58.75,82.25 z"
       id="path20" />
    <path
       style="fill:#091440"
       class="c"
       d="m 914,305.75 v -0.4 c 0,-41.67 32,-74.35 75.32,-74.35 29.21,0 48,12.26 60.66,29.82 l -29.82,23.08 c -8.17,-10.22 -17.56,-16.75 -31.24,-16.75 -20,0 -34.12,17 -34.12,37.79 v 0.41 c 0,21.44 14.1,38.19 34.12,38.19 14.9,0 23.69,-7 32.27,-17.36 l 29.81,21.24 c -13.48,18.59 -31.66,32.27 -63.32,32.27 -40.84,0 -73.68,-31.24 -73.68,-73.94 z"
       id="path22" />
    <path
       style="fill:#091440"
       class="c"
       d="m 1065.13,232.84 h 68.09 c 22,0 37.23,5.73 46.9,15.6 8.44,8.23 12.75,19.34 12.75,33.54 v 0.41 c 0,22 -11.72,36.61 -29.62,44.23 l 34.36,50.22 h -46.08 l -29,-43.64 H 1105 v 43.64 h -39.91 z m 66.24,69.09 c 13.58,0 21.39,-6.59 21.39,-17.08 v -0.41 c 0,-11.31 -8.23,-17.07 -21.59,-17.07 H 1105 v 34.56 z"
       id="path24" />
    <path
       style="fill:#091440"
       class="c"
       d="m 1211.6,232.84 h 115.81 v 33.94 h -76.31 v 21.8 h 69.11 v 31.48 h -69.11 v 22.83 h 77.34 v 33.95 H 1211.6 Z"
       id="path26" />
    <path
       style="fill:#091440"
       class="c"
       d="m 1349.34,232.84 h 55.54 c 51.42,0 81.25,29.62 81.25,71.17 v 0.42 c 0,41.55 -30.24,72.41 -82.08,72.41 h -54.71 z m 56.16,108.61 c 23.86,0 39.7,-13.16 39.7,-36.41 v -0.41 c 0,-23 -15.84,-36.41 -39.7,-36.41 h -16.25 v 73.23 z"
       id="path28" />
    <path
       style="fill:#091440"
       class="c"
       d="m 832.56,379.53 c -42.27,0 -72.94,-31.14 -72.94,-74 0,-42.37 29.81,-74.33 69.36,-74.33 21.18,0 38.77,7.89 50.86,22.82 11,13.61 17.11,32.79 17.11,54 0,2.45 -0.18,4.72 -0.4,7.31 H 789.09 l 0.34,2.08 c 3.86,23.72 20.6,38.46 43.68,38.46 15.19,0 27.08,-5 39.49,-16.73 l 17,15.11 c -14.75,16.99 -33.43,25.28 -57.04,25.28 z M 828.7,254.87 c -20.78,0 -36.31,15.66 -39.56,39.89 l -0.27,2 h 78.77 l -0.2,-2 c -2.53,-24.58 -17.37,-39.89 -38.74,-39.89 z"
       id="path30" />
    <path
       style="fill:#091440"
       class="c"
       d="m 659.23,379.53 c -32.81,0 -66,-25.53 -66,-74.33 0,-48.8 33.21,-74.34 66,-74.34 19.5,0 35.34,8.2 48.41,25 l 3.22,4.15 v -93.1 h 29.9 v 209.93 h -29.9 v -28.56 l -3.26,4.6 c -12.72,17.93 -28.54,26.65 -48.37,26.65 z m 8,-123.19 c -25.83,0 -43.87,20.09 -43.87,48.86 0,28.31 18.45,48.86 43.87,48.86 25.17,0 44.15,-21 44.15,-48.86 0,-27.86 -18.95,-48.86 -44.12,-48.86 z"
       id="path32" />
  </g>
</svg>
