<svg xmlns="http://www.w3.org/2000/svg" viewBox="0 0 98.13 18.611">
  <defs>
    <style>
      .cls-1 {
        fill: #2970ff;
      }

      .cls-2 {
        fill: #2dd8a3;
      }

      .cls-3 {
        fill: #091440;
      }
    </style>
  </defs>
  <g id="primary_-_positive_-_full_color" data-name="primary - positive - full color" transform="translate(-232.87 -142)">
    <path id="Path_283" data-name="Path 283" class="cls-1" d="M237.47,146.6l-4.6-4.6h4.968l7.36,7.36H240.23a3.68,3.68,0,0,0,0,7.36h1.84l3.68,3.68h-5.52a7.36,7.36,0,0,1-7.36-7.36A6.374,6.374,0,0,1,237.47,146.6Z"/>
    <path id="Path_284" data-name="Path 284" class="cls-2" d="M358.65,155.8l4.6,4.6h-4.968l-7.36-7.36h4.968a3.68,3.68,0,0,0,0-7.36h-1.84L350.37,142h5.52a7.36,7.36,0,0,1,7.36,7.36A6.374,6.374,0,0,1,358.65,155.8Z" transform="translate(-108.3)"/>
    <path id="Path_285" data-name="Path 285" class="cls-3" d="M914,236.853v-.031A5.747,5.747,0,0,1,919.9,231a5.481,5.481,0,0,1,4.75,2.335l-2.335,1.807a3,3,0,0,0-2.446-1.312,2.772,2.772,0,0,0-2.672,2.959v.032a2.77,2.77,0,0,0,2.672,2.99,3.07,3.07,0,0,0,2.527-1.359l2.334,1.663A5.891,5.891,0,0,1,914,236.853Z" transform="translate(-627.798 -82.031)"/>
    <path id="Path_286" data-name="Path 286" class="cls-3" d="M1065.093,232.84h5.331a4.929,4.929,0,0,1,3.672,1.221,3.5,3.5,0,0,1,1,2.626v.032a3.567,3.567,0,0,1-2.319,3.463l2.69,3.932h-3.608l-2.271-3.417h-1.373v3.417h-3.125Zm5.187,5.41c1.063,0,1.675-.516,1.675-1.337v-.032c0-.886-.644-1.337-1.691-1.337h-2.049v2.706Z" transform="translate(-767.057 -83.727)"/>
    <path id="Path_287" data-name="Path 287" class="cls-3" d="M1211.6,232.84h9.068V235.5h-5.975V237.2h5.411v2.465h-5.411v1.788h6.056v2.658H1211.6Z" transform="translate(-902.096 -83.727)"/>
    <path id="Path_288" data-name="Path 288" class="cls-3" d="M1349.34,232.84h4.349c4.026,0,6.362,2.319,6.362,5.573v.033c0,3.253-2.368,5.67-6.427,5.67h-4.284Zm4.4,8.5c1.868,0,3.108-1.03,3.108-2.851v-.032c0-1.8-1.24-2.851-3.108-2.851h-1.272v5.734Z" transform="translate(-1029.051 -83.727)"/>
    <path id="Path_289" data-name="Path 289" class="cls-3" d="M765.331,242.814a5.814,5.814,0,0,1-.28-11.614,4.928,4.928,0,0,1,3.982,1.787,6.723,6.723,0,0,1,1.34,4.228c0,.192-.014.37-.031.572h-8.414l.027.163a3.345,3.345,0,0,0,3.42,3.011,4.209,4.209,0,0,0,3.092-1.31l1.331,1.183A5.593,5.593,0,0,1,765.331,242.814Zm-.3-9.761c-1.627,0-2.843,1.226-3.1,3.123l-.021.157h6.168l-.016-.157C767.864,234.252,766.7,233.053,765.029,233.053Z" transform="translate(-485.506 -82.216)"/>
    <path id="Path_290" data-name="Path 290" class="cls-3" d="M598.4,183.558c-2.569,0-5.168-2-5.168-5.82s2.6-5.821,5.168-5.821a4.593,4.593,0,0,1,3.791,1.958l.252.325v-7.29h2.341v16.438H602.44v-2.236l-.255.36A4.437,4.437,0,0,1,598.4,183.558Zm.626-9.646c-2.022,0-3.435,1.573-3.435,3.826a3.526,3.526,0,0,0,3.435,3.826,3.846,3.846,0,0,0,0-7.652Z" transform="translate(-332.144 -22.96)"/>
  </g>
</svg>
