<?xml version="1.0" encoding="UTF-8" standalone="no"?>
<svg
   xmlns:dc="http://purl.org/dc/elements/1.1/"
   xmlns:cc="http://creativecommons.org/ns#"
   xmlns:rdf="http://www.w3.org/1999/02/22-rdf-syntax-ns#"
   xmlns:svg="http://www.w3.org/2000/svg"
   xmlns="http://www.w3.org/2000/svg"
   xmlns:sodipodi="http://sodipodi.sourceforge.net/DTD/sodipodi-0.dtd"
   xmlns:inkscape="http://www.inkscape.org/namespaces/inkscape"
   version="1.1"
   id="svg54714"
   viewBox="0 0 98.000003 19"
   height="19"
   width="98"
   inkscape:version="0.91 r13725"
   sodipodi:docname="logo-2018_light-theme.svg">
  <sodipodi:namedview
     pagecolor="#ffffff"
     bordercolor="#666666"
     borderopacity="1"
     objecttolerance="10"
     gridtolerance="10"
     guidetolerance="10"
     inkscape:pageopacity="0"
     inkscape:pageshadow="2"
     inkscape:window-width="1920"
     inkscape:window-height="1027"
     id="namedview56789"
     showgrid="false"
     inkscape:zoom="12.519875"
     inkscape:cx="51.538448"
     inkscape:cy="10.284302"
     inkscape:window-x="0"
     inkscape:window-y="0"
     inkscape:window-maximized="1"
     inkscape:current-layer="svg54714" />
  <defs
     id="defs54716" />
  <metadata
     id="metadata54719">
    <rdf:RDF>
      <cc:Work
         rdf:about="">
        <dc:format>image/svg+xml</dc:format>
        <dc:type
           rdf:resource="http://purl.org/dc/dcmitype/StillImage" />
        <dc:title />
      </cc:Work>
    </rdf:RDF>
  </metadata>
  <g
     id="g57379">
    <g
       id="g57375">
      <path
         style="fill:#2972ff;fill-opacity:1"
         d="M 8.20592,18.1698 C 7.4455259,18.0481 6.6486395,17.7602 5.9382088,17.3507 4.6272722,16.5951 3.4943023,15.263 2.9303672,13.8143 1.8487588,11.0357 2.5999546,7.777 4.774666,5.8138 5.1976924,5.4319 5.8767443,4.9665 6.3108459,4.761 6.4903387,4.676 6.6330942,4.5937 6.6280808,4.578 6.6230708,4.562 5.7118271,3.7345 4.6031033,2.7383 3.4943795,1.7421 2.5491763,0.8892 2.5026528,0.8429 2.4196298,0.7599 2.4637078,0.7589 4.883085,0.7599 l 2.4650216,9e-4 3.5599254,3.2045 c 1.957959,1.7625 3.617457,3.2634 3.687773,3.3354 l 0.127847,0.1308 -2.958631,3e-4 c -2.8072537,3e-4 -2.976885,0 -3.3153915,0.089 -1.3119051,0.3262 -2.3170715,1.3555 -2.6712232,2.7353 -0.1083376,0.4221 -0.1289723,1.2272 -0.042183,1.6458 0.3180605,1.5344 1.5158833,2.7125 3.0058301,2.9563 0.1533341,0.025 0.726468,0.046 1.2736306,0.046 l 0.994841,4e-4 1.835943,1.6516 c 1.009769,0.9083 1.843985,1.659 1.853814,1.6681 0.0098,0.01 -1.360528,0.014 -3.045237,0.012 -2.3838216,0 -3.1487136,-0.018 -3.449125,-0.066 z"
         id="path55346"
         inkscape:connector-curvature="0" />
      <path
         style="fill:#2ed7a2;fill-opacity:1"
         d="m 15.690342,14.9369 -3.667152,-3.3023 2.959456,-0.024 c 3.388437,-0.028 3.240191,-0.012 4.096059,-0.4489 0.402657,-0.2056 0.495776,-0.2775 0.879259,-0.6789 C 20.431992,9.9866 20.673621,9.5953 20.853236,9.0329 21.54862,6.8559 20.215034,4.5589 18.02583,4.163 17.764995,4.116 17.35638,4.095 16.673341,4.095 l -0.978735,0 -1.822273,-1.6347 C 12.870083,1.5612 12.04884,0.8105 12.047348,0.7922 c -0.0015,-0.018 1.333867,-0.033 2.967466,-0.033 3.155322,3e-4 3.349614,0.011 4.159107,0.2243 1.998028,0.527 3.744285,2.0986 4.562787,4.1064 0.634895,1.5574 0.702737,3.4118 0.18361,5.0188 -0.559123,1.7308 -1.77381,3.1959 -3.350178,4.041 -0.282069,0.1512 -0.496599,0.2902 -0.476733,0.309 0.01986,0.019 0.933607,0.8397 2.030535,1.8243 1.096929,0.9846 2.032482,1.8278 2.079006,1.8738 0.08284,0.082 0.03357,0.084 -2.380432,0.083 l -2.465022,-6e-4 -3.667152,-3.3022 z"
         id="path55344"
         inkscape:connector-curvature="0" />
    </g>
    <g
       id="g57356">
      <path
         inkscape:connector-curvature="0"
         style="fill:#232323;fill-opacity:1"
         d="m 38.550781,2.4042969 -0.002,3.4589843 -0.002,3.4589844 -0.115234,-0.15625 C 38.368403,9.0804156 38.142519,8.82225 37.929688,8.59375 37.3083,7.92675 36.676996,7.5427844 35.861328,7.3339844 c -0.491225,-0.1256 -1.447573,-0.1345781 -1.964844,-0.017578 -2.044511,0.4624001 -3.4523,2.1107719 -3.800781,4.4511716 -0.06904,0.4637 -0.06868,1.681866 0,2.134766 0.279551,1.8438 1.186176,3.251353 2.580078,4.001953 0.451971,0.243479 0.9138,0.405219 1.378907,0.486328 l 0.002,0 c 1.683567,0.292181 3.141111,-0.321694 4.193359,-1.769531 l 0.279297,-0.384766 0.01172,1.001953 0.01172,1.001953 1.115235,0 1.113281,0 0,-7.917968 0,-7.9179689 -1.115234,0 -1.115235,0 z m -3.111328,6.78125 c 0.894238,0.00556 1.768448,0.4365781 2.363281,1.1816411 0.237305,0.297199 0.584292,1.021212 0.691407,1.445312 0.122816,0.4862 0.112044,1.656606 -0.01953,2.128906 -0.340003,1.2206 -1.118198,2.074728 -2.208984,2.423828 -0.910862,0.2915 -1.97471,0.06872 -2.763672,-0.580078 -1.159276,-0.9533 -1.569743,-2.958631 -0.9375,-4.582031 0.434138,-1.1147 1.341383,-1.8424406 2.490235,-1.9941406 0.127757,-0.016863 0.257017,-0.024232 0.384765,-0.023437 z"
         id="path55356" />
      <path
         inkscape:connector-curvature="0"
         style="fill:#232323;fill-opacity:1"
         d="m 46.919922,7.265625 c -0.373742,0.019513 -0.741195,0.066366 -0.994141,0.1347656 -0.892169,0.2413 -1.605836,0.6651906 -2.253906,1.3378906 -0.742677,0.771 -1.193797,1.6617498 -1.439453,2.8437498 -0.135847,0.6538 -0.136083,1.899788 0,2.554688 0.489095,2.3538 2.137362,3.94795 4.425781,4.28125 l 0,0.002 c 0.395765,0.0581 1.542389,0.01955 1.960938,-0.06445 0.721078,-0.1453 1.490856,-0.486297 2.041015,-0.904297 0.313183,-0.2379 0.931635,-0.848016 0.927735,-0.916016 -0.0015,-0.0263 -0.285498,-0.302934 -0.628907,-0.615234 l -0.623046,-0.56836 -0.177735,0.167969 c -0.482765,0.4602 -1.11781,0.827741 -1.720703,0.994141 -0.490592,0.1313 -1.365453,0.1333 -1.835938,0 -0.891727,-0.2527 -1.562588,-0.843263 -1.964843,-1.726563 -0.131859,-0.2895 -0.336391,-0.979125 -0.337891,-1.140625 -1.63e-4,-0.018 1.753194,-0.0332 3.896484,-0.0332 l 3.896485,0 0.02734,-0.298828 c 0.03475,-0.397 -0.03488,-1.278072 -0.142579,-1.826172 C 51.510629,9.1171342 50.059268,7.6056749 47.949215,7.2949749 47.67239,7.2542249 47.29366,7.2461659 46.919918,7.2656779 Z m 0.347656,1.8125 c 0.153053,0.00612 0.307779,0.026634 0.462891,0.060547 1.198365,0.262 1.987815,1.287581 2.205078,2.863281 l 0.02539,0.189453 -2.832032,0 -2.830078,0 0,-0.105468 c 0,-0.227301 0.222591,-0.998004 0.388672,-1.345704 0.515796,-1.0799245 1.508711,-1.7049443 2.580078,-1.6621089 z"
         id="path55352" />
      <path
         inkscape:connector-curvature="0"
         style="fill:#232323;fill-opacity:1"
         d="m 57.74195,18.3933 c -0.722454,-0.1259 -1.427054,-0.414 -2.066318,-0.8449 -0.431956,-0.2911 -1.151074,-1.015 -1.418519,-1.428 -0.406951,-0.6284 -0.699109,-1.3776 -0.849445,-2.1783 -0.09769,-0.5203 -0.09965,-1.5798 -0.0039,-2.1295 0.34062,-1.9563 1.596699,-3.5217 3.385712,-4.2196 0.709305,-0.2767 1.669404,-0.4051 2.525514,-0.3377 1.574045,0.1239 2.733744,0.7156 3.64865,1.8615 0.242396,0.3036 0.28765,0.3837 0.241736,0.4278 -0.03107,0.03 -0.525385,0.4295 -1.098478,0.8882 l -1.04199,0.834 -0.309066,-0.3283 c -0.581383,-0.6175 -1.095573,-0.8789 -1.803527,-0.917 -0.658324,-0.036 -1.095196,0.099 -1.594207,0.4906 -1.024144,0.8036 -1.329225,2.5259 -0.677939,3.8271 0.226678,0.4529 0.66719,0.9037 1.085941,1.1115 1.033944,0.5129 2.203701,0.2322 3.068124,-0.7361 0.22847,-0.2559 0.293423,-0.3054 0.358081,-0.2728 0.161097,0.081 2.106691,1.5464 2.106691,1.5867 0,0.08 -0.422229,0.5911 -0.799388,0.9672 -0.789638,0.7876 -1.659641,1.2264 -2.770428,1.3974 -0.544879,0.084 -1.506462,0.084 -1.987219,0 z"
         id="path55348" />
      <path
         inkscape:connector-curvature="0"
         style="fill:#232323;fill-opacity:1"
         d="m 64.285156,7.3828125 0,5.4277345 0,5.429687 1.480469,0 1.478516,0 0,-1.646484 0,-1.644531 0.601562,0 0.599609,0 1.058594,1.644531 1.056641,1.646484 1.714844,0 c 1.365146,0 1.705655,-0.01264 1.671875,-0.05664 -0.03286,-0.0431 -1.386277,-2.08965 -2.333985,-3.53125 l -0.121093,-0.185547 0.189453,-0.0957 c 0.372779,-0.1871 0.735777,-0.462163 1.042968,-0.789063 0.251147,-0.2673 0.353311,-0.419403 0.521485,-0.783203 0.235161,-0.5087 0.294222,-0.724875 0.351562,-1.296875 0.04848,-0.4837 -0.01187,-1.183581 -0.138672,-1.6132811 -0.160398,-0.5435 -0.366411,-0.889825 -0.787109,-1.328125 -0.533345,-0.5556 -1.027213,-0.8276344 -1.910156,-1.0527344 -0.349001,-0.0893 -0.494465,-0.093375 -3.419922,-0.109375 l -3.056641,-0.015625 z m 2.958985,2.6210935 1.191406,0.01563 c 1.127171,0.0158 1.202944,0.02209 1.443359,0.121094 0.517051,0.2122 0.771485,0.596663 0.771485,1.164063 0,0.565 -0.321113,0.992287 -0.888672,1.179687 -0.173729,0.058 -0.467974,0.07675 -1.369141,0.09375 l -1.148437,0.02344 0,-1.298828 0,-1.298828 z"
         id="path55342" />
      <path
         inkscape:connector-curvature="0"
         style="fill:#232323;fill-opacity:1"
         d="m 74.922357,12.8134 0,-5.4268 4.224731,0 4.224731,0 0,1.29 0,1.29 -2.766448,0 -2.766448,0 0,0.8006 0,0.8007 2.509104,0 2.509104,0 0,1.201 0,1.2011 -2.509104,0 -2.509104,0 0,0.8451 0,0.8452 2.809339,0 2.809339,0 0,1.29 0,1.29 -4.267622,0 -4.267622,0 0,-5.4269 z"
         id="path55338" />
      <path
         inkscape:connector-curvature="0"
         style="fill:#232323;fill-opacity:1"
         d="m 84.916016,7.3808594 0,5.4335936 0,5.429688 2.5625,-0.01367 c 2.464065,-0.0148 2.580022,-0.02019 3.02539,-0.117188 0.913576,-0.1981 1.58882,-0.478706 2.25586,-0.941406 1.373857,-0.9531 2.15039,-2.537672 2.15039,-4.388672 0,-2.7632 -1.565575,-4.6732311 -4.316406,-5.2695311 -0.449807,-0.0973 -0.55837,-0.1021875 -3.072266,-0.1171875 l -2.605468,-0.015625 z m 2.958984,2.6621096 0.847656,0.02734 c 0.623751,0.0214 0.940924,0.05219 1.201172,0.117188 0.957676,0.241 1.639384,0.905172 1.878906,1.826172 0.102106,0.3926 0.103781,1.208156 0.002,1.597656 -0.24407,0.9338 -0.917385,1.586672 -1.88086,1.826172 l 0,0.002 c -0.289971,0.072 -0.50618,0.08749 -1.201172,0.08789 l -0.847656,0 0,-2.742188 0,-2.742187 z"
         id="path55336" />
    </g>
  </g>
</svg>
