<svg height="237.69" viewBox="0 0 1253.26 237.69" width="1253.26" xmlns="http://www.w3.org/2000/svg" xmlns:xlink="http://www.w3.org/1999/xlink">
	<linearGradient id="a" gradientUnits="userSpaceOnUse" x1="242.78" x2="364.47" y1="331.84" y2="210.14999">
		<stop offset=".2" stop-color="#2576f4"/>
		<stop offset="1" stop-color="#3298da"/>
	</linearGradient>
	<linearGradient id="b" gradientUnits="userSpaceOnUse" x1="366.04001" x2="515.40002" y1="297.94" y2="211.71001">
		<stop offset="0" stop-color="#36bdba"/>
		<stop offset=".93" stop-color="#39d8aa"/>
	</linearGradient>
	<g transform="translate(-232.87 -142)">
		<path d="m291.62 200.75-58.75-58.75h63.45l94 94h-63.45a47 47 0 0 0 0 94h23.5l47 47h-70.5a94 94 0 0 1 -94-94c0-38.12 18.8-68.85 58.75-82.25z" fill="url(#a)"/>
		<path d="m456.12 318.25 58.75 58.75h-63.45l-94-94h63.45a47 47 0 0 0 0-94h-23.5l-47-47h70.5a94 94 0 0 1 94 94c0 38.12-18.8 68.85-58.75 82.25z" fill="url(#b)"/>
		<g fill="#091440">
			<path d="m914 305.75v-.4c0-41.67 32-74.35 75.32-74.35 29.21 0 48 12.26 60.66 29.82l-29.82 23.08c-8.17-10.22-17.56-16.75-31.24-16.75-20 0-34.12 17-34.12 37.79v.41c0 21.44 14.1 38.19 34.12 38.19 14.9 0 23.69-7 32.27-17.36l29.81 21.24c-13.48 18.59-31.66 32.27-63.32 32.27-40.84 0-73.68-31.24-73.68-73.94z"/>
			<path d="m1065.13 232.84h68.09c22 0 37.23 5.73 46.9 15.6 8.44 8.23 12.75 19.34 12.75 33.54v.41c0 22-11.72 36.61-29.62 44.23l34.36 50.22h-46.08l-29-43.64h-17.53v43.64h-39.91zm66.24 69.09c13.58 0 21.39-6.59 21.39-17.08v-.41c0-11.31-8.23-17.07-21.59-17.07h-26.17v34.56z"/>
			<path d="m1211.6 232.84h115.81v33.94h-76.31v21.8h69.11v31.48h-69.11v22.83h77.34v33.95h-116.84z"/>
			<path d="m1349.34 232.84h55.54c51.42 0 81.25 29.62 81.25 71.17v.42c0 41.55-30.24 72.41-82.08 72.41h-54.71zm56.16 108.61c23.86 0 39.7-13.16 39.7-36.41v-.41c0-23-15.84-36.41-39.7-36.41h-16.25v73.23z"/>
			<path d="m832.56 379.53c-42.27 0-72.94-31.14-72.94-74 0-42.37 29.81-74.33 69.36-74.33 21.18 0 38.77 7.89 50.86 22.82 11 13.61 17.11 32.79 17.11 54 0 2.45-.18 4.72-.4 7.31h-107.46l.34 2.08c3.86 23.72 20.6 38.46 43.68 38.46 15.19 0 27.08-5 39.49-16.73l17 15.11c-14.75 16.99-33.43 25.28-57.04 25.28zm-3.86-124.66c-20.78 0-36.31 15.66-39.56 39.89l-.27 2h78.77l-.2-2c-2.53-24.58-17.37-39.89-38.74-39.89z"/>
			<path d="m659.23 379.53c-32.81 0-66-25.53-66-74.33s33.21-74.34 66-74.34c19.5 0 35.34 8.2 48.41 25l3.22 4.15v-93.1h29.9v209.93h-29.9v-28.56l-3.26 4.6c-12.72 17.93-28.54 26.65-48.37 26.65zm8-123.19c-25.83 0-43.87 20.09-43.87 48.86 0 28.31 18.45 48.86 43.87 48.86 25.17 0 44.15-21 44.15-48.86s-18.95-48.86-44.12-48.86z"/>
		</g>
	</g>
</svg>
