<svg height="237.72" viewBox="0 0 1257.95 237.72" width="1257.95" xmlns="http://www.w3.org/2000/svg">
	<g fill="#fff" transform="translate(-232.86 -142)">
		<path d="m995.21 347.55c-20.6 0-36.14-17.29-36.14-40.22v-.41c0-22.7 15.54-39.82 36.14-39.82 12.46 0 22.27 4.95 31.58 16l26.76-20.71c-14-18.47-32.94-27.46-57.94-27.46-41.85 0-73.41 31.13-73.41 72.4v.4c0 19.93 7.44 38.26 21 51.6 13.34 13.15 31.38 20.39 50.82 20.39 26.23 0 45-9.22 60.54-29.84l-26.67-19c-8.63 10.06-17.68 16.67-32.68 16.67z"/>
		<path d="m1168.88 326.77c13-5.52 28.43-17.35 28.43-42.42v-.41c0-13.64-4-24.15-12.16-32.12-9.81-10-25.12-15.08-45.53-15.08h-66.14v140.1h35.93v-43.64h20.59l29 43.64h41.25l-33.62-49.11zm-7.71-39.95c0 11.77-9 19.08-23.41 19.08h-28.35v-38.57h28.15c15 0 23.61 6.95 23.61 19.08z"/>
		<path d="m1324.74 292.55h-69.16v-25.81h76.37v-29.97h-111.9v140.09h112.93v-29.97h-77.4v-26.84h69.16z"/>
		<path d="m1470.08 256.27c-14.06-12.76-34.33-19.5-58.61-19.5h-53.58v140.09h52.75c24.4 0 44.86-6.95 59.17-20.11 13.72-12.61 21-30 21-50.34v-.41c-.03-20.25-7.19-37.44-20.73-49.73zm-16.27 50.73c0 23.71-16 38.44-41.72 38.44h-18.27v-77.27h18.27c25.74 0 41.72 14.73 41.72 38.44z"/>
		<path d="m835.15 235.08c-38.43 0-67.4 31.12-67.4 72.38 0 41.78 29.85 72.1 71 72.1 22.33 0 40.11-7.59 54.28-23.19l-14.19-12.59c-12.35 11.23-24.27 16-39.54 16-24.15 0-41.66-15.39-45.69-40.16l-.72-4.4h108c.14-1.74.25-3.51.25-5.32 0-20.76-5.92-39.5-16.68-52.77-11.67-14.41-28.73-22.05-49.31-22.05zm-42.42 65.68.58-4.29c3.39-25.3 19.71-41.65 41.57-41.65 22.49 0 38.11 16 40.75 41.77l.43 4.17z"/>
		<path d="m665.29 234.79c-31.84 0-64.07 24.86-64.07 72.39 0 36 22 72.38 64.07 72.38 19.15 0 34.44-8.45 46.76-25.83l6.95-9.73v32.83h25.92v-210.92h-25.92v101.94l-6.8-8.76c-12.73-16.35-28.06-24.3-46.91-24.3zm54.22 72.39c0 29-19.86 50.89-46.19 50.89-26.6 0-45.9-21.4-45.9-50.89 0-30 18.87-50.9 45.9-50.9 26.33 0 46.19 21.88 46.19 50.9z"/>
		<path d="m453.89 320 57 57h-56.06l-94-94h58.17a47 47 0 1 0 0-94h-18.93l-47-47h63.81a94 94 0 0 1 94 94c0 38.12-16.81 68-56.99 84z"/>
		<path d="m289.86 199-57-57h56.05l94 94h-58.15a47 47 0 1 0 0 94h18.91l47 47h-63.8a94 94 0 0 1 -94-94c0-38.12 16.8-68 56.99-84z"/>
	</g>
</svg>
