<?xml version="1.0" encoding="UTF-8" standalone="no"?>
<svg
   xmlns:dc="http://purl.org/dc/elements/1.1/"
   xmlns:cc="http://creativecommons.org/ns#"
   xmlns:rdf="http://www.w3.org/1999/02/22-rdf-syntax-ns#"
   xmlns:svg="http://www.w3.org/2000/svg"
   xmlns="http://www.w3.org/2000/svg"
   xmlns:sodipodi="http://sodipodi.sourceforge.net/DTD/sodipodi-0.dtd"
   xmlns:inkscape="http://www.inkscape.org/namespaces/inkscape"
   version="1.1"
   id="svg54714"
   viewBox="0 0 98.000003 19"
   height="19"
   width="98"
   inkscape:version="0.91 r13725"
   sodipodi:docname="logo-2018_dark-theme.svg">
  <sodipodi:namedview
     pagecolor="#232320"
     bordercolor="#666666"
     borderopacity="1"
     objecttolerance="10"
     gridtolerance="10"
     guidetolerance="10"
     inkscape:pageopacity="0"
     inkscape:pageshadow="2"
     inkscape:window-width="1920"
     inkscape:window-height="1027"
     id="namedview58096"
     showgrid="false"
     inkscape:zoom="8.436672"
     inkscape:cx="70.694656"
     inkscape:cy="-6.5458015"
     inkscape:window-x="0"
     inkscape:window-y="0"
     inkscape:window-maximized="1"
     inkscape:current-layer="svg54714" />
  <defs
     id="defs54716" />
  <metadata
     id="metadata54719">
    <rdf:RDF>
      <cc:Work
         rdf:about="">
        <dc:format>image/svg+xml</dc:format>
        <dc:type
           rdf:resource="http://purl.org/dc/dcmitype/StillImage" />
        <dc:title></dc:title>
      </cc:Work>
    </rdf:RDF>
  </metadata>
  <g
     id="g58666">
    <g
       id="g58662">
      <path
         inkscape:connector-curvature="0"
         style="fill:#2972ff;fill-opacity:1"
         d="M 8.20592,18.1698 C 7.4455259,18.0481 6.6486395,17.7602 5.9382088,17.3507 4.6272722,16.5951 3.4943023,15.263 2.9303672,13.8143 1.8487588,11.0357 2.5999546,7.777 4.774666,5.8138 5.1976924,5.4319 5.8767443,4.9665 6.3108459,4.761 6.4903387,4.676 6.6330942,4.5937 6.6280808,4.578 6.6230708,4.562 5.7118271,3.7345 4.6031033,2.7383 3.4943795,1.7421 2.5491763,0.8892 2.5026528,0.8429 2.4196298,0.7599 2.4637078,0.7589 4.883085,0.7599 l 2.4650216,9e-4 3.5599254,3.2045 c 1.957959,1.7625 3.617457,3.2634 3.687773,3.3354 l 0.127847,0.1308 -2.958631,3e-4 c -2.8072537,3e-4 -2.976885,0 -3.3153915,0.089 -1.3119051,0.3262 -2.3170715,1.3555 -2.6712232,2.7353 -0.1083376,0.4221 -0.1289723,1.2272 -0.042183,1.6458 0.3180605,1.5344 1.5158833,2.7125 3.0058301,2.9563 0.1533341,0.025 0.726468,0.046 1.2736306,0.046 l 0.994841,4e-4 1.835943,1.6516 c 1.009769,0.9083 1.843985,1.659 1.853814,1.6681 0.0098,0.01 -1.360528,0.014 -3.045237,0.012 -2.3838216,0 -3.1487136,-0.018 -3.449125,-0.066 z"
         id="path55346" />
      <path
         inkscape:connector-curvature="0"
         style="fill:#2ed7a2;fill-opacity:1"
         d="m 15.690342,14.9369 -3.667152,-3.3023 2.959456,-0.024 c 3.388437,-0.028 3.240191,-0.012 4.096059,-0.4489 0.402657,-0.2056 0.495776,-0.2775 0.879259,-0.6789 C 20.431992,9.9866 20.673621,9.5953 20.853236,9.0329 21.54862,6.8559 20.215034,4.5589 18.02583,4.163 17.764995,4.116 17.35638,4.095 16.673341,4.095 l -0.978735,0 -1.822273,-1.6347 C 12.870083,1.5612 12.04884,0.8105 12.047348,0.7922 c -0.0015,-0.018 1.333867,-0.033 2.967466,-0.033 3.155322,3e-4 3.349614,0.011 4.159107,0.2243 1.998028,0.527 3.744285,2.0986 4.562787,4.1064 0.634895,1.5574 0.702737,3.4118 0.18361,5.0188 -0.559123,1.7308 -1.77381,3.1959 -3.350178,4.041 -0.282069,0.1512 -0.496599,0.2902 -0.476733,0.309 0.01986,0.019 0.933607,0.8397 2.030535,1.8243 1.096929,0.9846 2.032482,1.8278 2.079006,1.8738 0.08284,0.082 0.03357,0.084 -2.380432,0.083 l -2.465022,-6e-4 -3.667152,-3.3022 z"
         id="path55344" />
    </g>
    <g
       id="g58654">
      <path
         inkscape:connector-curvature="0"
         style="fill:#fbfbfb;fill-opacity:1"
         d="m 38.550781,2.4043 -0.002,3.459 -0.002,3.459 L 38.431547,9.166 C 38.368407,9.08 38.142519,8.8223 37.929688,8.5938 37.3083,7.9268 36.676996,7.5428 35.861328,7.334 35.370103,7.2084 34.413755,7.1994 33.896484,7.316 c -2.044511,0.4624 -3.4523,2.1108 -3.800781,4.4512 -0.06904,0.4637 -0.06868,1.6818 0,2.1347 0.279551,1.8438 1.186176,3.2514 2.580078,4.002 0.451971,0.2435 0.9138,0.4052 1.378907,0.4863 l 0.002,0 c 1.683567,0.2922 3.141111,-0.3217 4.193359,-1.7695 l 0.279297,-0.3848 0.01172,1.002 0.01172,1.0019 1.115235,0 1.113281,0 0,-7.9179 0,-7.918 -1.115234,0 -1.115235,0 z m -3.111328,6.7812 c 0.894238,0.01 1.768448,0.4366 2.363281,1.1817 0.237305,0.2972 0.584292,1.0212 0.691407,1.4453 0.122816,0.4862 0.112044,1.6566 -0.01953,2.1289 -0.340003,1.2206 -1.118198,2.0747 -2.208984,2.4238 -0.910862,0.2915 -1.97471,0.069 -2.763672,-0.58 -1.159276,-0.9533 -1.569743,-2.9587 -0.9375,-4.5821 0.434138,-1.1147 1.341383,-1.8424 2.490235,-1.9941 0.127757,-0.017 0.257017,-0.024 0.384765,-0.024 z"
         id="path55356" />
      <path
         inkscape:connector-curvature="0"
         style="fill:#fbfbfb;fill-opacity:1"
         d="m 46.919922,7.2656 c -0.373742,0.02 -0.741195,0.066 -0.994141,0.1348 -0.892169,0.2413 -1.605836,0.6652 -2.253906,1.3379 -0.742677,0.771 -1.193797,1.6617 -1.439453,2.8437 -0.135847,0.6538 -0.136083,1.8998 0,2.5547 0.489095,2.3538 2.137362,3.948 4.425781,4.2813 l 0,0 c 0.395765,0.058 1.542389,0.019 1.960938,-0.065 0.721078,-0.1453 1.490856,-0.4863 2.041015,-0.9043 0.313183,-0.2379 0.931635,-0.848 0.927735,-0.916 -0.0015,-0.026 -0.285498,-0.3029 -0.628907,-0.6152 l -0.623046,-0.5684 -0.177735,0.168 c -0.482765,0.4602 -1.11781,0.8277 -1.720703,0.9941 -0.490592,0.1313 -1.365453,0.1333 -1.835938,0 -0.891727,-0.2527 -1.562588,-0.8432 -1.964843,-1.7265 -0.131859,-0.2895 -0.336391,-0.9792 -0.337891,-1.1407 -1.63e-4,-0.018 1.753194,-0.033 3.896484,-0.033 l 3.896485,0 0.02734,-0.2988 c 0.03475,-0.397 -0.03488,-1.2781 -0.142579,-1.8262 C 51.510629,9.1148 50.059268,7.6034 47.949215,7.2927 47.67239,7.2517 47.29366,7.2437 46.919918,7.2637 Z m 0.347656,1.8125 c 0.153053,0.01 0.307779,0.027 0.462891,0.061 1.198365,0.262 1.987815,1.2876 2.205078,2.8633 l 0.02539,0.1894 -2.832032,0 -2.830078,0 0,-0.1055 c 0,-0.2273 0.222591,-0.998 0.388672,-1.3457 0.515796,-1.0799 1.508711,-1.7049 2.580078,-1.6621 z"
         id="path55352" />
      <path
         inkscape:connector-curvature="0"
         style="fill:#fbfbfb;fill-opacity:1"
         d="m 57.74195,18.3933 c -0.722454,-0.1259 -1.427054,-0.414 -2.066318,-0.8449 -0.431956,-0.2911 -1.151074,-1.015 -1.418519,-1.428 -0.406951,-0.6284 -0.699109,-1.3776 -0.849445,-2.1783 -0.09769,-0.5203 -0.09965,-1.5798 -0.0039,-2.1295 0.34062,-1.9563 1.596699,-3.5217 3.385712,-4.2196 0.709305,-0.2767 1.669404,-0.4051 2.525514,-0.3377 1.574045,0.1239 2.733744,0.7156 3.64865,1.8615 0.242396,0.3036 0.28765,0.3837 0.241736,0.4278 -0.03107,0.03 -0.525385,0.4295 -1.098478,0.8882 l -1.04199,0.834 -0.309066,-0.3283 c -0.581383,-0.6175 -1.095573,-0.8789 -1.803527,-0.917 -0.658324,-0.036 -1.095196,0.099 -1.594207,0.4906 -1.024144,0.8036 -1.329225,2.5259 -0.677939,3.8271 0.226678,0.4529 0.66719,0.9037 1.085941,1.1115 1.033944,0.5129 2.203701,0.2322 3.068124,-0.7361 0.22847,-0.2559 0.293423,-0.3054 0.358081,-0.2728 0.161097,0.081 2.106691,1.5464 2.106691,1.5867 0,0.08 -0.422229,0.5911 -0.799388,0.9672 -0.789638,0.7876 -1.659641,1.2264 -2.770428,1.3974 -0.544879,0.084 -1.506462,0.084 -1.987219,0 z"
         id="path55348" />
      <path
         inkscape:connector-curvature="0"
         style="fill:#fbfbfb;fill-opacity:1"
         d="m 64.285156,7.3828 0,5.4277 0,5.4297 1.480469,0 1.478516,0 0,-1.6464 0,-1.6446 0.601562,0 0.599609,0 1.058594,1.6446 1.056641,1.6464 1.714844,0 c 1.365146,0 1.705655,-0.013 1.671875,-0.057 -0.03286,-0.043 -1.386277,-2.0897 -2.333985,-3.5313 l -0.121093,-0.1855 0.189453,-0.096 c 0.372779,-0.1871 0.735777,-0.4622 1.042968,-0.7891 0.251147,-0.2673 0.353311,-0.4194 0.521485,-0.7832 0.235161,-0.5087 0.294222,-0.7248 0.351562,-1.2968 0.04848,-0.4837 -0.01187,-1.1836 -0.138672,-1.6133 C 73.298586,9.3445 73.092573,8.9981 72.671875,8.5598 72.13853,8.0042 71.644662,7.7322 70.761719,7.5071 70.412718,7.4181 70.267254,7.4141 67.341797,7.3977 l -3.056641,-0.016 z m 2.958985,2.6211 1.191406,0.016 c 1.127171,0.016 1.202944,0.022 1.443359,0.1211 0.517051,0.2122 0.771485,0.5967 0.771485,1.1641 0,0.565 -0.321113,0.9923 -0.888672,1.1797 -0.173729,0.058 -0.467974,0.077 -1.369141,0.094 l -1.148437,0.024 0,-1.2989 0,-1.2988 z"
         id="path55342" />
      <path
         inkscape:connector-curvature="0"
         style="fill:#fbfbfb;fill-opacity:1"
         d="m 74.922357,12.8134 0,-5.4268 4.224731,0 4.224731,0 0,1.29 0,1.29 -2.766448,0 -2.766448,0 0,0.8006 0,0.8007 2.509104,0 2.509104,0 0,1.201 0,1.2011 -2.509104,0 -2.509104,0 0,0.8451 0,0.8452 2.809339,0 2.809339,0 0,1.29 0,1.29 -4.267622,0 -4.267622,0 0,-5.4269 z"
         id="path55338" />
      <path
         inkscape:connector-curvature="0"
         style="fill:#fbfbfb;fill-opacity:1"
         d="m 84.916016,7.3809 0,5.4336 0,5.4296 2.5625,-0.014 c 2.464065,-0.015 2.580022,-0.02 3.02539,-0.1172 0.913576,-0.1981 1.58882,-0.4787 2.25586,-0.9414 1.373857,-0.9531 2.15039,-2.5377 2.15039,-4.3887 0,-2.7632 -1.565575,-4.6732 -4.316406,-5.2695 C 90.143943,7.4163 90.03538,7.4111 87.521484,7.3961 L 84.916016,7.3801 Z M 87.875,10.043 88.722656,10.07 c 0.623751,0.021 0.940924,0.052 1.201172,0.1172 0.957676,0.241 1.639384,0.9052 1.878906,1.8262 0.102106,0.3926 0.103781,1.2081 0.002,1.5976 -0.24407,0.9338 -0.917385,1.5867 -1.88086,1.8262 l 0,0 c -0.289971,0.072 -0.50618,0.088 -1.201172,0.088 l -0.847656,0 0,-2.7422 0,-2.7422 z"
         id="path55336" />
    </g>
  </g>
</svg>
