<?xml version="1.0" encoding="UTF-8" standalone="no"?>
<svg
   xmlns:dc="http://purl.org/dc/elements/1.1/"
   xmlns:cc="http://creativecommons.org/ns#"
   xmlns:rdf="http://www.w3.org/1999/02/22-rdf-syntax-ns#"
   xmlns:svg="http://www.w3.org/2000/svg"
   xmlns="http://www.w3.org/2000/svg"
   height="237.72"
   width="1257.95"
   id="svg24"
   version="1.1"
   viewBox="0 0 1257.95 237.72">
  <metadata
     id="metadata28">
    <rdf:RDF>
      <cc:Work
         rdf:about="">
        <dc:format>image/svg+xml</dc:format>
        <dc:type
           rdf:resource="http://purl.org/dc/dcmitype/StillImage" />
        <dc:title>transparent background - primary - negative - 1 color</dc:title>
      </cc:Work>
    </rdf:RDF>
  </metadata>
  <defs
     id="defs4">
    <style
       id="style2">.a{fill:#fff;}</style>
  </defs>
  <title
     id="title6">transparent background - primary - negative - 1 color</title>
  <g
     transform="translate(-232.86,-142)"
     id="g843">
    <path
       style="fill:#ffffff"
       class="a"
       d="m 995.21,347.55 c -20.6,0 -36.14,-17.29 -36.14,-40.22 v -0.41 c 0,-22.7 15.54,-39.82 36.14,-39.82 12.46,0 22.27,4.95 31.58,16 l 26.76,-20.71 c -14,-18.47 -32.94,-27.46 -57.94,-27.46 -41.85,0 -73.41,31.13 -73.41,72.4 v 0.4 c 0,19.93 7.44,38.26 21,51.6 13.34,13.15 31.38,20.39 50.82,20.39 26.23,0 45,-9.22 60.54,-29.84 l -26.67,-19 c -8.63,10.06 -17.68,16.67 -32.68,16.67 z"
       id="path8" />
    <path
       style="fill:#ffffff"
       class="a"
       d="m 1168.88,326.77 c 13,-5.52 28.43,-17.35 28.43,-42.42 v -0.41 c 0,-13.64 -4,-24.15 -12.16,-32.12 -9.81,-10 -25.12,-15.08 -45.53,-15.08 h -66.14 v 140.1 h 35.93 V 333.2 H 1130 l 29,43.64 h 41.25 l -33.62,-49.11 z m -7.71,-39.95 c 0,11.77 -9,19.08 -23.41,19.08 h -28.35 v -38.57 h 28.15 c 15,0 23.61,6.95 23.61,19.08 z"
       id="path10" />
    <polygon
       style="fill:#ffffff"
       class="a"
       points="1324.74,292.55 1255.58,292.55 1255.58,266.74 1331.95,266.74 1331.95,236.77 1220.05,236.77 1220.05,376.86 1332.98,376.86 1332.98,346.89 1255.58,346.89 1255.58,320.05 1324.74,320.05 "
       id="polygon12" />
    <path
       style="fill:#ffffff"
       class="a"
       d="m 1470.08,256.27 c -14.06,-12.76 -34.33,-19.5 -58.61,-19.5 h -53.58 v 140.09 h 52.75 c 24.4,0 44.86,-6.95 59.17,-20.11 13.72,-12.61 21,-30 21,-50.34 V 306 c -0.03,-20.25 -7.19,-37.44 -20.73,-49.73 z M 1453.81,307 c 0,23.71 -16,38.44 -41.72,38.44 h -18.27 v -77.27 h 18.27 c 25.74,0 41.72,14.73 41.72,38.44 z"
       id="path14" />
    <path
       style="fill:#ffffff"
       class="a"
       d="m 835.15,235.08 c -38.43,0 -67.4,31.12 -67.4,72.38 0,41.78 29.85,72.1 71,72.1 22.33,0 40.11,-7.59 54.28,-23.19 l -14.19,-12.59 c -12.35,11.23 -24.27,16 -39.54,16 -24.15,0 -41.66,-15.39 -45.69,-40.16 l -0.72,-4.4 h 108 c 0.14,-1.74 0.25,-3.51 0.25,-5.32 0,-20.76 -5.92,-39.5 -16.68,-52.77 -11.67,-14.41 -28.73,-22.05 -49.31,-22.05 z m -42.42,65.68 0.58,-4.29 c 3.39,-25.3 19.71,-41.65 41.57,-41.65 22.49,0 38.11,16 40.75,41.77 l 0.43,4.17 z"
       id="path16" />
    <path
       style="fill:#ffffff"
       class="a"
       d="m 665.29,234.79 c -31.84,0 -64.07,24.86 -64.07,72.39 0,36 22,72.38 64.07,72.38 19.15,0 34.44,-8.45 46.76,-25.83 L 719,344 v 32.83 h 25.92 V 165.91 H 719 v 101.94 l -6.8,-8.76 c -12.73,-16.35 -28.06,-24.3 -46.91,-24.3 z m 54.22,72.39 c 0,29 -19.86,50.89 -46.19,50.89 -26.6,0 -45.9,-21.4 -45.9,-50.89 0,-30 18.87,-50.9 45.9,-50.9 26.33,0 46.19,21.88 46.19,50.9 z"
       id="path18" />
    <path
       style="fill:#ffffff"
       class="a"
       d="m 453.89,320 57,57 h -56.06 l -94,-94 H 419 a 47,47 0 1 0 0,-94 h -18.93 l -47,-47 h 63.81 a 94,94 0 0 1 94,94 c 0,38.12 -16.81,68 -56.99,84 z"
       id="path20" />
    <path
       style="fill:#ffffff"
       class="a"
       d="m 289.86,199 -57,-57 h 56.05 l 94,94 h -58.15 a 47,47 0 1 0 0,94 h 18.91 l 47,47 h -63.8 a 94,94 0 0 1 -94,-94 c 0,-38.12 16.8,-68 56.99,-84 z"
       id="path22" />
  </g>
</svg>
