<svg xmlns="http://www.w3.org/2000/svg" viewBox="0 0 18 18">
  <defs>
    <style>
      .cls-1 {
        opacity: 0.6;
      }

      .cls-2 {
        fill: #8997a5;
      }

      .cls-3 {
        fill: #c4cbd2;
      }
    </style>
  </defs>
  <g id="Symbol_35_2" data-name="Symbol 35 – 2" transform="translate(-162 -536)">
    <g id="Group_638" data-name="Group 638" class="cls-1" transform="translate(162 536)">
      <path id="XMLID_3_" class="cls-2" d="M41.669,39.824h0a1.324,1.324,0,0,0-1.575.23,1.34,1.34,0,0,0-.23,1.58A10.526,10.526,0,0,1,41.669,39.824Z" transform="translate(-37.585 -37.544)"/>
      <path id="XMLID_2_" class="cls-2" d="M100,101.89l10.379,10.379a1.336,1.336,0,0,0,1.89-1.89L101.89,100Z" transform="translate(-94.661 -94.661)"/>
      <path id="XMLID_1_" class="cls-3" d="M3.924,6.754l.945.945.47-.47,1.89-1.89L7.7,4.864l-.945-.945.459-.47L10.656,0h0A10.6,10.6,0,0,0,5.243,1.479a10.845,10.845,0,0,0-1.159.8h0a10.719,10.719,0,0,0-1.8,1.81h0a10.468,10.468,0,0,0-.8,1.169A10.58,10.58,0,0,0,0,10.678L3.454,7.229Z"/>
    </g>
  </g>
</svg>
