<svg viewBox="0 0 18 18" xmlns="http://www.w3.org/2000/svg">
	<g opacity=".6">
		<path d="m41.669 39.824a1.324 1.324 0 0 0 -1.575.23 1.34 1.34 0 0 0 -.23 1.58 10.526 10.526 0 0 1 1.805-1.81z" fill="#8997a5" transform="translate(-37.585 -37.544)"/>
		<path d="m100 101.89 10.379 10.379a1.336 1.336 0 0 0 1.89-1.89l-10.379-10.379z" fill="#8997a5" transform="translate(-94.661 -94.661)"/>
		<path d="m3.924 6.754.945.945.47-.47 1.89-1.89.471-.475-.945-.945.459-.47 3.442-3.449a10.6 10.6 0 0 0 -5.413 1.479 10.845 10.845 0 0 0 -1.159.8 10.719 10.719 0 0 0 -1.8 1.81 10.468 10.468 0 0 0 -.8 1.169 10.58 10.58 0 0 0 -1.484 5.42l3.454-3.449z" fill="#c4cbd2"/>
	</g>
</svg>
