<svg enable-background="new" height="431.17068" viewBox="0 0 360.6307 414.75588" width="374.90338" xmlns="http://www.w3.org/2000/svg">
	<g transform="matrix(.93814295 .3462482 -.3462482 .93814295 64.358422 -52.474978)">
		<path d="m112.75277 53.701853c39.05233 24.798666 78.10467 49.597327 117.157 74.395997 9.67785 5.26061 22.58502.6152 27.31795-9.17063 4.10255-6.23754 8.96221-13.06828 7.15545-20.989392-.99367-7.627198-7.0952-12.822941-13.43641-16.318271-36.79968-23.347637-73.56286-46.754378-110.38537-70.065043-9.55706-5.7648494-22.98059-1.500089-27.88333 8.41475-3.95327 6.161737-8.92983 12.682092-7.49678 20.495182.65865 5.180576 3.42883 10.0517 7.57149 13.237407z" fill="#2ed6a1"/>
		<path d="m434.0888 329.35906c.87751-19.89028-13.33541-35.95085-29.83504-44.97045-56.67975-39.92862-117.44379-73.59078-178.80121-105.69624-3.09117 12.12371-23.60825-.11084-25.01395-5.96837 4.8038-12.58426 24.63919-28.52423 19.56582-38.90347-37.83162-24.02339-75.66324-48.046772-113.49487-72.070156-20.314667 31.991332-40.629332 63.982666-60.944 95.973996 39.052335 24.79833 78.10467 49.59667 117.157 74.395 9.27099-10.94457 16.67876-33.6598 27.14188-37.07325 8.36057 7.32116 18.62189 11.38785 14.29402 22.11272 59.73003 45.39191 121.0772 89.7069 187.5091 125.09053 13.87068 5.76904 34.53657 3.48569 42.21936-10.58164z" fill="#2971ff"/>
		<path d="m13.049405 209.34927c38.27377 24.28332 76.510814 48.62614 114.807555 72.87225 9.55704 5.76322 22.98156 1.50208 27.88392-8.4138 3.95204-6.16298 8.93004-12.68324 7.4969-20.49684-.70892-7.32896-6.06331-12.99961-12.33569-16.26199-37.4639-23.78987-74.92779-47.57975-112.391685-71.36962-9.678272-5.25976-22.586134-.61474-27.318619 9.17183-4.1004978 6.23869-8.9624623 13.06822-7.1557786 20.98954.9277941 5.50866 4.276229 10.543 9.0133976 13.50863z" fill="#2ed6a1"/>
	</g>
</svg>
