<?xml version="1.0" encoding="UTF-8" standalone="no"?>
<svg
   xmlns:dc="http://purl.org/dc/elements/1.1/"
   xmlns:cc="http://creativecommons.org/ns#"
   xmlns:rdf="http://www.w3.org/1999/02/22-rdf-syntax-ns#"
   xmlns:svg="http://www.w3.org/2000/svg"
   xmlns="http://www.w3.org/2000/svg"
   xmlns:sodipodi="http://sodipodi.sourceforge.net/DTD/sodipodi-0.dtd"
   xmlns:inkscape="http://www.inkscape.org/namespaces/inkscape"
   version="1.1"
   id="svg56160"
   viewBox="0 0 20 20"
   height="20"
   width="20"
   inkscape:version="0.91 r13725"
   sodipodi:docname="search_dark-theme.svg">
  <sodipodi:namedview
     pagecolor="#ffffff"
     bordercolor="#666666"
     borderopacity="1"
     objecttolerance="10"
     gridtolerance="10"
     guidetolerance="10"
     inkscape:pageopacity="0"
     inkscape:pageshadow="2"
     inkscape:window-width="1920"
     inkscape:window-height="1027"
     id="namedview57490"
     showgrid="false"
     inkscape:zoom="11.8"
     inkscape:cx="10.254237"
     inkscape:cy="10"
     inkscape:window-x="0"
     inkscape:window-y="0"
     inkscape:window-maximized="1"
     inkscape:current-layer="svg56160" />
  <defs
     id="defs56162" />
  <metadata
     id="metadata56165">
    <rdf:RDF>
      <cc:Work
         rdf:about="">
        <dc:format>image/svg+xml</dc:format>
        <dc:type
           rdf:resource="http://purl.org/dc/dcmitype/StillImage" />
        <dc:title></dc:title>
      </cc:Work>
    </rdf:RDF>
  </metadata>
  <g
     transform="translate(0,-1032.3622)"
     id="layer1"
     style="fill:#fbfbfb;fill-opacity:1;stroke:#fbfbfb;stroke-opacity:1">
    <path
       id="path56719"
       d="m 16.533038,1049.7339 c -0.04529,-0.011 -0.130349,-0.044 -0.189018,-0.072 -0.09956,-0.048 -0.215499,-0.1602 -1.739156,-1.6819 l -1.632482,-1.6304 -0.123809,0.094 c -0.935798,0.7063 -2.029314,1.1429 -3.2347263,1.2915 -0.3269303,0.04 -1.1730096,0.04 -1.496392,0 -1.2900757,-0.1605 -2.4363289,-0.6397 -3.416721,-1.4288 -1.3916473,-1.12 -2.2489324,-2.707 -2.4460073,-4.5281 -0.02678,-0.2475 -0.026331,-1.0261 7.194e-4,-1.2838 0.1295675,-1.233 0.5693768,-2.3655 1.2938421,-3.3314 1.0060845,-1.3413 2.4725873,-2.2509 4.1113538,-2.5499 0.47034,-0.086 0.6003113,-0.096 1.1971129,-0.096 0.5984056,0 0.7551596,0.012 1.2128654,0.096 1.905773,0.3497 3.583737,1.5375 4.547941,3.2192 0.460822,0.8038 0.744543,1.6893 0.848729,2.6488 0.03174,0.2922 0.03591,0.9531 0.0078,1.2418 -0.111373,1.1464 -0.472957,2.1699 -1.096574,3.104 -0.08226,0.1232 -0.14957,0.2292 -0.14957,0.2355 0,0.011 0.710729,0.7265 1.579397,1.6005 0.868668,0.874 1.601369,1.6174 1.628222,1.6521 0.12042,0.1554 0.181203,0.3377 0.181203,0.5434 0,0.2461 -0.07688,0.4332 -0.255005,0.6208 -0.219026,0.2306 -0.532071,0.3265 -0.829811,0.2544 z m -7.0368317,-3.7866 c 0.5509367,-0.085 1.0108707,-0.225 1.4801437,-0.4505 1.508606,-0.7249 2.565161,-2.1393 2.824904,-3.7816 0.22646,-1.432 -0.15563,-2.8659 -1.063971,-3.9928 -0.784511,-0.9733 -1.885093,-1.6167 -3.1234363,-1.8258 -0.6198305,-0.105 -1.3433386,-0.082 -1.9846892,0.064 -1.4895891,0.3377 -2.7824849,1.3833 -3.4484598,2.789 -0.7136906,1.5062 -0.6280762,3.2981 0.2262183,4.7345 0.2409199,0.4051 0.4948542,0.7247 0.8517766,1.072 0.7864574,0.7653 1.7880732,1.2515 2.8745135,1.3953 0.2765144,0.037 0.2937854,0.037 0.7403196,0.032 0.3202947,0 0.4651741,-0.012 0.6226806,-0.037 z"
       style="fill:#fbfbfb;fill-opacity:1;stroke:#fbfbfb;stroke-width:0.66977859;stroke-miterlimit:4;stroke-dasharray:none;stroke-opacity:1" />
  </g>
</svg>
