<svg viewBox="0 0 18 15.747" xmlns="http://www.w3.org/2000/svg">
	<path d="m1.268 278.373h14.078v-.009h.4l2.254-3.364h-3.373v1.664h-3.14a3 3 0 0 0 -4.966 0h-3.139v-1.664h-1.124l-2.258 3.378h1.268z" fill="#8997a5" transform="translate(0 -262.631)"/>
	<path d="m78.344 14.033a3 3 0 0 1 4.966 0h3.139v-14.033h-2.627v.018a3 3 0 0 1 -5.991 0v-.018h-2.631v14.033zm2.478-9.526a3.364 3.364 0 1 1 -3.364 3.364 3.365 3.365 0 0 1 3.364-3.364z" fill="#c4cbd2" transform="translate(-71.818)"/>
	<circle cx="3.364" cy="3.364" fill="#8997a5" r="3.364" transform="matrix(.70710678 -.70710678 .70710678 .70710678 4.249 7.87)"/>
</svg>
