<svg viewBox="0 0 18 15.48" xmlns="http://www.w3.org/2000/svg">
	<g opacity=".75">
		<path d="m434.53 21.62h13.86v-.99a1.577 1.577 0 0 0 -1.53-1.53h-12.33a1.549 1.549 0 0 0 -1.53 1.26 1.561 1.561 0 0 0 1.53 1.26z" fill="#c4cbd2" opacity=".5" transform="translate(-433 -19.1)"/>
		<path d="m449.38 21.76h-14.85a1.549 1.549 0 0 1 -1.53-1.26v.09.09 12.51a1.577 1.577 0 0 0 1.53 1.53h14.94a1.577 1.577 0 0 0 1.53-1.53v-1.62a3.24 3.24 0 0 1 0-6.48v-1.62a1.584 1.584 0 0 0 -1.62-1.71z" fill="#8795a2" transform="translate(-433 -19.24)"/>
		<path d="m449.4 29.33a3.914 3.914 0 0 0 3.93 3.93v-7.86a3.914 3.914 0 0 0 -3.93 3.93z" fill="#c4cbd2" opacity=".5" transform="translate(-435.33 -19.73)"/>
	</g>
</svg>
