<?xml version="1.0" encoding="UTF-8" standalone="no"?>
<svg
   xmlns:dc="http://purl.org/dc/elements/1.1/"
   xmlns:cc="http://creativecommons.org/ns#"
   xmlns:rdf="http://www.w3.org/1999/02/22-rdf-syntax-ns#"
   xmlns:svg="http://www.w3.org/2000/svg"
   xmlns="http://www.w3.org/2000/svg"
   height="24"
   width="110"
   version="1.1"
   id="svg60747"
   viewBox="0 0 110 24">
  <metadata
     id="metadata60773">
    <rdf:RDF>
      <cc:Work
         rdf:about="">
        <dc:format>image/svg+xml</dc:format>
        <dc:type
           rdf:resource="http://purl.org/dc/dcmitype/StillImage" />
        <dc:title>transparent background - primary - positive - full color</dc:title>
      </cc:Work>
    </rdf:RDF>
  </metadata>
  <defs
     id="defs60749">
    <style
       id="style60751">.a{fill:#2970ff;}.b{fill:#2dd8a3;}.c{fill:#091440;}</style>
    <linearGradient
       gradientTransform="matrix(0.08297517,0,0,0.08297517,-16.641724,-9.4349835)"
       y2="211.71001"
       y1="297.94"
       x2="515.40002"
       x1="366.04001"
       gradientUnits="userSpaceOnUse"
       id="b">
      <stop
         id="stop61979"
         stop-color="#36bdba"
         offset="0" />
      <stop
         id="stop61981"
         stop-color="#39d8aa"
         offset=".93" />
    </linearGradient>
    <linearGradient
       gradientTransform="matrix(0.08297517,0,0,0.08297517,-16.641724,-9.4349835)"
       y2="210.14999"
       y1="331.84"
       x2="364.47"
       x1="242.78"
       gradientUnits="userSpaceOnUse"
       id="a">
      <stop
         id="stop61974"
         stop-color="#2576f4"
         offset=".2" />
      <stop
         id="stop61976"
         stop-color="#3298da"
         offset="1" />
    </linearGradient>
  </defs>
  <title
     id="title60753">transparent background - primary - positive - full color</title>
  <path
     d="m 7.5554956,7.2222826 -4.8747905,-4.874792 5.2647754,0 7.7996635,7.7996664 -5.264776,0 a 3.8998335,3.8998335 0 1 0 0,7.799666 l 1.949918,0 3.899834,3.899834 -5.849752,0 A 7.7996667,7.7996667 0 0 1 2.6807051,14.046989 c 0,-3.163014 1.5599325,-5.7128394 4.8747905,-6.8247064 z"
     id="path61985"
     style="fill:url(#a)" />
  <path
     d="m 21.204911,16.971864 4.874791,4.874793 -5.264775,0 -7.799665,-7.799668 5.264775,0 a 3.8998336,3.8998336 0 0 0 0,-7.7996654 l -1.949917,0 -3.899834,-3.899833 5.849751,0 a 7.7996667,7.7996667 0 0 1 7.799665,7.7996664 c 0,3.163012 -1.559933,5.712839 -4.874791,6.824707 z"
     id="path61987"
     style="fill:url(#b)" />
  <g
     transform="matrix(0.08297517,0,0,0.08297517,-16.641724,-9.4349835)"
     id="g61989"
     style="fill:#212529;fill-opacity:1">
    <path
       style="fill:#212529;fill-opacity:1"
       d="m 914,305.75 0,-0.4 c 0,-41.67 32,-74.35 75.32,-74.35 29.21,0 48,12.26 60.66,29.82 l -29.82,23.08 c -8.17,-10.22 -17.56,-16.75 -31.24,-16.75 -20,0 -34.12,17 -34.12,37.79 l 0,0.41 c 0,21.44 14.1,38.19 34.12,38.19 14.9,0 23.69,-7 32.27,-17.36 l 29.81,21.24 c -13.48,18.59 -31.66,32.27 -63.32,32.27 -40.84,0 -73.68,-31.24 -73.68,-73.94 z"
       id="path61991" />
    <path
       style="fill:#212529;fill-opacity:1"
       d="m 1065.13,232.84 68.09,0 c 22,0 37.23,5.73 46.9,15.6 8.44,8.23 12.75,19.34 12.75,33.54 l 0,0.41 c 0,22 -11.72,36.61 -29.62,44.23 l 34.36,50.22 -46.08,0 -29,-43.64 -17.53,0 0,43.64 -39.91,0 z m 66.24,69.09 c 13.58,0 21.39,-6.59 21.39,-17.08 l 0,-0.41 c 0,-11.31 -8.23,-17.07 -21.59,-17.07 l -26.17,0 0,34.56 z"
       id="path61993" />
    <path
       style="fill:#212529;fill-opacity:1"
       d="m 1211.6,232.84 115.81,0 0,33.94 -76.31,0 0,21.8 69.11,0 0,31.48 -69.11,0 0,22.83 77.34,0 0,33.95 -116.84,0 z"
       id="path61995" />
    <path
       style="fill:#212529;fill-opacity:1"
       d="m 1349.34,232.84 55.54,0 c 51.42,0 81.25,29.62 81.25,71.17 l 0,0.42 c 0,41.55 -30.24,72.41 -82.08,72.41 l -54.71,0 z m 56.16,108.61 c 23.86,0 39.7,-13.16 39.7,-36.41 l 0,-0.41 c 0,-23 -15.84,-36.41 -39.7,-36.41 l -16.25,0 0,73.23 z"
       id="path61997" />
    <path
       style="fill:#212529;fill-opacity:1"
       d="m 832.56,379.53 c -42.27,0 -72.94,-31.14 -72.94,-74 0,-42.37 29.81,-74.33 69.36,-74.33 21.18,0 38.77,7.89 50.86,22.82 11,13.61 17.11,32.79 17.11,54 0,2.45 -0.18,4.72 -0.4,7.31 l -107.46,0 0.34,2.08 c 3.86,23.72 20.6,38.46 43.68,38.46 15.19,0 27.08,-5 39.49,-16.73 l 17,15.11 c -14.75,16.99 -33.43,25.28 -57.04,25.28 z M 828.7,254.87 c -20.78,0 -36.31,15.66 -39.56,39.89 l -0.27,2 78.77,0 -0.2,-2 c -2.53,-24.58 -17.37,-39.89 -38.74,-39.89 z"
       id="path61999" />
    <path
       style="fill:#212529;fill-opacity:1"
       d="m 659.23,379.53 c -32.81,0 -66,-25.53 -66,-74.33 0,-48.8 33.21,-74.34 66,-74.34 19.5,0 35.34,8.2 48.41,25 l 3.22,4.15 0,-93.1 29.9,0 0,209.93 -29.9,0 0,-28.56 -3.26,4.6 c -12.72,17.93 -28.54,26.65 -48.37,26.65 z m 8,-123.19 c -25.83,0 -43.87,20.09 -43.87,48.86 0,28.31 18.45,48.86 43.87,48.86 25.17,0 44.15,-21 44.15,-48.86 0,-27.86 -18.95,-48.86 -44.12,-48.86 z"
       id="path62001" />
  </g>
</svg>
