<svg version="1" xmlns="http://www.w3.org/2000/svg" width="1504" height="1504" viewBox="0 0 1128.000000 1128.000000"><path d="M1 94.5c0 .3 52.4 52.9 116.5 117S234 328.4 234 328.9s-1.5 1.3-3.2 1.6c-1.8.4-3.8 1.1-4.4 1.6-.6.5-1.9 1-3 1.2-1 .2-3.6 1.1-5.8 2-2.1.9-4.2 1.7-4.7 1.7s-1.7.4-2.7 1c-.9.5-3.9 1.9-6.7 3-11.8 5-29.2 13.6-38.5 18.9-3 1.8-6.3 3.5-7.2 3.8-1 .3-1.8.9-1.8 1.4 0 .5-.6.9-1.3.9-.7 0-2.3.9-3.5 2-1.2 1.2-2.2 1.8-2.2 1.5 0-.3-1.5.5-3.3 1.9-1.9 1.5-3.9 2.6-4.5 2.6-.7 0-1.2.3-1.2.7 0 .5-2.5 2.4-5.5 4.3s-5.4 3.8-5.5 4.2c0 .5-.5.8-1 .8-.6 0-1.8.8-2.9 1.7-1 1-3.3 2.9-5.1 4.3-1.9 1.4-3.8 2.9-4.5 3.5-.6.5-4 3.5-7.5 6.5-8.2 6.9-26 24.8-26 26.1 0 .5-.4.9-.8.9-1.4 0-22.2 26.2-22.2 28 0 .5-.4 1-1 1-.5 0-1 .7-1 1.5s-.4 1.5-1 1.5c-.5 0-1 .7-1 1.5s-.4 1.5-.9 1.5-1.6 1.5-2.4 3.3c-.9 1.8-2.8 5-4.3 7.2C43.7 478 30 504.8 30 506.6c0 .8-.5 1.4-1.2 1.4-.6 0-.9.3-.5.6.3.3-.4 2.7-1.5 5.2-4.8 11-14.7 41.6-16.2 50.2-.2 1.4-1 4.7-1.6 7.5-.6 2.7-1.4 6-1.6 7.2-.2 1.3-.6 3.5-.9 5-.3 1.6-.8 4.4-1.1 6.3-.2 1.9-.7 4.6-.9 6-.3 1.4-.8 4.7-1.1 7.5-.3 2.7-.7 6.1-1 7.5-2.4 14.9-2.4 82.9 0 86.8.3.6.6 2.1.5 3.3-.1 2.7.8 10.2 1.7 13.9.3 1.4.7 3.6.9 5 1.2 7.6 1.5 9.7 2 11.5.2 1.1 1.1 5.4 2 9.5.9 4.1 1.8 8.1 2 8.8.3.7.5 1.4.5 1.7.1.3.6 1.9 1.1 3.7 1 3 2.2 7.5 3.3 11.8.3.8 1.9 5.5 3.6 10.5 1.8 4.9 3.7 10.7 4.3 12.8.6 2 1.5 3.7 1.9 3.7.4 0 .8.9.8 2s.4 2.8.9 3.8c.5.9 2 4.2 3.3 7.2 6 13.3 19.3 39.6 20.8 41 .3.3 1.2 1.8 2 3.4 2.9 5.6 3.5 6.6 4.2 6.6.5 0 .8.4.8.9 0 1.2 8.1 13.5 9.2 13.9.4.2.8.9.8 1.5 0 .7 1 2.4 2.3 3.9 5.1 6.1 5.7 6.9 5.7 7.4 0 .4 1.4 2.3 3 4.3 1.7 2 3.4 4.1 3.9 4.6 3 4 14.5 17.1 19.5 22.3 10 10.5 17.3 17.4 28.1 26.7 3.2 2.7 6.4 5.6 7.1 6.3.7.6 1.7 1.2 2.2 1.2.6 0 1.2.3 1.4.7.2.5 3 2.8 6.3 5.3s6.2 4.8 6.3 5.2c.2.5.8.8 1.3.8s3.9 2.3 7.7 5c3.8 2.8 7.4 5 8 5 .7 0 1.2.4 1.2.8 0 .5 1.2 1.5 2.8 2.3 1.5.8 6.2 3.5 10.5 6.1 4.2 2.6 7.7 4.4 7.7 4.1 0-.3.8.1 1.8.9.9.9 4.4 2.9 7.7 4.4 3.3 1.6 6.2 3.2 6.3 3.7.2.4.8.5 1.3.1.5-.3.9 0 .9.5 0 .6.6 1.1 1.4 1.1.7 0 5.1 1.7 9.7 3.8 8.6 4 11.8 5.4 13.2 5.7.4.2.9.4 1.2.5.3.1.8.3 1.3.5.4.1 2.1.7 3.7 1.4 3.7 1.6 13.3 5 16 5.7 1.1.3 2.9 1 4 1.5s2.9 1.1 4 1.2c1.1.2 2.7.7 3.5 1 1.8.8 24.9 6.8 27 7.1.8.1 3.1.5 5 .9s4.6.9 6 1.1c1.4.3 2.5.5 2.5.7 0 .1.9.3 2 .4 1.1.1 3.7.5 5.8.9 2.1.3 5.9.9 8.5 1.2 2.6.3 6.5.8 8.7 1 2.2.3 6 .8 8.5 1.1 5.9.8 313 1.6 313 .8 0-.3-42.1-42.6-93.5-94L470 846l-21.8-.1c-11.9-.1-22.1 0-22.7.1-2.8.6-69.6-.7-73-1.4-1.6-.4-5.5-1.1-8.5-1.7-9-1.7-10.2-1.9-18-4-7.1-1.8-9.9-2.8-19.5-6.8-2.1-.9-4.2-1.6-4.5-1.6-1.6-.2-22.4-10.9-24-12.5-.3-.3-2.1-1.4-4-2.4-3.8-2.1-17.7-12.6-23-17.2-3.7-3.3-7.6-7.2-13.5-13.5-4.7-4.9-17.8-22.2-19.7-25.9-.7-1.4-2.3-4.1-3.6-6-1.3-1.9-3.9-6.9-5.8-11-2-4.1-4-8.3-4.5-9.3-.5-.9-1.9-4.3-3-7.5a641 641 0 0 0-2.6-7.2c-.4-.8-.7-1.7-.8-2-.1-.3-.5-1.2-.8-2-.9-2.2-4.9-19-5.3-22.5-.2-1.6-.6-3.7-.9-4.5-1.9-6.3-2.7-40.2-1.2-49.5.3-2.2.9-6.3 1.2-9 .4-2.8 1-6.4 1.5-8 .5-1.7 1.1-4.1 1.4-5.5.3-1.4.7-3.4 1-4.5.3-1.1 1-4 1.6-6.5.6-2.4 1.5-4.9 2-5.5.4-.5 1.5-3.3 2.3-6.1.8-2.8 2-6 2.6-7 .6-1.1 2.6-5.4 4.6-9.7 1.9-4.3 4.8-9.8 6.5-12.1 1.6-2.4 2.6-4.6 2.3-5-.4-.3-.1-.6.5-.6.7 0 1.2-.5 1.2-1.1 0-.6.9-2.3 2-3.7 1.2-1.5 4.6-6.1 7.7-10.2 8.8-11.7 20.7-23.9 30.5-31.2 2.9-2.2 6.2-4.7 7.3-5.7 3.2-2.7 17.1-11.1 18.3-11.1.7 0 1.2-.4 1.2-.8 0-.9 12.8-7.2 14.4-7.2.5 0 1.7-.7 2.6-1.5.9-.8 2.7-1.7 4.1-1.9 1.3-.2 2.5-.5 2.7-.7.1-.1.5-.2 1-.4.4-.1 2-.7 3.5-1.3 1.6-.7 3.4-1.2 4.1-1.2.7 0 1.6-.3 2-.7.3-.4 1.2-.8 1.9-.9.7-.1 4.6-1.1 8.7-2.2 8.5-2.4 11.6-3 18-3.7 2.5-.3 5.3-.8 6.3-1.1 1-.3 5.9-.7 10.9-.9 5-.2 9.3-.6 9.6-.9.3-.3 1.1-.1 1.9.5.9.9 1.3.8 1.3 0 0-.9.5-.9 2-.1 1.4.8 2 .8 2 0s.6-.8 2 0 2 .8 2 0 .6-.8 2 0 2 .8 2 0 .6-.8 2 0 2 .8 2 0 .6-.8 2 0c1.1.6 2 .7 2 .3 0-.4 3.6-.6 8-.3s8 .1 8-.3.9-.3 2 .3 2 .7 2 .3c0-.4 3.6-.6 8-.3s8 .1 8-.3.9-.3 2 .3c1.4.8 2 .8 2 0s.6-.8 2 0 2 .8 2 0 .6-.8 2 0 2 .8 2 0 .6-.8 2 0 2 .8 2 0 .6-.8 2 0 2 .8 2 0 .6-.8 2 0 2 .8 2 0 .6-.8 2 0c1.1.6 2 .7 2 .3 0-.4 3.6-.6 8-.3s8 .1 8-.3.9-.3 2 .3 2 .7 2 .3c0-.4 3.6-.6 8-.3s8 .1 8-.3.9-.3 2 .3c1.4.8 2 .8 2 0s.6-.8 2 0 2 .8 2 0 .6-.8 2 0c1.1.6 2 .7 2 .3 0-.4 3.6-.6 8-.3s8 .1 8-.3.9-.3 2 .3 2 .7 2 .3c0-.4 6.3-.6 14-.3s14 .1 14-.3.9-.3 2 .3 2 .7 2 .3c0-.4 4.5-.6 10-.3s10 .1 10-.3.9-.3 2 .3 2 .7 2 .2c0-.4 2.7-.5 6-.2s6 .2 6-.2c0-.5.9-.4 2 .2 1.1.6 2 .7 2 .2 0-.5 1.8-.6 4-.2 2.2.4 4 .3 4-.2s.9-.4 2 .2c1.5.8 2 .8 2-.1s.3-.9 1.4 0c1 .8 1.6.9 2.1.1.4-.7 1.2-.7 2.5 0 1 .6 2.1.6 2.4.2.3-.5 2-.6 3.8-.4 3 .5 3.2.4 1.9-1.2-.8-1-85.4-85.7-187.9-188.2L253.8 94H127.4C57.9 94 1 94.2 1 94.5z"/><path d="M563.9 187.9l94 94 56.8.4c31.2.2 57.8.6 59 1 1.1.3 4.3.9 7 1.2 2.6.4 8.4 1.6 12.8 2.7s8.9 2.1 10 2.2c1.1.2 3.3.8 4.8 1.4 1.6.7 3 1.2 3.3 1.2 1.6 0 21.4 8.4 21.4 9.1 0 .5.8.9 1.8.9 2.4 0 21.2 11.3 30.5 18.3 8.9 6.7 10.4 8.1 19.2 16.7 7.3 7.1 7.8 7.7 13.5 15 1.9 2.5 3.7 4.7 4 5 1.2 1.2 9 12.9 9 13.5 0 .3 1.3 2.6 2.9 4.9 6.8 9.9 16.6 34 20.6 50.6 1.6 6.9 2.5 11.2 3.1 15.5.3 2.7 1 7.2 1.4 10 1.3 8.1.4 37-1.5 47-.9 4.9-1.8 9.9-1.9 11-.1 1.1-.8 4-1.5 6.5s-1.3 4.7-1.3 5c0 3.9-16 41-18 41.8-.4.2-.8.8-.8 1.4 0 1-10.6 17.6-12 18.8-.3.3-2.1 2.5-4 5-8.4 10.9-19.6 21.9-31 30.4-3 2.3-5.6 4.4-5.8 4.8-.2.5-1 .8-1.8.8s-1.4.4-1.4 1c0 .5-.7 1-1.5 1s-1.5.4-1.5 1c0 .5-.4 1-.9 1s-4 1.9-7.7 4.1c-5.5 3.4-18.3 9.9-20.4 10.4-.3 0-1.5.6-2.7 1.3-1.2.6-3 1.3-4 1.5-1 .2-3.1.9-4.8 1.6-1.6.7-7 2.4-12 3.7-14.5 4-16 4.3-22 4.8-2.4.2-4.7.5-5.1.8-1.6.8-7.7 1.2-18.6 1.2-6 .1-10.8.5-10.8.9s-.9.3-2-.3-2-.7-2-.3c0 .4-5.4.6-12 .3s-12-.1-12 .3-.9.3-2-.3-2-.7-2-.2c0 .5-1.8.6-4 .2-2.2-.4-4-.3-4 .2s-.9.4-2-.2c-1.1-.6-2-.7-2-.2 0 .5-1.8.6-4 .2-2.2-.4-4-.3-4 .2s-.9.4-2-.2c-1.1-.6-2-.7-2-.3 0 .4-5.4.6-12 .3s-12-.1-12 .3-.9.3-2-.3-2-.7-2-.2c0 .4-2.7.5-6 .2s-6-.2-6 .2c0 .5-.9.4-2-.2-1.1-.6-2-.7-2-.2 0 .4-2.7.5-6 .2s-6-.2-6 .2c0 .5-.9.4-2-.2-1.1-.6-2-.7-2-.2 0 .4-2.7.5-6 .2s-6-.2-6 .2c0 .5-.9.4-2-.2-1.1-.6-2-.7-2-.3 0 .4-5.4.6-12 .3s-12-.1-12 .3-.9.3-2-.3-2-.7-2-.2c0 .5-1.8.6-4 .2-2.2-.4-4-.3-4 .2s-.9.4-2-.2c-1.1-.6-2-.7-2-.2 0 .5-1.8.6-4 .2-2.2-.4-4-.3-4 .2s-.9.4-2-.2c-1.1-.6-2-.7-2-.3 0 .4-5.4.6-12 .3s-12-.1-12 .3-.9.3-2-.3-2-.7-2-.2c0 .4-2.7.5-6 .2s-6-.2-6 .2c0 .5-.9.4-2-.2-1.1-.6-2-.7-2-.3 0 .9-7.4.8-8.9-.2-.6-.3-1.1-.1-1.1.5 0 .7-.6.8-1.7.2-1-.5-3.1-.6-4.7-.3-2.8.6 6.2 9.7 184.9 188.3L874.2 1034H1128l-117-117c-64.4-64.4-117-117.5-117-118 0-.6.5-1 1-1 1.5 0 18.5-6.4 30-11.2 11.5-4.9 34.3-16.2 42.8-21.3 14.9-8.9 24.5-15.3 25-16.7.2-.4.8-.8 1.3-.8 1 0 6.1-3.5 8.9-6 .9-.8 3.1-2.6 5-4 1.8-1.4 4.4-3.4 5.6-4.5 1.2-1.1 4.2-3.6 6.5-5.5 5.5-4.4 21.9-20.9 28.4-28.4 2.8-3.2 5.5-6.3 6-6.9 2.5-2.8 14.5-18.9 16.1-21.7 1-1.6 2.2-3 2.6-3 .4 0 .8-.4.8-.8 0-.5 3-5.8 6.6-11.8 3.6-6 7.3-12.6 8.1-14.7.8-2 1.9-3.7 2.4-3.7s.9-.7.9-1.5.8-2.9 1.8-4.7c1-1.8 4.2-9.2 7.1-16.3 3-7.2 5.8-13.9 6.3-15 .5-1.2 1-2.7 1.2-3.5.2-1.5 2.3-8.3 3.3-11 .3-.8.7-2 .8-2.5.2-.6 1-3.7 1.9-7 3.5-12.3 8.1-34.5 9.1-43.5.2-1.9.6-5.3.9-7.5.3-2.2.8-5.6 1.1-7.5 2.6-19.8 2.7-70.5 0-89-.3-1.9-.8-5.8-1.1-8.5-.7-6.2-1.2-9-1.4-9-.1 0-.3-1.1-.4-2.5-.2-1.4-.6-3.9-.9-5.5-.4-1.7-.9-4.4-1.2-6-.5-3.1-5.8-24.2-7.6-30.5-.6-1.9-1.1-4.1-1.1-4.8-.1-.6-.5-1.2-1-1.2s-.7-.4-.4-.8c.5-.9-1.6-7.7-2.7-8.8-.4-.4-.7-1.4-.7-2.2 0-6.2-28.5-67.4-34.6-74.3-.8-.8-1.4-2.1-1.4-2.7 0-.7-.4-1.2-1-1.2-.5 0-1-.4-1-1 0-1.1-12.2-19.3-13.2-19.8-.5-.2-.8-.8-.8-1.3s-.8-1.8-1.7-2.8c-1-1.1-2.3-2.6-2.8-3.3-6.4-8.4-8.8-11.3-13.9-17.3-5.2-6.1-9.2-10.5-14.9-16.5-.8-.8-5.2-5.1-9.8-9.5-7.5-7.1-10.7-10-20.9-18.6-1.4-1.2-5.9-4.7-10-7.8-4.1-3.1-7.6-5.9-7.8-6.4-.2-.4-1-.7-1.7-.7s-1.5-.3-1.7-.8c-.3-.6-11.6-8.4-17.3-11.9-7.5-4.6-23-13.3-28-15.8-3.3-1.7-6.3-3.5-6.7-4-.5-.7-.8-.7-.8 0s-.3.7-.8 0c-.4-.6-2-1.5-3.7-2.2-2.8-1-19.6-8.3-24-10.3-3.1-1.4-16.7-6.1-19.5-6.7-1.4-.3-3-.9-3.6-1.4-.6-.5-2.1-1.1-3.5-1.3-1.3-.3-2.4-.5-2.4-.6 0-.1-1.1-.4-2.5-.7-3.9-.7-5.5-1.1-5.5-1.3 0-.1-.7-.3-1.5-.5s-4-1.1-7-2c-3-.8-6.8-1.7-8.5-2-1.6-.3-4.6-1-6.5-1.5-1.9-.5-5.5-1.2-7.9-1.5-2.3-.3-4.7-.7-5.1-1-.5-.3-2.8-.7-5.2-1-2.4-.2-5.9-.6-7.8-.9-1.9-.3-5.7-.8-8.5-1.2-2.7-.3-6.6-.8-8.5-1.1-1.9-.3-73.6-.8-159.3-1l-155.8-.4 94 94z"/></svg>