<?xml version="1.0" standalone="no"?>
<!DOCTYPE svg PUBLIC "-//W3C//DTD SVG 20010904//EN"
 "http://www.w3.org/TR/2001/REC-SVG-20010904/DTD/svg10.dtd">
<svg version="1.0" xmlns="http://www.w3.org/2000/svg"
 width="16.000000pt" height="16.000000pt" viewBox="0 0 16.000000 16.000000"
 preserveAspectRatio="xMidYMid meet">
<g transform="translate(0.000000,16.000000) scale(0.002286,-0.002286)"
fill="#000000" stroke="none">
<path d="M1058 5410 c-25 -5 -23 -8 50 -70 82 -70 169 -146 217 -189 17 -15
98 -85 180 -156 83 -71 152 -132 155 -135 5 -5 263 -228 307 -266 l23 -18
-104 -52 c-380 -188 -670 -530 -795 -939 -49 -162 -65 -272 -64 -456 1 -234
46 -437 142 -644 233 -499 721 -842 1268 -891 78 -7 1341 -9 1348 -2 3 2 -35
38 -83 80 -48 41 -125 108 -172 149 -267 232 -402 348 -455 395 -33 29 -71 62
-84 73 -23 20 -36 21 -235 22 -243 1 -288 4 -374 25 -298 74 -529 302 -608
599 -28 105 -26 313 4 418 96 337 379 574 722 604 47 5 356 8 688 7 331 0 602
2 601 5 0 3 -29 31 -65 61 -36 30 -75 64 -88 75 -13 11 -49 43 -81 70 -32 28
-63 55 -69 60 -6 6 -126 110 -266 232 -499 432 -666 576 -730 633 -36 31 -101
88 -145 126 -106 91 -123 106 -170 148 -22 19 -51 36 -65 36 -117 4 -1032 4
-1052 0z"/>
<path d="M3214 5408 c-2 -3 6 -15 19 -25 21 -16 134 -113 161 -138 6 -6 76
-67 155 -135 80 -69 217 -187 305 -264 89 -76 164 -143 167 -147 3 -5 120 -11
260 -13 278 -4 288 -5 403 -42 128 -42 216 -95 313 -191 131 -128 199 -252
238 -433 21 -98 14 -276 -14 -375 -93 -322 -367 -561 -692 -601 -29 -4 -339
-7 -686 -7 -558 -1 -631 -2 -620 -15 6 -9 75 -69 152 -136 77 -66 142 -123
145 -126 3 -3 34 -30 70 -60 36 -30 69 -60 75 -66 5 -6 111 -98 235 -205 124
-106 230 -198 236 -204 6 -5 39 -35 74 -65 35 -30 85 -73 110 -95 25 -22 75
-65 110 -95 35 -30 68 -60 74 -65 6 -6 58 -51 116 -100 58 -50 107 -92 110
-95 3 -3 36 -32 73 -65 l69 -59 544 1 c300 1 547 3 549 4 2 2 -65 63 -147 134
-168 145 -161 139 -248 215 -35 30 -79 69 -99 86 -20 17 -128 111 -241 209
-113 98 -206 182 -208 186 -2 4 36 26 84 50 299 145 558 403 709 706 55 111
120 301 131 382 3 25 8 48 9 51 6 10 17 134 19 220 4 119 -11 272 -36 365 -5
22 -12 50 -14 63 -9 47 -57 179 -95 261 -126 271 -334 502 -601 669 -97 61
-300 149 -381 166 -12 3 -65 14 -117 26 -52 11 -138 23 -190 26 -133 9 -1321
10 -1326 2z"/>
</g>
</svg>
