<svg height="381.4285" viewBox="0 0 653.79669 381.4285" width="653.79669" xmlns="http://www.w3.org/2000/svg">
	<path d="m644.28001 161.15849c-9.74 15.63-63.72-.42-120.56-35.85-56.85-35.419996-95.04-76.809996-85.3-92.439996s63.71.42 120.56 35.85c56.85 35.429996 95.04 76.819996 85.3 92.439996z" fill="#775447"/>
	<path d="m452.84001 55.908494c-4-8.5-7.21-20.31 12.31-18.32 16.09 1.65 41.11 14.51 41.11 14.51l95.68 63.959996s37.9 30.28 28.4 40.32-36-5.46-36-5.46z" opacity=".36"/>
	<path d="m558.98001 68.728494c32.54 20.27 58.96 42.499996 73.78 60.729996 1.6-4.39 2.88-8.94 3.72-13.67 8.69-48.959996-28.19-96.459996-82.38-106.0799957-30.89-5.48-60.71 2.5399997-82.28 19.5099997 22.91 5.25 54.56 19.19 87.16 39.51z" fill="#cca066"/>
	<g transform="translate(-181.56999 -330.57151)">
		<path d="m787.91 458.62c-4.16.36-10.03 2.05-14.36 8.04-2.56 3.54-4.2 8.1-4.9 13.57-.7 5.49 1.77 7.32 3.29 7.93 3.4 1.34 8.29-.87 11.38-5.14.74-1.03 1.36-2.14 1.84-3.31.44.06.88.14 1.27.23 3.1.77 5.8 2.11 7.44 3.69 2.2 2.13 3.93 6.01 5.31 11.83 1.79 7.56.8 11.04-.34 12.62-.08.11-.16.21-.25.31-.4.47-.79.96-1.16 1.46-3.4 4.7-4.31 9.71-2.42 13.4.95 1.86 2.79 3.13 4.93 3.39 2.59.31 5.23-.82 7.21-3.12.81-.94 1.59-1.92 2.31-2.91 14.42-19.93 7.34-45.59-3.06-55.7-4.54-4.41-11.8-6.87-18.49-6.29z" fill="#2ed6a1"/>
		<path d="m809.3 493.95c3.91-13.09-2.97-22.98-10.71-26.7-2.71-1.3-5.59 4.92-2.9 6.22 5.92 2.85 11.71 10.3 8.69 20.42-1.24 4.16 3.68 4.2 4.92.06z" fill="#fff" opacity=".21"/>
	</g>
	<g transform="translate(-181.56999 -330.57151)">
		<path d="m719.39 643.46c-1.02-3.28-1.88-6.85-2.57-10.74-1.4-9.09-4.12-17.25-4.12-26.77-23.12 6.8-65.28-13.6-76.23 7.49-.17.85-.31 1.7-.44 2.55l-.13 1.11c-.34 3.26-.55 6.59-.76 9.81l-.26 4.01c-.24 3.69-.5 7.61-1.12 11.45 11.2-.72 23.31-1.11 35.95-1.11 18 .01 34.93.8 49.68 2.2z" fill="none"/>
		<path d="m607.85 645.1c.39 0 .77-.01 1.16-.03.06-.03.29-.09.51-.15l.17-.17c.04-.06.06-.12.1-.18-1.18.14-2.33.29-3.47.45.41.04.85.07 1.29.08z" opacity=".39"/>
		<path d="m756.03 652.09c1.77 2.78 2.36 6.35 1.55 9.3-1.38 4.99-5.65 8.09-11.16 8.09-.83 0-1.67-.07-2.52-.22-10.59-1.85-18.37-9.22-23.22-21.99-.46-1.22-.89-2.5-1.3-3.82-14.75-1.4-31.67-2.19-49.67-2.19-12.64 0-24.75.39-35.95 1.11-.78 4.87-2.13 9.63-4.75 13.73-5.91 9.24-16.3 12.93-29.18 10.46-2.62-.5-4.92-2.15-6.47-4.64-1.73-2.78-2.27-6.2-1.46-9.15.73-2.67 2.35-4.83 4.54-6.25-18.77 3.25-30.38 7.74-30.38 12.71 0 9.92 46.4 17.97 103.65 17.97 57.24 0 103.65-8.04 103.65-17.97 0-4.14-8.08-7.95-21.66-10.99 1.71.77 3.21 2.08 4.33 3.85z" opacity=".39"/>
		<g fill="#2971ff">
			<path d="m687.79 382.66c-.08.18-.17.36-.26.54l.3-.52c-.02-.01-.03-.02-.04-.02z"/>
			<path d="m632.56 390.89c5.56-2.56 9.43-8.16 9.43-14.68h-4.04c0 6.88-4.31 12.75-10.37 15.08.44.04.88.07 1.33.07 1.25-.01 2.47-.18 3.65-.47z"/>
			<path d="m574.63 392.37c.7 0 1.38-.06 2.06-.15v-.87h1.02c1.27 0 2.49-.17 3.66-.47 5.56-2.56 9.42-8.16 9.42-14.68h-4.04c0 8.93-7.24 16.16-16.17 16.16l-40.41 117.2h41.72 3.51c-.5 0-.78 0-.78 0v-117.19z"/>
			<path d="m683.75 390.89c2.12-.98 3.99-2.39 5.5-4.14-1.59-.71-2.62-1.14-3.03-1.28l.04-.07c-1.84 2.65-4.44 4.71-7.5 5.89.44.04.88.07 1.33.07 1.27-.01 2.49-.18 3.66-.47z"/>
		</g>
		<path d="m632.56 390.89c6.59-1.64 11.48-7.59 11.48-14.68h-2.05c0 6.52-3.87 12.12-9.43 14.68z"/>
		<path d="m581.37 390.89c6.58-1.65 11.48-7.59 11.48-14.68h-2.06c0 6.52-3.86 12.12-9.42 14.68z"/>
		<path d="m683.75 390.89c2.53-.63 4.8-1.89 6.65-3.62-.41-.19-.79-.36-1.15-.52-1.51 1.75-3.38 3.16-5.5 4.14z"/>
		<path d="m576.69 392.23c-.67.09-1.36.15-2.06.15v117.2h.78 1.28z"/>
		<path d="m754.91 604.89 24.75-18.75 3.83-36.39s0-4.4 0-11.74c-.07-9.58-.07-20.46 0-29.33 0-2.93 0-5.96 0-9.05 0-15.77 0-33.33 0-49.63-43.01-37.71-80.63-57-93.1-62.73-1.85 1.72-4.12 2.99-6.65 3.62-1.17.29-2.4.47-3.66.47-.45 0-.89-.03-1.33-.07-7.73-.68-13.81-7.18-13.81-15.08v-1.02h-20.91v1.02c0 7.09-4.9 13.04-11.48 14.68-1.17.29-2.39.47-3.66.47-.45 0-.89-.03-1.33-.07-7.73-.68-13.81-7.18-13.81-15.08v-1.02h-20.9v1.02c0 7.08-4.9 13.03-11.48 14.68-1.18.29-2.4.47-3.66.47h-1.02v.87 117.34 95.32h38.84c-1.24 4.71-1.82 9.58-2.19 13.38-.28 2.85-.45 5.75-.63 8.56-.08 1.42-.17 2.84-.28 4.26-.14 1.95-.31 3.9-.53 5.84l-.03.27 1.01.11-1.07.21c-.16 1.01-.36 2-.59 3-.18.8-.41 1.59-.64 2.37l-.16.48c-.19.39-.39.79-.63 1.21-.03.06-.06.12-.1.18l-.17.17c-.22.06-.45.12-.51.15-.39.01-.78.03-1.16.03h-.24c-.44 0-.88-.04-1.29-.08-.07-.01-.15-.01-.22-.02l-.5-.1c-.86-.17-1.74-.25-2.6-.25-2.46 0-4.71.68-6.55 1.87-2.18 1.42-3.81 3.57-4.54 6.25-.81 2.95-.27 6.38 1.46 9.15 1.55 2.49 3.84 4.14 6.47 4.64 12.88 2.47 23.27-1.22 29.18-10.46 2.62-4.1 3.97-8.86 4.75-13.73.62-3.85.88-7.76 1.12-11.45l.26-4.01c.21-3.22.42-6.55.76-9.81l.13-1.11c.13-.85.27-1.7.44-2.55 10.96-21.09 53.11-.69 76.23-7.49 0 9.52 2.72 17.68 4.12 26.77.69 3.89 1.55 7.46 2.57 10.74.41 1.32.84 2.6 1.3 3.82 4.85 12.77 12.62 20.14 23.22 21.99.84.14 1.69.22 2.52.22 5.51 0 9.79-3.1 11.16-8.09.81-2.95.21-6.52-1.55-9.3-1.12-1.77-2.62-3.08-4.33-3.84-.66-.29-1.35-.52-2.06-.64-.33-.06-1.03-.27-1.68-.46-.47-.14-.91-.27-1.21-.35-.27-.17-.55-.35-.81-.5l-.48-.31-.59-.62c-.28-.29-.52-.55-.69-.71-.62-.92-1.18-1.88-1.68-2.83l-.29-.62c-.18-.43-.47-1.12-.57-1.4-.63-1.76-1.13-3.56-1.52-5.09-.92-3.52-1.56-7.13-2.12-10.52-.45-2.71-.82-5.49-1.2-8.43-.47-3.55-.94-7.2-1.57-10.8 0 0 4.9-.05 9.82-.08 4.91-.02 9.84-.02 9.84-.02zm23.78-19.29-24.13 18.28 27.91-54.12zm-55.77-143.84c5.07 0 9.19 4.11 9.19 9.18s-4.11 9.18-9.19 9.18c-5.07 0-9.18-4.11-9.18-9.18s4.11-9.18 9.18-9.18zm-33.62 35.15c5.64 10.81 2.63 18.34-6.31 25.89-10.67 9.01-20.76-2.16-24.11-12.57-2.29-7.14-1.06-15.69 4.68-20.89 10.1-9.15 20.54-2.39 25.74 7.57zm-51.8-25.97c0 5.07-4.11 9.18-9.18 9.18-5.08 0-9.19-4.11-9.19-9.18s4.11-9.18 9.19-9.18c5.07 0 9.18 4.11 9.18 9.18z" fill="#2ed6a1"/>
		<path d="m778.69 585.6 3.78-35.85-27.9 54.12z"/>
		<path d="m619.13 450.94c0 5.07 4.11 9.18 9.19 9.18 5.07 0 9.18-4.11 9.18-9.18s-4.11-9.18-9.18-9.18c-5.08 0-9.19 4.11-9.19 9.18zm12.74-6.03c.2-.2.92.19 1.61.87.68.68 1.08 1.4.88 1.6-.2.21-.92-.19-1.61-.87-.7-.68-1.08-1.4-.88-1.6zm-1.16 1.24c1.33 0 2.4 1.07 2.4 2.39s-1.07 2.39-2.4 2.39c-1.32 0-2.39-1.07-2.39-2.39s1.07-2.39 2.39-2.39z"/>
		<path d="m630.71 450.94c1.33 0 2.4-1.07 2.4-2.39s-1.07-2.39-2.4-2.39c-1.32 0-2.39 1.07-2.39 2.39s1.07 2.39 2.39 2.39z" fill="#fff"/>
		<path d="m634.35 447.38c.2-.2-.19-.92-.88-1.6-.69-.69-1.41-1.08-1.61-.87-.2.2.19.92.87 1.61.7.68 1.42 1.07 1.62.86z" fill="#fff"/>
		<path d="m722.92 460.12c5.07 0 9.19-4.11 9.19-9.18s-4.11-9.18-9.19-9.18c-5.07 0-9.18 4.11-9.18 9.18s4.11 9.18 9.18 9.18zm3.56-15.21c.2-.2.92.19 1.61.87s1.08 1.4.87 1.6c-.2.21-.92-.19-1.61-.87s-1.08-1.4-.87-1.6zm-1.16 1.24c1.32 0 2.4 1.07 2.4 2.39s-1.07 2.39-2.4 2.39-2.4-1.07-2.4-2.39 1.08-2.39 2.4-2.39z"/>
		<path d="m725.32 450.94c1.32 0 2.4-1.07 2.4-2.39s-1.07-2.39-2.4-2.39-2.4 1.07-2.4 2.39 1.08 2.39 2.4 2.39z" fill="#fff"/>
		<path d="m728.96 447.38c.21-.2-.19-.92-.87-1.6-.69-.69-1.4-1.08-1.61-.87-.2.2.19.92.87 1.61.69.68 1.41 1.07 1.61.86z" fill="#fff"/>
		<path d="m663.56 469.34c-5.74 5.2-6.97 13.75-4.68 20.89 3.34 10.42 13.43 21.59 24.11 12.57 8.94-7.55 11.95-15.08 6.31-25.89-5.2-9.96-15.64-16.72-25.74-7.57z"/>
		<path d="m783.51 446.63c-.01-.01-.01-.01-.02-.02v3.39z" opacity=".2"/>
		<path d="m686.26 385.4c.48-.69.9-1.43 1.27-2.2z" opacity=".2"/>
		<path d="m689.25 386.75c.7-.81 1.32-1.69 1.85-2.62-1.1-.5-2.19-.98-3.27-1.45l-.3.52c-.37.77-.79 1.51-1.27 2.2l-.04.07c.41.15 1.44.57 3.03 1.28z" fill="#2971ff"/>
		<path d="m689.25 386.75c.7-.81 1.32-1.69 1.85-2.62-1.1-.5-2.19-.98-3.27-1.45l-.3.52c-.37.77-.79 1.51-1.27 2.2l-.04.07c.41.15 1.44.57 3.03 1.28z" opacity=".2"/>
		<path d="m690.4 387.27c.8-.75 1.53-1.58 2.16-2.49-.49-.22-.97-.44-1.46-.66-.53.94-1.15 1.81-1.85 2.62.35.17.74.34 1.15.53z"/>
		<path d="m690.4 387.27c.8-.75 1.53-1.58 2.16-2.49-.49-.22-.97-.44-1.46-.66-.53.94-1.15 1.81-1.85 2.62.35.17.74.34 1.15.53z" opacity=".2"/>
		<path d="m690.4 387.27c12.47 5.72 50.09 25.02 93.1 62.73 0-1.14 0-2.27 0-3.39-12.56-12.91-31.16-27.63-53.18-41.35-13.05-8.14-25.89-15.04-37.76-20.48-.63.91-1.36 1.74-2.16 2.49z" fill="#2ed6a1"/>
		<path d="m690.4 387.27c12.47 5.72 50.09 25.02 93.1 62.73 0-1.14 0-2.27 0-3.39-12.56-12.91-31.16-27.63-53.18-41.35-13.05-8.14-25.89-15.04-37.76-20.48-.63.91-1.36 1.74-2.16 2.49z" opacity=".2"/>
	</g>
	<circle cx="537.44281" cy="250.32835" fill="#cca066" r="8.660011" transform="matrix(.9246988 -.38069952 .38069952 .9246988 0 0)"/>
	<g transform="translate(-181.56999 -330.57151)">
		<path d="m603.09 469.08c-7.8 24.15-33.79 35.69-57.13 39.05-3.65.53-7.34.73-11.02.65-3.62-.08-7.44.39-10.95-.67-3.94-1.19-7.23-4.04-11.02-5.61-3.1-2.05-5.92-4.45-8.2-7.06-4.55-5.23-6.91-11.31-4.81-17.3 1.05-2.99 3.22-5.97 6.79-8.8 6.44-4.76 12.37-1.44 15.13 4.77 3.42 5.03-2.13 6.6-2.94 10.83-1.19-.66.14-3.04.14-3.04 22.55 12.62 55.34 1.35 66.77-21.86 2.64-4.74 18.88-.33 17.24 9.04" fill="#2ed6a1"/>
		<path d="m490.3 500.88c-.75-.81-.7-2.08.11-2.83l51.65-43.56c.81-.75 2.08-.7 2.83.11l8.14 8.82c.75.81.7 2.08-.11 2.83l-46.23 49.44c-.81.75-2.08.7-2.83-.11z" fill="#a7b1bb"/>
		<path d="m501.58 503.47c-.75-.81-.7-2.08.11-2.83l11.76-10.85c.81-.75 2.08-.7 2.83.11l.62.67c.75.81.7 2.08-.11 2.83l-11.76 10.85c-.81.75-2.08.7-2.83-.11z" fill="#eeeff1"/>
		<path d="m503.87 502.12c-.61-.66-.57-1.7.09-2.31s1.7-.57 2.31.09.57 1.7-.09 2.31c-.66.62-1.7.58-2.31-.09z" fill="#0c1e3e" stroke="#eeeff1"/>
		<path d="m473.19 510.2c-.75-.81-.7-2.08.11-2.83l14.24-10.42c.89-.59 2.08-.7 2.83.11l17.26 18.71c.75.81.6 1.88-.11 2.83l-11.53 13.36c-.81.75-2.08.7-2.83-.11z" fill="#0c1e3e"/>
		<g opacity=".39">
			<path d="m510.98 468.89c3.49-.89 9.13-.23 12.17 1.95 2.89 2.08 5.22 7.79 4.1 10.99-1.36 3.87-3.76 6.79-7.61 8.22-5.27 1.94-8.64-.42-11.09-5.12-2.04-3.9-1.72-13.62 2.53-15.81" stroke="#000" stroke-width="1.3599"/>
			<path d="m506.87 467.39999h20.23v22.85h-20.23z" fill="none" transform="matrix(.9332 -.3594 .3594 .9332 -137.536 217.773)"/>
		</g>
		<path d="m510.37 467.29c3.49-.89 9.13-.23 12.17 1.95 2.89 2.08 5.22 7.79 4.09 10.99-1.36 3.86-3.76 6.79-7.62 8.21-5.27 1.94-8.63-.42-11.09-5.12-2.04-3.9-1.72-13.62 2.53-15.82" fill="#2ed6a1"/>
	</g>
	<path d="m610.04001 223.27849c-1.7-3.94-3.83-7.69-5.26-11.75-1.22-3.44-1.52-7.02-2.09-10.58h-.58v-16.62c-.78.31-1.53.84-2.22 1.63-5.44 6.27-13.15 10.55-20.32 14.53-.5.28-1.01.53-1.51.8l-56.84 11.37c-10.94-1.01-21.74-3.66-31.75-7.71-37.28-15.12-64.55-47.44-91.28-76.15-1-1.07-2.1-1.63-3.2-1.8v15.96c27.04 29.16 54.88 59.25 92.65 74.06 6.38 2.5 12.97 4.38 19.67 5.68.44 1.53.83 3.07.94 4.69.23 3.47-.42 6.94-.51 10.4-.29 11.34-10.12 34.21.5 38.19 4.37 1.64 6-.27 11.46-.55 7.17-.36 9.55 9.24 15.81 7.41 10.87-3.17 23.59-3.6 34.83-5.71 13.02-2.44 26.1-4.58 39.09-7.21 2.42-.49 4.71-1.16 6.68-2.44.97-.63 1.87-1.41 2.66-2.4 6.45-7.98 1.94-19.1-1.89-27.12-2.34-4.85-4.7-9.71-6.84-14.68z" fill="#231f20" opacity=".13"/>
	<path d="m572.06 464.17c28.17 31.3 56.55 64.81 96.44 81.23 21.09 8.68 44.62 10.64 66.99 6.66 10.57-1.88 20.55-5.8 30.07-10.67 8.51-4.35 17.73-9.49 24.18-16.68 5.15-5.74-3.31-14.26-8.48-8.49-5.54 6.18-13.33 10.33-20.56 14.18-9 4.79-18.38 8.12-28.4 10.08-20.47 4.01-42.65.99-61.76-7.14-37.02-15.74-63.75-48.51-89.99-77.67-5.19-5.74-13.65 2.77-8.49 8.5z" fill="#cca066" transform="translate(-181.56999 -330.57151)"/>
	<ellipse cx="130.67" cy="349.41849" fill="#fff" rx="122.67" ry="11"/>
	<path d="m8.4500079 348.42849c-.01.06-.02.12-.02.18 0 8.19 54.8500001 24.82 122.5000021 24.82 65.42 0 118.85-16.2 122.32-24.02h.09l58.25-148.14-19.97-21.65z" fill="#fff48a"/>
	<g fill="#2971ff" transform="translate(-181.56999 -330.57151)">
		<path d="m269.43 660.35h-11.42v23.41h-15.41v-23.41h-40.1v-11.13l35.96-56.23h19.55v54.66h11.42zm-26.83-12.7v-20.55c0-2.66.07-5.8.21-9.42.14-3.61.31-6.75.5-9.42h-.57c-1.14 2.38-2.33 4.71-3.57 6.99s-2.52 4.66-3.85 7.14l-16.55 25.26z"/>
		<path d="m309.68 685.47c-9.51 0-17.03-4.07-22.55-12.2s-8.28-19.91-8.28-35.32 2.76-27.04 8.28-34.89 13.03-11.77 22.55-11.77c9.51 0 17.03 3.95 22.55 11.85s8.28 19.5 8.28 34.82c0 15.41-2.76 27.19-8.28 35.32-5.52 8.12-13.04 12.19-22.55 12.19zm0-12.85c2.19 0 4.21-.59 6.07-1.78s3.45-3.16 4.78-5.92 2.38-6.33 3.14-10.7c.76-4.38 1.14-9.8 1.14-16.27 0-6.37-.38-11.73-1.14-16.06s-1.81-7.82-3.14-10.49c-1.33-2.66-2.93-4.54-4.78-5.64-1.86-1.09-3.88-1.64-6.07-1.64s-4.21.55-6.07 1.64c-1.85 1.1-3.45 2.98-4.78 5.64-1.33 2.67-2.38 6.16-3.14 10.49s-1.14 9.68-1.14 16.06c0 6.47.38 11.89 1.14 16.27s1.81 7.95 3.14 10.7c1.33 2.76 2.93 4.73 4.78 5.92 1.86 1.19 3.88 1.78 6.07 1.78z"/>
		<path d="m415.85 660.35h-11.42v23.41h-15.41v-23.41h-40.1v-11.13l35.96-56.23h19.55v54.66h11.42zm-26.83-12.7v-20.55c0-2.66.07-5.8.21-9.42.14-3.61.31-6.75.5-9.42h-.57c-1.14 2.38-2.33 4.71-3.57 6.99s-2.52 4.66-3.85 7.14l-16.55 25.26z"/>
	</g>
	<g fill="#0c1e3e" transform="translate(-181.56999 -330.57151)">
		<path d="m297.44 614.79c.42-1.25.89-2.38 1.39-3.39 1.33-2.66 2.93-4.54 4.78-5.64 1.86-1.09 3.88-1.64 6.07-1.64 1.52 0 2.96.28 4.32.81l12.91-7.68c-4.74-3.98-10.48-5.98-17.23-5.98-9.51 0-17.03 3.92-22.55 11.77-3.91 5.56-6.43 13.02-7.57 22.38z"/>
		<path d="m242.23 647.65h-23.46l16.55-25.26c1.33-2.47 2.62-4.85 3.85-7.14 1.24-2.28 2.43-4.61 3.57-6.99h.57c-.19 2.67-.36 5.8-.5 9.42s-.21 6.76-.21 9.42v20.33l15.41-9.17v-45.26h-19.55l-35.96 56.23v11.13h18.38z"/>
	</g>
	<path d="m499.33001 38.058494c24.09-29.5799996 92.94-11.16 92.94-11.16s42.85 49.05 19.22 80.679996" fill="none" stroke="#775447" stroke-width=".5"/>
	<path d="m592.27001 26.898494s-13.25 11.57-19.5 21.07-12.28 22.76-12.28 22.76" fill="none" stroke="#775447" stroke-width=".5"/>
	<g fill="#775447">
		<circle cx="546" cy="38.078487" r="3"/>
		<circle cx="592.33997" cy="67.408508" r="3"/>
		<path d="m629.34001 98.908494c0 1.659996-.95 2.999996-2.12 2.999996s-2.12-1.34-2.12-2.999996c0-1.66.95-3 2.12-3s2.12 1.35 2.12 3z"/>
		<path d="m498.44001 23.378494c-1.44.81-3.11.59-3.72-.5s.07-2.62 1.51-3.43 3.11-.59 3.72.5c.61 1.08-.06 2.62-1.51 3.43z"/>
	</g>
	<path d="m617.74001 266.67849c-1.97 1.28-4.27 1.96-6.68 2.44-12.99 2.63-26.06 4.77-39.09 7.21-11.24 2.11-23.96 2.54-34.83 5.71-6.26 1.82-11.58 4.45-17.98 1.19-4.31-2.19-6.88-8.26-7.6-12.77-1.79-11.2-2.48-22.14-2.19-33.48.09-3.47.74-6.93.51-10.4-.21-3.17-1.52-6.07-2.14-9.16-.27-1.36.61-2.68 1.97-2.95l91.33-18.27c1.36-.27 2.68.61 2.95 1.97.84 4.2.99 8.47 2.43 12.54 1.43 4.05 3.56 7.81 5.26 11.75 2.15 4.97 4.5 9.83 6.84 14.71 3.83 8.01 8.34 19.14 1.89 27.12-.8.98-1.7 1.76-2.67 2.39z" fill="#cca066"/>
	<g fill="#775447">
		<circle cx="566.33997" cy="245.54849" r="5"/>
		<path d="m519.16001 283.24849c6.4 3.25 11.72.63 17.98-1.19 10.87-3.17 23.59-3.6 34.83-5.71 13.02-2.44 26.1-4.58 39.09-7.21 2.42-.49 4.71-1.16 6.68-2.44.97-.63 1.87-1.41 2.66-2.4 6.45-7.98 1.94-19.1-1.89-27.12-.2-.42-.4-.83-.6-1.24-9.79 11.22-24.08 15.52-37.5 21.12-10.69 4.46-21.82 4.31-33.6 2.86-12.46-1.52-29.15-4.69-37.48-14.5.15 8.39.88 16.65 2.22 25.06.73 4.51 3.3 10.58 7.61 12.77z"/>
	</g>
</svg>
