<?xml version="1.0" encoding="UTF-8"?>
<svg xmlns="http://www.w3.org/2000/svg" xmlns:xlink="http://www.w3.org/1999/xlink" width="25px" height="25px" viewBox="0 0 25 26" version="1.1">
<defs>
<linearGradient id="linear0" gradientUnits="userSpaceOnUse" x1="33.990002" y1="17.7048" x2="0.565155" y2="17.7048" gradientTransform="matrix(0.735294,0,0,0.722222,0,0)">
<stop offset="0.1" style="stop-color:rgb(0%,87.058824%,75.294118%);stop-opacity:1;"/>
<stop offset="1" style="stop-color:rgb(0%,77.254902%,89.803922%);stop-opacity:1;"/>
</linearGradient>
</defs>
<g id="surface1">
<path style=" stroke:none;fill-rule:nonzero;fill:url(#linear0);" d="M 13.074219 25.335938 C 6.09375 25.335938 0.414062 19.703125 0.414062 12.785156 C 0.414062 5.867188 6.09375 0.234375 13.074219 0.234375 C 17.921875 0.234375 22.402344 3.042969 24.496094 7.375 L 25 8.414062 L 21.460938 11.921875 L 19.105469 9.621094 L 20.941406 7.796875 C 19.238281 5.160156 16.265625 3.507812 13.074219 3.507812 C 7.929688 3.507812 3.742188 7.671875 3.742188 12.777344 C 3.742188 17.886719 7.929688 22.050781 13.074219 22.050781 C 16.265625 22.050781 19.238281 20.398438 20.941406 17.761719 L 14.488281 11.355469 C 14.113281 10.976562 13.605469 10.769531 13.074219 10.769531 C 12.539062 10.769531 12.039062 10.976562 11.65625 11.355469 C 10.867188 12.136719 10.867188 13.40625 11.65625 14.1875 C 12.035156 14.566406 12.539062 14.773438 13.074219 14.773438 C 13.605469 14.773438 14.105469 14.566406 14.488281 14.1875 L 15.058594 13.613281 L 17.425781 15.917969 L 16.84375 16.492188 C 15.835938 17.496094 14.496094 18.042969 13.074219 18.042969 C 11.648438 18.042969 10.308594 17.488281 9.300781 16.492188 C 7.230469 14.441406 7.230469 11.097656 9.300781 9.042969 C 10.308594 8.046875 11.640625 7.492188 13.074219 7.492188 C 14.496094 7.492188 15.835938 8.046875 16.84375 9.042969 L 25 17.132812 L 24.496094 18.175781 C 22.402344 22.53125 17.914062 25.335938 13.074219 25.335938 Z M 13.074219 25.335938 "/>
</g>
</svg>
