<?xml version="1.0" encoding="UTF-8"?>
<svg xmlns="http://www.w3.org/2000/svg" xmlns:xlink="http://www.w3.org/1999/xlink" width="25px" height="25px" viewBox="0 0 25 25" version="1.1">
<g id="surface1">
<path style=" stroke:none;fill-rule:nonzero;fill:rgb(0.392157%,73.725492%,55.29412%);fill-opacity:1;" d="M 12.5 0 C 19.402344 0 25 5.597656 25 12.5 C 25 19.402344 19.402344 25 12.5 25 C 5.597656 25 0 19.402344 0 12.5 C 0 5.597656 5.597656 0 12.5 0 Z M 12.5 0 "/>
<path style=" stroke:none;fill-rule:nonzero;fill:rgb(100%,100%,100%);fill-opacity:1;" d="M 9.949219 12.5 L 14.390625 16.941406 L 17.199219 14.132812 C 17.691406 13.644531 18.5 13.644531 18.992188 14.132812 C 19.484375 14.625 19.484375 15.4375 18.992188 15.929688 L 15.289062 19.632812 C 14.796875 20.121094 13.988281 20.121094 13.496094 19.632812 L 8.171875 14.292969 L 8.171875 17.476562 C 8.171875 18.171875 7.605469 18.75 6.898438 18.75 C 6.1875 18.75 5.625 18.183594 5.625 17.476562 L 5.625 7.554688 C 5.625 6.84375 6.1875 6.28125 6.898438 6.28125 C 7.605469 6.28125 8.171875 6.84375 8.171875 7.554688 L 8.171875 10.707031 L 13.507812 5.367188 C 14 4.878906 14.8125 4.878906 15.304688 5.367188 L 19.007812 9.070312 C 19.496094 9.5625 19.496094 10.375 19.007812 10.867188 C 18.515625 11.355469 17.703125 11.355469 17.210938 10.867188 L 14.40625 8.058594 Z M 14.40625 11.226562 C 13.695312 11.226562 13.132812 11.792969 13.132812 12.5 C 13.132812 13.207031 13.695312 13.773438 14.40625 13.773438 C 15.113281 13.773438 15.679688 13.207031 15.679688 12.5 C 15.664062 11.792969 15.101562 11.226562 14.40625 11.226562 Z M 14.40625 11.226562 "/>
</g>
</svg>
