<svg viewBox="0 0 20.576 18" xmlns="http://www.w3.org/2000/svg">
	<path d="m1.45 278.856h16.092v-.01l.452.005 2.582-3.851h-3.856v1.9h-3.589a3.427 3.427 0 0 0 -5.676 0h-3.589v-1.9h-1.285l-2.581 3.861z" fill="#8795a2" transform="translate(0 -260.861)"/>
	<path d="m78.794 16.041a3.427 3.427 0 0 1 5.676 0h3.589v-16.041h-3v.021a3.424 3.424 0 1 1 -6.848 0v-.021h-3.011v16.041zm2.833-10.889a3.846 3.846 0 1 1 -3.846 3.848 3.846 3.846 0 0 1 3.846-3.848z" fill="#c4cbd2" transform="translate(-71.334)"/>
	<circle cx="3.846" cy="3.846" fill="#8795a2" r="3.846" transform="matrix(.70710678 -.70710678 .70710678 .70710678 4.857 8.996)"/>
</svg>
