<svg viewBox="0 0 12.857 18" xmlns="http://www.w3.org/2000/svg">
	<path d="m3.59 16.046a3.512 3.512 0 0 1 2.839-1.507 3.512 3.512 0 0 1 2.839 1.507h3.59v-16.046h-3v.021a3.425 3.425 0 0 1 -6.858 0v-.021h-3v16.046zm2.839-10.893a3.847 3.847 0 1 1 -3.847 3.847 3.848 3.848 0 0 1 3.847-3.847z" fill="#c4cbd2"/>
	<circle cx="3.847" cy="3.847" fill="#8795a2" r="3.847" transform="matrix(.70710678 -.70710678 .70710678 .70710678 .987 9)"/>
	<path d="m9.267 38a3.512 3.512 0 0 1 -2.839 1.507 3.512 3.512 0 0 1 -2.838-1.507h-3.59v16.046h3v-.021a3.425 3.425 0 1 1 6.85 0v.021h3v-16.046zm-2.838 10.893a3.847 3.847 0 1 1 3.847-3.847 3.848 3.848 0 0 1 -3.847 3.847z" fill="#c4cbd2" transform="translate(0 -36.046)"/>
</svg>
