<svg height="271.45999" viewBox="0 0 1298.45 271.46" width="1298.45" xmlns="http://www.w3.org/2000/svg"><g fill="#091440"><g transform="translate(0 -.000001)"><path d="m439.64 8.06h23.61c29.09 0 44.64 16.85 44.64 46.8s-15.55 47.67-44.06 47.67h-24.19zm22.75 84.67c22 0 33.12-14 33.12-37.87s-11.09-37-33.12-37h-10.8v74.87z"/><path d="m519.18 67.68c0-22.9 15.41-36.86 31.4-36.86 17.85 0 27.93 12.81 27.93 32.83a45.43 45.43 0 0 1 -.43 6.76h-47.23c.86 14.84 9.93 24.34 23.33 24.34a31.65 31.65 0 0 0 17.42-5.47l4.17 7.77a41.62 41.62 0 0 1 -23 7.2c-18.77 0-33.59-13.68-33.59-36.57zm49-5.76c0-14.11-6.33-21.74-17.28-21.74-9.79 0-18.72 7.91-20.16 21.74z"/><path d="m588.62 67.68c0-23.47 15.69-36.86 33.69-36.86 9.22 0 15.56 3.74 20.45 8.2l-6 7.78c-4-3.6-8.35-6.19-14-6.19-12.68 0-21.89 10.94-21.89 27.07 0 16 8.78 26.78 21.6 26.78 6.48 0 12.09-3.17 16.41-7l5.19 7.92a34.18 34.18 0 0 1 -22.61 8.92c-18.59-.05-32.84-13.44-32.84-36.62z"/><path d="m655.66 32.54h9.8l1 12.67h.44c4.75-8.78 12-14.39 19.87-14.39a17.39 17.39 0 0 1 7.49 1.44l-2.26 10.36a19.58 19.58 0 0 0 -6.77-1.15c-5.9 0-13 4.32-17.71 16.13v44.93h-11.86z"/><path d="m697 67.68c0-22.9 15.41-36.86 31.39-36.86 17.86 0 27.94 12.81 27.94 32.83a46.82 46.82 0 0 1 -.43 6.76h-47.27c.86 14.84 9.93 24.34 23.32 24.34a31.66 31.66 0 0 0 17.43-5.47l4.17 7.77c-6 3.89-13.53 7.2-23 7.2-18.76 0-33.55-13.68-33.55-36.57zm49-5.76c0-14.11-6.34-21.74-17.28-21.74-9.79 0-18.72 7.91-20.16 21.74z"/><path d="m766.47 67.68c0-22.75 14.4-36.86 30.38-36.86 8.07 0 13.39 3 19.59 8.06l-.58-12v-26.88h11.95v102.53h-9.81l-1-8.21h-.43c-5.47 5.33-13 9.93-21.17 9.93-17.56 0-28.93-13.25-28.93-36.57zm49.39 17v-36.59c-5.9-5.32-11.23-7.34-17-7.34-11.23 0-20.16 10.8-20.16 26.78 0 16.71 7 26.79 19.29 26.79 6.49 0 12.11-3.17 17.87-9.65z"/></g><g transform="translate(0 -.000001)"><path d="m438.63 149.35h30.1c19.44 0 33.69 5.91 33.69 23.19 0 8.92-4.89 17.56-13.1 20.44v.58c10.37 2.3 18 9.65 18 22.32 0 18.86-15.41 27.65-36.15 27.65h-32.54zm28.66 38.88c13.1 0 18.72-5.18 18.72-13.25 0-9.21-6.2-12.67-18.44-12.67h-12.23v25.92zm2.16 42.34c13.82 0 21.6-5 21.6-15.56 0-9.93-7.49-14.25-21.6-14.25h-14.11v29.81z"/><path d="m521.18 225.38v-83.52h16.56v84.39c0 4 1.88 5.47 3.6 5.47a9.92 9.92 0 0 0 2.6-.29l2.16 12.38a22.54 22.54 0 0 1 -8.79 1.44c-11.81 0-16.13-7.63-16.13-19.87z"/><path d="m552.19 208.25c0-23.62 16-37.15 33.55-37.15s33.69 13.53 33.69 37.15c0 23.47-16 37-33.69 37s-33.55-13.53-33.55-37zm50.25 0c0-14.26-6.33-23.62-16.7-23.62s-16.56 9.36-16.56 23.62 6.19 23.47 16.56 23.47 16.7-9.36 16.7-23.47z"/><path d="m628.75 208.25c0-23.62 16.56-37.15 35.42-37.15a30.42 30.42 0 0 1 20.74 7.9l-8.06 10.79c-3.75-3.31-7.35-5.18-11.81-5.18-11.38 0-19.3 9.36-19.3 23.62s7.78 23.47 18.87 23.47c5.47 0 10.51-2.74 14.54-6.05l6.77 10.94a35.33 35.33 0 0 1 -23 8.64c-19.34.02-34.17-13.51-34.17-36.98z"/><path d="m696.21 141.86h16.28v63.51h.43l26.21-32.55h18.14l-24.19 28.8 26.64 41.91h-18l-18.15-30.68-11.08 12.68v18h-16.28z"/><path d="m801.62 149.35h56.74v14.11h-40v24h33.84v14.11h-33.88v27.79h41.47v14.12h-58.17z"/><path d="m890.94 206.66-21-33.84h17.85l7.92 13.39c2 3.89 4.32 8.07 6.48 12h.58c1.73-3.89 3.74-8.07 5.47-12l6.76-13.39h17.14l-20.88 35.71 22.46 35h-17.87l-8.64-14c-2.3-4.18-4.75-8.5-7.2-12.53h-.57c-2 4-4.18 8.21-6.19 12.53l-7.49 14h-17.28z"/><path d="m943.36 172.82h13.64l1.15 7.49h.57c5.91-5 13.54-9.21 21.32-9.21 17.56 0 27.79 14.11 27.79 36 0 24.2-14.55 38.16-30.24 38.16-6.19 0-12.39-2.88-18.15-7.77l.44 11.81v22.17h-16.52zm47.37 34.42c0-14.11-4.61-22.47-15.26-22.47-5.19 0-10.08 2.6-15.55 7.92v33c5.18 4.32 10.08 5.9 14.25 5.9 9.36-.02 16.56-8.37 16.56-24.35z"/><path d="m1021.79 225.38v-83.52h16.56v84.39c0 4 1.87 5.47 3.6 5.47a9.82 9.82 0 0 0 2.59-.29l2.16 12.38a22.45 22.45 0 0 1 -8.78 1.44c-11.81 0-16.13-7.63-16.13-19.87z"/><path d="m1052.8 208.25c0-23.62 16-37.15 33.55-37.15s33.65 13.53 33.65 37.15c0 23.47-16 37-33.69 37s-33.51-13.53-33.51-37zm50.25 0c0-14.26-6.34-23.62-16.7-23.62s-16.56 9.36-16.56 23.62 6.19 23.47 16.56 23.47 16.7-9.36 16.7-23.47z"/><path d="m1133.59 172.82h13.68l1.15 12.53h.58c5-9.21 12.53-14.25 20-14.25a17.92 17.92 0 0 1 8.06 1.44l-2.88 14.4a22.83 22.83 0 0 0 -7.34-1.16c-5.62 0-12.39 3.89-16.71 14.55v43.2h-16.56z"/><path d="m1179.66 208.25c0-23 16-37.15 32.54-37.15 19.15 0 29.23 13.82 29.23 33.55a38.75 38.75 0 0 1 -.72 8.06h-44.93c1.45 12.53 9.51 19.73 20.88 19.73 6 0 11.24-1.87 16.42-5.19l5.62 10.37a44.59 44.59 0 0 1 -24.2 7.63c-19.58 0-34.84-13.68-34.84-37zm47.37-6.77c0-10.95-4.75-17.57-14.4-17.57-8.35 0-15.55 6.19-17 17.57z"/><path d="m1255 172.82h13.68l1.15 12.53h.57c5-9.21 12.53-14.25 20-14.25a17.92 17.92 0 0 1 8.06 1.44l-2.88 14.4a22.78 22.78 0 0 0 -7.34-1.16c-5.62 0-12.38 3.89-16.7 14.55v43.2h-16.54z"/></g><path d="m358.84 8.529998h3v235h-3z"/></g><path d="m58.97857 67.508629-58.97857-58.9786305h63.55059l94.18288 94.1828815h-63.55059c-26.06033 0-47.09144 21.03117-47.09144 47.09144 0 25.60313 21.03111 47.09144 47.09144 47.09144h23.31712l47.09144 46.63424h-70.40856c-52.1206 0-94.18288-42.06228-94.18288-93.72568 0-38.40466 18.74516-69.036951 58.97857-82.295691z" fill="#2b87e7" fill-rule="evenodd"/><path d="m223.57002 185.00863 58.52137 58.52137h-63.55054l-93.72568-93.72568h63.55059c25.60307 0 46.63418-21.03111 46.63418-47.09144 0-26.06027-21.03111-47.091437-46.63418-47.091437h-23.77432l-47.09144-47.0914445h70.86576c51.66341 0 93.72563 42.0622785 93.72563 94.1828815 0 37.94746-18.7451 68.57976-58.52137 82.29575z" fill="#37cab2" fill-rule="evenodd"/></svg>