<?xml version="1.0" encoding="UTF-8" standalone="no"?>
<!-- Generated by graphviz version 2.40.1 (0)
 -->

<!-- Title: %3 Pages: 1 -->

<svg
   xmlns:dc="http://purl.org/dc/elements/1.1/"
   xmlns:cc="http://creativecommons.org/ns#"
   xmlns:rdf="http://www.w3.org/1999/02/22-rdf-syntax-ns#"
   xmlns:svg="http://www.w3.org/2000/svg"
   xmlns="http://www.w3.org/2000/svg"
   xmlns:sodipodi="http://sodipodi.sourceforge.net/DTD/sodipodi-0.dtd"
   xmlns:inkscape="http://www.inkscape.org/namespaces/inkscape"
   width="478pt"
   height="504pt"
   viewBox="0.00 0.00 478.00 504.00"
   version="1.1"
   id="svg22629"
   sodipodi:docname="modules.svg"
   inkscape:version="0.92.4 (5da689c313, 2019-01-14)">
  <metadata
     id="metadata22635">
    <rdf:RDF>
      <cc:Work
         rdf:about="">
        <dc:format>image/svg+xml</dc:format>
        <dc:type
           rdf:resource="http://purl.org/dc/dcmitype/StillImage" />
      </cc:Work>
    </rdf:RDF>
  </metadata>
  <defs
     id="defs22633" />
  <sodipodi:namedview
     pagecolor="#ffffff"
     bordercolor="#666666"
     borderopacity="1"
     objecttolerance="10"
     gridtolerance="10"
     guidetolerance="10"
     inkscape:pageopacity="0"
     inkscape:pageshadow="2"
     inkscape:window-width="1920"
     inkscape:window-height="1017"
     id="namedview22631"
     showgrid="false"
     inkscape:zoom="1.6779533"
     inkscape:cx="333.02481"
     inkscape:cy="241.23282"
     inkscape:window-x="-8"
     inkscape:window-y="-8"
     inkscape:window-maximized="1"
     inkscape:current-layer="svg22629" />
  <g
     id="g23496">
    <polygon
       transform="translate(4,500)"
       points="474,-500 474,4 -4,4 -4,-500 "
       id="polygon22337"
       style="fill:#ffffff;stroke:#000000" />
    <text
       x="101"
       y="22.399994"
       font-size="18.00"
       id="text22339"
       style="font-size:18px;font-family:Times, serif;text-anchor:start;fill:#000000">dcrdata Module Dependencies</text>
    <g
       transform="translate(4,500)"
       id="node1"
       class="node">
      <title
         id="title22341">apitypes</title>
      <path
         d="m 322,-324 c 0,0 -58,0 -58,0 -6,0 -12,6 -12,12 0,0 0,12 0,12 0,6 6,12 12,12 0,0 58,0 58,0 6,0 12,-6 12,-12 0,0 0,-12 0,-12 0,-6 -6,-12 -12,-12"
         id="path22343"
         inkscape:connector-curvature="0"
         style="fill:#bdb76b;stroke:#000000" />
      <text
         x="293"
         y="-302.29999"
         font-size="14.00"
         id="text22345"
         style="font-size:14px;font-family:Times, serif;text-anchor:middle;fill:#000000">api/types</text>
    </g>
    <g
       transform="translate(4,500)"
       id="node10"
       class="node">
      <title
         id="title22348">rpcutils</title>
      <path
         d="m 316.5,-252 c 0,0 -47,0 -47,0 -6,0 -12,6 -12,12 0,0 0,12 0,12 0,6 6,12 12,12 0,0 47,0 47,0 6,0 12,-6 12,-12 0,0 0,-12 0,-12 0,-6 -6,-12 -12,-12"
         id="path22350"
         inkscape:connector-curvature="0"
         style="fill:#1e90ff;stroke:#000000" />
      <text
         x="293"
         y="-230.3"
         font-size="14.00"
         id="text22352"
         style="font-size:14px;font-family:Times, serif;text-anchor:middle;fill:#000000">rpcutils</text>
    </g>
    <g
       transform="translate(4,500)"
       id="edge18"
       class="edge">
      <title
         id="title22355">apitypes-&gt;rpcutils</title>
      <path
         d="m 304.8333,-277.8314 c 0,0 0,25.4181 0,25.4181"
         id="path22357"
         inkscape:connector-curvature="0"
         style="fill:none;stroke:#20b2aa" />
      <polygon
         points="308.3334,-277.8314 301.3334,-277.8313 304.8333,-287.8314 "
         id="polygon22359"
         style="fill:#20b2aa;stroke:#20b2aa" />
    </g>
    <g
       transform="translate(4,500)"
       id="node17"
       class="node">
      <title
         id="title22362">middleware</title>
      <path
         d="m 227.5,-252 c 0,0 -77,0 -77,0 -6,0 -12,6 -12,12 0,0 0,12 0,12 0,6 6,12 12,12 0,0 77,0 77,0 6,0 12,-6 12,-12 0,0 0,-12 0,-12 0,-6 -6,-12 -12,-12"
         id="path22364"
         inkscape:connector-curvature="0"
         style="fill:#3a5fcd;stroke:#000000" />
      <text
         x="189"
         y="-230.3"
         font-size="14.00"
         id="text22366"
         style="font-size:14px;font-family:Times, serif;text-anchor:middle;fill:#000000">middleware</text>
    </g>
    <g
       transform="translate(4,500)"
       id="edge1"
       class="edge">
      <title
         id="title22369">apitypes-&gt;middleware</title>
      <path
         d="m 281.1667,-277.5782 c 0,0 0,7.5782 0,7.5782 0,0 -74.1667,0 -74.1667,0 0,0 0,8.7209 0,17.5782"
         id="path22371"
         inkscape:connector-curvature="0"
         style="fill:none;stroke:#7fffd4" />
      <polygon
         points="284.6668,-277.5782 277.6668,-277.5781 281.1667,-287.5782 "
         id="polygon22373"
         style="fill:#7fffd4;stroke:#7fffd4" />
    </g>
    <g
       transform="translate(4,500)"
       id="node2"
       class="node">
      <title
         id="title22376">mempool</title>
      <path
         d="m 184,-108 c 0,0 -58,0 -58,0 -6,0 -12,6 -12,12 0,0 0,12 0,12 0,6 6,12 12,12 0,0 58,0 58,0 6,0 12,-6 12,-12 0,0 0,-12 0,-12 0,-6 -6,-12 -12,-12"
         id="path22378"
         inkscape:connector-curvature="0"
         style="fill:#7fffd4;stroke:#000000" />
      <text
         x="155"
         y="-86.300003"
         font-size="14.00"
         id="text22380"
         style="font-size:14px;font-family:Times, serif;text-anchor:middle;fill:#000000">mempool</text>
    </g>
    <g
       transform="translate(4,500)"
       id="node3"
       class="node">
      <title
         id="title22383">pubsub</title>
      <path
         d="m 176.5,-36 c 0,0 -45,0 -45,0 -6,0 -12,6 -12,12 0,0 0,12 0,12 0,6 6,12 12,12 0,0 45,0 45,0 6,0 12,-6 12,-12 0,0 0,-12 0,-12 0,-6 -6,-12 -12,-12"
         id="path22385"
         inkscape:connector-curvature="0"
         style="fill:#ff7f50;stroke:#000000" />
      <text
         x="154"
         y="-14.3"
         font-size="14.00"
         id="text22387"
         style="font-size:14px;font-family:Times, serif;text-anchor:middle;fill:#000000">pubsub</text>
    </g>
    <g
       transform="translate(4,500)"
       id="edge22"
       class="edge">
      <title
         id="title22390">mempool-&gt;pubsub</title>
      <path
         d="m 154,-61.8314 c 0,0 0,25.4181 0,25.4181"
         id="path22392"
         inkscape:connector-curvature="0"
         style="fill:none;stroke:#5f9ea0" />
      <polygon
         points="157.5001,-61.8314 150.5001,-61.8313 154,-71.8314 "
         id="polygon22394"
         style="fill:#5f9ea0;stroke:#5f9ea0" />
    </g>
    <g
       transform="translate(4,500)"
       id="node4"
       class="node">
      <title
         id="title22411">pubsubtypes</title>
      <path
         d="m 130.5,-180 c 0,0 -89,0 -89,0 -6,0 -12,6 -12,12 0,0 0,12 0,12 0,6 6,12 12,12 0,0 89,0 89,0 6,0 12,-6 12,-12 0,0 0,-12 0,-12 0,-6 -6,-12 -12,-12"
         id="path22413"
         inkscape:connector-curvature="0"
         style="fill:#ffa07a;stroke:#000000" />
      <text
         x="86"
         y="-158.3"
         font-size="14.00"
         id="text22415"
         style="font-size:14px;font-family:Times, serif;text-anchor:middle;fill:#000000">pubsub/types</text>
    </g>
    <g
       transform="translate(4,500)"
       id="edge16"
       class="edge">
      <title
         id="title22418">pubsubtypes-&gt;mempool</title>
      <path
         d="m 128.25,-133.8314 c 0,0 0,25.4181 0,25.4181"
         id="path22420"
         inkscape:connector-curvature="0"
         style="fill:none;stroke:#5f9ea0" />
      <polygon
         points="131.7501,-133.8314 124.7501,-133.8313 128.25,-143.8314 "
         id="polygon22422"
         style="fill:#5f9ea0;stroke:#5f9ea0" />
    </g>
    <g
       transform="translate(4,500)"
       id="edge23"
       class="edge">
      <title
         id="title22425">pubsubtypes-&gt;pubsub</title>
      <path
         d="m 71.75,-133.7623 c 0,0 0,115.7623 0,115.7623 0,0 24.9514,0 47.3686,0"
         id="path22427"
         inkscape:connector-curvature="0"
         style="fill:none;stroke:#9370db" />
      <polygon
         points="75.2501,-133.7623 68.2501,-133.7623 71.75,-143.7623 "
         id="polygon22429"
         style="fill:#9370db;stroke:#9370db" />
    </g>
    <g
       transform="translate(4,500)"
       id="node6"
       class="node">
      <title
         id="title22432">dbtypes</title>
      <path
         d="m 293,-396 c 0,0 -72,0 -72,0 -6,0 -12,6 -12,12 0,0 0,12 0,12 0,6 6,12 12,12 0,0 72,0 72,0 6,0 12,-6 12,-12 0,0 0,-12 0,-12 0,-6 -6,-12 -12,-12"
         id="path22434"
         inkscape:connector-curvature="0"
         style="fill:#9370db;stroke:#000000" />
      <text
         x="257"
         y="-374.29999"
         font-size="14.00"
         id="text22436"
         style="font-size:14px;font-family:Times, serif;text-anchor:middle;fill:#000000">db/dbtypes</text>
    </g>
    <g
       transform="translate(4,500)"
       id="edge10"
       class="edge">
      <title
         id="title22439">dbtypes-&gt;apitypes</title>
      <path
         d="m 278.5,-349.8314 c 0,0 0,25.4181 0,25.4181"
         id="path22441"
         inkscape:connector-curvature="0"
         style="fill:none;stroke:#da70d6" />
      <polygon
         points="282.0001,-349.8314 275.0001,-349.8313 278.5,-359.8314 "
         id="polygon22443"
         style="fill:#da70d6;stroke:#da70d6" />
    </g>
    <g
       transform="translate(4,500)"
       id="node8"
       class="node">
      <title
         id="title22446">dbcache</title>
      <path
         d="m 423,-180 c 0,0 -56,0 -56,0 -6,0 -12,6 -12,12 0,0 0,12 0,12 0,6 6,12 12,12 0,0 56,0 56,0 6,0 12,-6 12,-12 0,0 0,-12 0,-12 0,-6 -6,-12 -12,-12"
         id="path22448"
         inkscape:connector-curvature="0"
         style="fill:#c71585;stroke:#000000" />
      <text
         x="395"
         y="-158.3"
         font-size="14.00"
         id="text22450"
         style="font-size:14px;font-family:Times, serif;text-anchor:middle;fill:#000000">db/cache</text>
    </g>
    <g
       transform="translate(4,500)"
       id="edge5"
       class="edge">
      <title
         id="title22453">dbtypes-&gt;dbcache</title>
      <path
         d="m 315.2657,-378 c 0,0 79.7343,0 79.7343,0 0,0 0,146.0421 0,197.9555"
         id="path22455"
         inkscape:connector-curvature="0"
         style="fill:none;stroke:#deb887" />
      <polygon
         points="315.2657,-381.5001 315.2657,-374.5001 305.2657,-378 "
         id="polygon22457"
         style="fill:#deb887;stroke:#deb887" />
    </g>
    <g
       transform="translate(4,500)"
       id="node12"
       class="node">
      <title
         id="title22460">gov</title>
      <path
         d="m 222,-324 c 0,0 -30,0 -30,0 -6,0 -12,6 -12,12 0,0 0,12 0,12 0,6 6,12 12,12 0,0 30,0 30,0 6,0 12,-6 12,-12 0,0 0,-12 0,-12 0,-6 -6,-12 -12,-12"
         id="path22462"
         inkscape:connector-curvature="0"
         style="fill:#00fa9a;stroke:#000000" />
      <text
         x="207"
         y="-302.29999"
         font-size="14.00"
         id="text22464"
         style="font-size:14px;font-family:Times, serif;text-anchor:middle;fill:#000000">gov</text>
    </g>
    <g
       transform="translate(4,500)"
       id="edge19"
       class="edge">
      <title
         id="title22467">dbtypes-&gt;gov</title>
      <path
         d="m 221.5,-349.8314 c 0,0 0,25.4181 0,25.4181"
         id="path22469"
         inkscape:connector-curvature="0"
         style="fill:none;stroke:#3a5fcd" />
      <polygon
         points="225.0001,-349.8314 218.0001,-349.8313 221.5,-359.8314 "
         id="polygon22471"
         style="fill:#3a5fcd;stroke:#3a5fcd" />
    </g>
    <g
       transform="translate(4,500)"
       id="node7"
       class="node">
      <title
         id="title22474">dcrpg</title>
      <path
         d="m 413,-36 c 0,0 -56,0 -56,0 -6,0 -12,6 -12,12 0,0 0,12 0,12 0,6 6,12 12,12 0,0 56,0 56,0 6,0 12,-6 12,-12 0,0 0,-12 0,-12 0,-6 -6,-12 -12,-12"
         id="path22476"
         inkscape:connector-curvature="0"
         style="fill:#20b2aa;stroke:#000000" />
      <text
         x="385"
         y="-14.3"
         font-size="14.00"
         id="text22478"
         style="font-size:14px;font-family:Times, serif;text-anchor:middle;fill:#000000">db/dcrpg</text>
    </g>
    <g
       transform="translate(4,500)"
       id="edge3"
       class="edge">
      <title
         id="title22481">dbcache-&gt;dcrpg</title>
      <path
         d="m 445.1348,-162 c 0,0 24.8652,0 24.8652,0 0,0 0,144 0,144 0,0 -22.9426,0 -44.989,0"
         id="path22483"
         inkscape:connector-curvature="0"
         style="fill:none;stroke:#5f9ea0" />
      <polygon
         points="445.1348,-165.5001 445.1348,-158.5001 435.1348,-162 "
         id="polygon22485"
         style="fill:#5f9ea0;stroke:#5f9ea0" />
    </g>
    <g
       transform="translate(4,500)"
       id="node9"
       class="node">
      <title
         id="title22488">blockdata</title>
      <path
         d="m 288,-108 c 0,0 -62,0 -62,0 -6,0 -12,6 -12,12 0,0 0,12 0,12 0,6 6,12 12,12 0,0 62,0 62,0 6,0 12,-6 12,-12 0,0 0,-12 0,-12 0,-6 -6,-12 -12,-12"
         id="path22490"
         inkscape:connector-curvature="0"
         style="fill:#deb887;stroke:#000000" />
      <text
         x="257"
         y="-86.300003"
         font-size="14.00"
         id="text22492"
         style="font-size:14px;font-family:Times, serif;text-anchor:middle;fill:#000000">blockdata</text>
    </g>
    <g
       transform="translate(4,500)"
       id="edge21"
       class="edge">
      <title
         id="title22495">blockdata-&gt;pubsub</title>
      <path
         d="m 203.8172,-96 c 0,0 -2.3172,0 -2.3172,0 0,0 0,78 0,78 0,0 -5.6128,0 -12.9796,0"
         id="path22497"
         inkscape:connector-curvature="0"
         style="fill:none;stroke:#ff7f50" />
      <polygon
         points="203.8172,-92.5001 203.8173,-99.5001 213.8172,-96 "
         id="polygon22499"
         style="fill:#ff7f50;stroke:#ff7f50" />
    </g>
    <g
       transform="translate(4,500)"
       id="edge2"
       class="edge">
      <title
         id="title22509">blockdata-&gt;dcrpg</title>
      <path
         d="m 310.1103,-96 c 0,0 3.3897,0 3.3897,0 0,0 0,78 0,78 0,0 14.9347,0 31.1529,0"
         id="path22511"
         inkscape:connector-curvature="0"
         style="fill:none;stroke:#ff7f50" />
      <polygon
         points="310.1103,-99.5001 310.1103,-92.5001 300.1103,-96 "
         id="polygon22513"
         style="fill:#ff7f50;stroke:#ff7f50" />
    </g>
    <g
       transform="translate(4,500)"
       id="edge17"
       class="edge">
      <title
         id="title22516">rpcutils-&gt;mempool</title>
      <path
         d="m 277.8333,-205.5782 c 0,0 0,7.5782 0,7.5782 0,0 -108.5833,0 -108.5833,0 0,0 0,58.8664 0,89.6793"
         id="path22518"
         inkscape:connector-curvature="0"
         style="fill:none;stroke:#7fffd4" />
      <polygon
         points="281.3334,-205.5782 274.3334,-205.5781 277.8333,-215.5782 "
         id="polygon22520"
         style="fill:#7fffd4;stroke:#7fffd4" />
    </g>
    <g
       transform="translate(4,500)"
       id="node11"
       class="node">
      <title
         id="title22523">stakedb</title>
      <path
         d="m 306.5,-180 c 0,0 -49,0 -49,0 -6,0 -12,6 -12,12 0,0 0,12 0,12 0,6 6,12 12,12 0,0 49,0 49,0 6,0 12,-6 12,-12 0,0 0,-12 0,-12 0,-6 -6,-12 -12,-12"
         id="path22525"
         inkscape:connector-curvature="0"
         style="fill:#00bfff;stroke:#000000" />
      <text
         x="282"
         y="-158.3"
         font-size="14.00"
         id="text22527"
         style="font-size:14px;font-family:Times, serif;text-anchor:middle;fill:#000000">stakedb</text>
    </g>
    <g
       transform="translate(4,500)"
       id="edge11"
       class="edge">
      <title
         id="title22530">rpcutils-&gt;stakedb</title>
      <path
         d="m 298.1667,-205.8314 c 0,0 0,25.4181 0,25.4181"
         id="path22532"
         inkscape:connector-curvature="0"
         style="fill:none;stroke:#5f9ea0" />
      <polygon
         points="301.6668,-205.8314 294.6668,-205.8313 298.1667,-215.8314 "
         id="polygon22534"
         style="fill:#5f9ea0;stroke:#5f9ea0" />
    </g>
    <g
       transform="translate(4,500)"
       id="edge8"
       class="edge">
      <title
         id="title22537">stakedb-&gt;blockdata</title>
      <path
         d="m 272.75,-133.8314 c 0,0 0,25.4181 0,25.4181"
         id="path22539"
         inkscape:connector-curvature="0"
         style="fill:none;stroke:#7fff00" />
      <polygon
         points="276.2501,-133.8314 269.2501,-133.8313 272.75,-143.8314 "
         id="polygon22541"
         style="fill:#7fff00;stroke:#7fff00" />
    </g>
    <g
       transform="translate(4,500)"
       id="node13"
       class="node">
      <title
         id="title22544">dcrrates</title>
      <path
         d="m 142.5,-396 c 0,0 -53,0 -53,0 -6,0 -12,6 -12,12 0,0 0,12 0,12 0,6 6,12 12,12 0,0 53,0 53,0 6,0 12,-6 12,-12 0,0 0,-12 0,-12 0,-6 -6,-12 -12,-12"
         id="path22546"
         inkscape:connector-curvature="0"
         style="fill:#ffd700;stroke:#000000" />
      <text
         x="116"
         y="-374.29999"
         font-size="14.00"
         id="text22548"
         style="font-size:14px;font-family:Times, serif;text-anchor:middle;fill:#000000">dcrrates</text>
    </g>
    <g
       transform="translate(4,500)"
       id="node15"
       class="node">
      <title
         id="title22551">exchanges</title>
      <path
         d="m 150,-324 c 0,0 -68,0 -68,0 -6,0 -12,6 -12,12 0,0 0,12 0,12 0,6 6,12 12,12 0,0 68,0 68,0 6,0 12,-6 12,-12 0,0 0,-12 0,-12 0,-6 -6,-12 -12,-12"
         id="path22553"
         inkscape:connector-curvature="0"
         style="fill:#708090;stroke:#000000" />
      <text
         x="116"
         y="-302.29999"
         font-size="14.00"
         id="text22555"
         style="font-size:14px;font-family:Times, serif;text-anchor:middle;fill:#000000">exchanges</text>
    </g>
    <g
       transform="translate(4,500)"
       id="edge9"
       class="edge">
      <title
         id="title22558">dcrrates-&gt;exchanges</title>
      <path
         d="m 116,-349.8314 c 0,0 0,25.4181 0,25.4181"
         id="path22560"
         inkscape:connector-curvature="0"
         style="fill:none;stroke:#da70d6" />
      <polygon
         points="119.5001,-349.8314 112.5001,-349.8313 116,-359.8314 "
         id="polygon22562"
         style="fill:#da70d6;stroke:#da70d6" />
    </g>
    <g
       transform="translate(4,500)"
       id="node14"
       class="node">
      <title
         id="title22565">txhelpers</title>
      <path
         d="m 161,-468 c 0,0 -60,0 -60,0 -6,0 -12,6 -12,12 0,0 0,12 0,12 0,6 6,12 12,12 0,0 60,0 60,0 6,0 12,-6 12,-12 0,0 0,-12 0,-12 0,-6 -6,-12 -12,-12"
         id="path22567"
         inkscape:connector-curvature="0"
         style="fill:#da70d6;stroke:#000000" />
      <text
         x="131"
         y="-446.29999"
         font-size="14.00"
         id="text22569"
         style="font-size:14px;font-family:Times, serif;text-anchor:middle;fill:#000000">txhelpers</text>
    </g>
    <g
       transform="translate(4,500)"
       id="edge12"
       class="edge">
      <title
         id="title22572">txhelpers-&gt;dbtypes</title>
      <path
         d="m 167.5,-421.8314 c 0,0 0,43.8314 0,43.8314 0,0 20.1602,0 41.3442,0"
         id="path22574"
         inkscape:connector-curvature="0"
         style="fill:none;stroke:#3a5fcd" />
      <polygon
         points="171.0001,-421.8314 164.0001,-421.8313 167.5,-431.8314 "
         id="polygon22576"
         style="fill:#3a5fcd;stroke:#3a5fcd" />
    </g>
    <g
       transform="translate(4,500)"
       id="node16"
       class="node">
      <title
         id="title22579">exptypes</title>
      <path
         d="m 108,-252 c 0,0 -96,0 -96,0 -6,0 -12,6 -12,12 0,0 0,12 0,12 0,6 6,12 12,12 0,0 96,0 96,0 6,0 12,-6 12,-12 0,0 0,-12 0,-12 0,-6 -6,-12 -12,-12"
         id="path22581"
         inkscape:connector-curvature="0"
         style="fill:#7fff00;stroke:#000000" />
      <text
         x="60"
         y="-230.3"
         font-size="14.00"
         id="text22583"
         style="font-size:14px;font-family:Times, serif;text-anchor:middle;fill:#000000">explorer/types</text>
    </g>
    <g
       transform="translate(4,500)"
       id="edge7"
       class="edge">
      <title
         id="title22586">txhelpers-&gt;exptypes</title>
      <path
         d="m 78.893,-450 c 0,0 -43.893,0 -43.893,0 0,0 0,146.0421 0,197.9555"
         id="path22588"
         inkscape:connector-curvature="0"
         style="fill:none;stroke:#00fa9a" />
      <polygon
         points="78.893,-446.5001 78.893,-453.5001 88.893,-450 "
         id="polygon22590"
         style="fill:#00fa9a;stroke:#00fa9a" />
    </g>
    <g
       transform="translate(4,500)"
       id="edge6"
       class="edge">
      <title
         id="title22593">exchanges-&gt;exptypes</title>
      <path
         d="m 95,-277.8314 c 0,0 0,25.4181 0,25.4181"
         id="path22595"
         inkscape:connector-curvature="0"
         style="fill:none;stroke:#1e90ff" />
      <polygon
         points="98.5001,-277.8314 91.5001,-277.8313 95,-287.8314 "
         id="polygon22597"
         style="fill:#1e90ff;stroke:#1e90ff" />
    </g>
    <g
       transform="translate(4,500)"
       id="edge20"
       class="edge">
      <title
         id="title22600">exptypes-&gt;pubsubtypes</title>
      <path
         d="m 74.75,-205.8314 c 0,0 0,25.4181 0,25.4181"
         id="path22602"
         inkscape:connector-curvature="0"
         style="fill:none;stroke:#5f9ea0" />
      <polygon
         points="78.2501,-205.8314 71.2501,-205.8313 74.75,-215.8314 "
         id="polygon22604"
         style="fill:#5f9ea0;stroke:#5f9ea0" />
    </g>
    <g
       transform="translate(4,500)"
       id="node18"
       class="node">
      <title
         id="title22607">dbconfig</title>
      <path
         d="m 440,-108 c 0,0 -110,0 -110,0 -6,0 -12,6 -12,12 0,0 0,12 0,12 0,6 6,12 12,12 0,0 110,0 110,0 6,0 12,-6 12,-12 0,0 0,-12 0,-12 0,-6 -6,-12 -12,-12"
         id="path22609"
         inkscape:connector-curvature="0"
         style="fill:#5f9ea0;stroke:#000000" />
      <text
         x="385"
         y="-86.300003"
         font-size="14.00"
         id="text22611"
         style="font-size:14px;font-family:Times, serif;text-anchor:middle;fill:#000000">testutil/dbconfig</text>
    </g>
    <g
       transform="translate(4,500)"
       id="edge4"
       class="edge">
      <title
         id="title22621">dbconfig-&gt;dcrpg</title>
      <path
         d="m 385,-61.8314 c 0,0 0,25.4181 0,25.4181"
         id="path22623"
         inkscape:connector-curvature="0"
         style="fill:none;stroke:#00fa9a" />
      <polygon
         points="388.5001,-61.8314 381.5001,-61.8313 385,-71.8314 "
         id="polygon22625"
         style="fill:#00fa9a;stroke:#00fa9a" />
    </g>
  </g>
</svg>
