<?xml version="1.0" encoding="UTF-8" standalone="no"?>
<!DOCTYPE svg PUBLIC "-//W3C//DTD SVG 1.1//EN"
 "http://www.w3.org/Graphics/SVG/1.1/DTD/svg11.dtd">
<!-- Generated by graphviz version 2.40.1 (20161225.0304)
 -->
<!-- Title: %3 Pages: 1 -->
<svg width="974pt" height="432pt"
 viewBox="0.00 0.00 974.00 432.00" xmlns="http://www.w3.org/2000/svg" xmlns:xlink="http://www.w3.org/1999/xlink">
<g id="graph0" class="graph" transform="scale(1 1) rotate(0) translate(4 428)">
<title>%3</title>
<polygon fill="#ffffff" stroke="#000000" points="-4,4 -4,-428 970,-428 970,4 -4,4"/>
<text text-anchor="start" x="382.5" y="-405.6" font-family="Times,serif" font-size="18.00" fill="#000000">Module Dependencies</text>
<!-- apitypes -->
<g id="node1" class="node">
<title>apitypes</title>
<path fill="#bdb76b" stroke="#000000" d="M731,-396C731,-396 673,-396 673,-396 667,-396 661,-390 661,-384 661,-384 661,-372 661,-372 661,-366 667,-360 673,-360 673,-360 731,-360 731,-360 737,-360 743,-366 743,-372 743,-372 743,-384 743,-384 743,-390 737,-396 731,-396"/>
<text text-anchor="middle" x="702" y="-374.3" font-family="Times,serif" font-size="14.00" fill="#000000">api/types</text>
</g>
<!-- mempool -->
<g id="node2" class="node">
<title>mempool</title>
<path fill="#7fffd4" stroke="#000000" d="M234,-108C234,-108 176,-108 176,-108 170,-108 164,-102 164,-96 164,-96 164,-84 164,-84 164,-78 170,-72 176,-72 176,-72 234,-72 234,-72 240,-72 246,-78 246,-84 246,-84 246,-96 246,-96 246,-102 240,-108 234,-108"/>
<text text-anchor="middle" x="205" y="-86.3" font-family="Times,serif" font-size="14.00" fill="#000000">mempool</text>
</g>
<!-- apitypes&#45;&gt;mempool -->
<g id="edge32" class="edge">
<title>apitypes&#45;&gt;mempool</title>
<path fill="none" stroke="#da70d6" d="M671.625,-349.9364C671.625,-349.9364 671.625,-264 671.625,-264 671.625,-264 213.2,-264 213.2,-264 213.2,-264 213.2,-152.966 213.2,-108.2922"/>
<polygon fill="#da70d6" stroke="#da70d6" points="668.1251,-349.9363 671.625,-359.9364 675.1251,-349.9364 668.1251,-349.9363"/>
</g>
<!-- dcrsqlite -->
<g id="node5" class="node">
<title>dcrsqlite</title>
<path fill="#ffe4e1" stroke="#000000" d="M571,-36C571,-36 493,-36 493,-36 487,-36 481,-30 481,-24 481,-24 481,-12 481,-12 481,-6 487,0 493,0 493,0 571,0 571,0 577,0 583,-6 583,-12 583,-12 583,-24 583,-24 583,-30 577,-36 571,-36"/>
<text text-anchor="middle" x="532" y="-14.3" font-family="Times,serif" font-size="14.00" fill="#000000">db/dcrsqlite</text>
</g>
<!-- apitypes&#45;&gt;dcrsqlite -->
<g id="edge24" class="edge">
<title>apitypes&#45;&gt;dcrsqlite</title>
<path fill="none" stroke="#da70d6" d="M723.25,-349.9526C723.25,-349.9526 723.25,-9 723.25,-9 723.25,-9 639.6553,-9 583.0003,-9"/>
<polygon fill="#da70d6" stroke="#da70d6" points="719.7501,-349.9525 723.25,-359.9526 726.7501,-349.9526 719.7501,-349.9525"/>
</g>
<!-- dcrpg -->
<g id="node7" class="node">
<title>dcrpg</title>
<path fill="#20b2aa" stroke="#000000" d="M836,-36C836,-36 780,-36 780,-36 774,-36 768,-30 768,-24 768,-24 768,-12 768,-12 768,-6 774,0 780,0 780,0 836,0 836,0 842,0 848,-6 848,-12 848,-12 848,-24 848,-24 848,-30 842,-36 836,-36"/>
<text text-anchor="middle" x="808" y="-14.3" font-family="Times,serif" font-size="14.00" fill="#000000">db/dcrpg</text>
</g>
<!-- apitypes&#45;&gt;dcrpg -->
<g id="edge2" class="edge">
<title>apitypes&#45;&gt;dcrpg</title>
<path fill="none" stroke="#ff7f50" d="M729.8333,-349.8323C729.8333,-349.8323 729.8333,-31 729.8333,-31 729.8333,-31 748.4697,-31 767.5429,-31"/>
<polygon fill="#ff7f50" stroke="#ff7f50" points="726.3334,-349.8323 729.8333,-359.8323 733.3334,-349.8324 726.3334,-349.8323"/>
</g>
<!-- dbcache -->
<g id="node8" class="node">
<title>dbcache</title>
<path fill="#c71585" stroke="#000000" d="M912,-324C912,-324 856,-324 856,-324 850,-324 844,-318 844,-312 844,-312 844,-300 844,-300 844,-294 850,-288 856,-288 856,-288 912,-288 912,-288 918,-288 924,-294 924,-300 924,-300 924,-312 924,-312 924,-318 918,-324 912,-324"/>
<text text-anchor="middle" x="884" y="-302.3" font-family="Times,serif" font-size="14.00" fill="#000000">db/cache</text>
</g>
<!-- apitypes&#45;&gt;dbcache -->
<g id="edge9" class="edge">
<title>apitypes&#45;&gt;dbcache</title>
<path fill="none" stroke="#deb887" d="M736.4167,-349.9652C736.4167,-349.9652 736.4167,-312 736.4167,-312 736.4167,-312 799.9755,-312 843.6722,-312"/>
<polygon fill="#deb887" stroke="#deb887" points="732.9168,-349.9652 736.4167,-359.9652 739.9168,-349.9652 732.9168,-349.9652"/>
</g>
<!-- blockdata -->
<g id="node9" class="node">
<title>blockdata</title>
<path fill="#deb887" stroke="#000000" d="M527,-108C527,-108 465,-108 465,-108 459,-108 453,-102 453,-96 453,-96 453,-84 453,-84 453,-78 459,-72 465,-72 465,-72 527,-72 527,-72 533,-72 539,-78 539,-84 539,-84 539,-96 539,-96 539,-102 533,-108 527,-108"/>
<text text-anchor="middle" x="496" y="-86.3" font-family="Times,serif" font-size="14.00" fill="#000000">blockdata</text>
</g>
<!-- apitypes&#45;&gt;blockdata -->
<g id="edge13" class="edge">
<title>apitypes&#45;&gt;blockdata</title>
<path fill="none" stroke="#ffe4c4" d="M716.6667,-349.9306C716.6667,-349.9306 716.6667,-96 716.6667,-96 716.6667,-96 603.2886,-96 539.0706,-96"/>
<polygon fill="#ffe4c4" stroke="#ffe4c4" points="713.1668,-349.9306 716.6667,-359.9306 720.1668,-349.9307 713.1668,-349.9306"/>
</g>
<!-- rpcutils -->
<g id="node10" class="node">
<title>rpcutils</title>
<path fill="#1e90ff" stroke="#000000" d="M691.5,-252C691.5,-252 644.5,-252 644.5,-252 638.5,-252 632.5,-246 632.5,-240 632.5,-240 632.5,-228 632.5,-228 632.5,-222 638.5,-216 644.5,-216 644.5,-216 691.5,-216 691.5,-216 697.5,-216 703.5,-222 703.5,-228 703.5,-228 703.5,-240 703.5,-240 703.5,-246 697.5,-252 691.5,-252"/>
<text text-anchor="middle" x="668" y="-230.3" font-family="Times,serif" font-size="14.00" fill="#000000">rpcutils</text>
</g>
<!-- apitypes&#45;&gt;rpcutils -->
<g id="edge38" class="edge">
<title>apitypes&#45;&gt;rpcutils</title>
<path fill="none" stroke="#20b2aa" d="M692.875,-349.7623C692.875,-349.7623 692.875,-252.0896 692.875,-252.0896"/>
<polygon fill="#20b2aa" stroke="#20b2aa" points="689.3751,-349.7623 692.875,-359.7623 696.3751,-349.7623 689.3751,-349.7623"/>
</g>
<!-- stakedb -->
<g id="node11" class="node">
<title>stakedb</title>
<path fill="#00bfff" stroke="#000000" d="M591.5,-180C591.5,-180 542.5,-180 542.5,-180 536.5,-180 530.5,-174 530.5,-168 530.5,-168 530.5,-156 530.5,-156 530.5,-150 536.5,-144 542.5,-144 542.5,-144 591.5,-144 591.5,-144 597.5,-144 603.5,-150 603.5,-156 603.5,-156 603.5,-168 603.5,-168 603.5,-174 597.5,-180 591.5,-180"/>
<text text-anchor="middle" x="567" y="-158.3" font-family="Times,serif" font-size="14.00" fill="#000000">stakedb</text>
</g>
<!-- apitypes&#45;&gt;stakedb -->
<g id="edge20" class="edge">
<title>apitypes&#45;&gt;stakedb</title>
<path fill="none" stroke="#ff7f50" d="M710.0833,-349.8328C710.0833,-349.8328 710.0833,-156 710.0833,-156 710.0833,-156 646.2421,-156 603.8475,-156"/>
<polygon fill="#ff7f50" stroke="#ff7f50" points="706.5834,-349.8328 710.0833,-359.8328 713.5834,-349.8328 706.5834,-349.8328"/>
</g>
<!-- middleware -->
<g id="node18" class="node">
<title>middleware</title>
<path fill="#3a5fcd" stroke="#000000" d="M850.5,-396C850.5,-396 773.5,-396 773.5,-396 767.5,-396 761.5,-390 761.5,-384 761.5,-384 761.5,-372 761.5,-372 761.5,-366 767.5,-360 773.5,-360 773.5,-360 850.5,-360 850.5,-360 856.5,-360 862.5,-366 862.5,-372 862.5,-372 862.5,-384 862.5,-384 862.5,-390 856.5,-396 850.5,-396"/>
<text text-anchor="middle" x="812" y="-374.3" font-family="Times,serif" font-size="14.00" fill="#000000">middleware</text>
</g>
<!-- apitypes&#45;&gt;middleware -->
<g id="edge1" class="edge">
<title>apitypes&#45;&gt;middleware</title>
<path fill="none" stroke="#7fffd4" d="M753.2729,-378C753.2729,-378 761.2059,-378 761.2059,-378"/>
<polygon fill="#7fffd4" stroke="#7fffd4" points="753.2729,-374.5001 743.2729,-378 753.2729,-381.5001 753.2729,-374.5001"/>
</g>
<!-- pubsub -->
<g id="node3" class="node">
<title>pubsub</title>
<path fill="#ff7f50" stroke="#000000" d="M101.5,-36C101.5,-36 56.5,-36 56.5,-36 50.5,-36 44.5,-30 44.5,-24 44.5,-24 44.5,-12 44.5,-12 44.5,-6 50.5,0 56.5,0 56.5,0 101.5,0 101.5,0 107.5,0 113.5,-6 113.5,-12 113.5,-12 113.5,-24 113.5,-24 113.5,-30 107.5,-36 101.5,-36"/>
<text text-anchor="middle" x="79" y="-14.3" font-family="Times,serif" font-size="14.00" fill="#000000">pubsub</text>
</g>
<!-- mempool&#45;&gt;pubsub -->
<g id="edge45" class="edge">
<title>mempool&#45;&gt;pubsub</title>
<path fill="none" stroke="#5f9ea0" d="M153.9863,-84C153.9863,-84 90.5,-84 90.5,-84 90.5,-84 90.5,-55.5762 90.5,-36.0348"/>
<polygon fill="#5f9ea0" stroke="#5f9ea0" points="153.9863,-87.5001 163.9863,-84 153.9862,-80.5001 153.9863,-87.5001"/>
</g>
<!-- mempool&#45;&gt;dcrsqlite -->
<g id="edge28" class="edge">
<title>mempool&#45;&gt;dcrsqlite</title>
<path fill="none" stroke="#5f9ea0" d="M205,-61.8468C205,-61.8468 205,-10 205,-10 205,-10 388.9375,-10 480.9063,-10"/>
<polygon fill="#5f9ea0" stroke="#5f9ea0" points="201.5001,-61.8467 205,-71.8468 208.5001,-61.8468 201.5001,-61.8467"/>
</g>
<!-- pubsubtypes -->
<g id="node4" class="node">
<title>pubsubtypes</title>
<path fill="#ffa07a" stroke="#000000" d="M119.5,-180C119.5,-180 30.5,-180 30.5,-180 24.5,-180 18.5,-174 18.5,-168 18.5,-168 18.5,-156 18.5,-156 18.5,-150 24.5,-144 30.5,-144 30.5,-144 119.5,-144 119.5,-144 125.5,-144 131.5,-150 131.5,-156 131.5,-156 131.5,-168 131.5,-168 131.5,-174 125.5,-180 119.5,-180"/>
<text text-anchor="middle" x="75" y="-158.3" font-family="Times,serif" font-size="14.00" fill="#000000">pubsub/types</text>
</g>
<!-- pubsubtypes&#45;&gt;mempool -->
<g id="edge35" class="edge">
<title>pubsubtypes&#45;&gt;mempool</title>
<path fill="none" stroke="#5f9ea0" d="M122.5,-133.9652C122.5,-133.9652 122.5,-96 122.5,-96 122.5,-96 143.125,-96 163.75,-96"/>
<polygon fill="#5f9ea0" stroke="#5f9ea0" points="119.0001,-133.9652 122.5,-143.9652 126.0001,-133.9652 119.0001,-133.9652"/>
</g>
<!-- pubsubtypes&#45;&gt;pubsub -->
<g id="edge46" class="edge">
<title>pubsubtypes&#45;&gt;pubsub</title>
<path fill="none" stroke="#9370db" d="M67.5,-133.7623C67.5,-133.7623 67.5,-36.0896 67.5,-36.0896"/>
<polygon fill="#9370db" stroke="#9370db" points="64.0001,-133.7623 67.5,-143.7623 71.0001,-133.7623 64.0001,-133.7623"/>
</g>
<!-- dbtypes -->
<g id="node6" class="node">
<title>dbtypes</title>
<path fill="#9370db" stroke="#000000" d="M581,-396C581,-396 509,-396 509,-396 503,-396 497,-390 497,-384 497,-384 497,-372 497,-372 497,-366 503,-360 509,-360 509,-360 581,-360 581,-360 587,-360 593,-366 593,-372 593,-372 593,-384 593,-384 593,-390 587,-396 581,-396"/>
<text text-anchor="middle" x="545" y="-374.3" font-family="Times,serif" font-size="14.00" fill="#000000">db/dbtypes</text>
</g>
<!-- dbtypes&#45;&gt;apitypes -->
<g id="edge18" class="edge">
<title>dbtypes&#45;&gt;apitypes</title>
<path fill="none" stroke="#da70d6" d="M603.3862,-388C603.3862,-388 660.9167,-388 660.9167,-388"/>
<polygon fill="#da70d6" stroke="#da70d6" points="603.3863,-384.5001 593.3862,-388 603.3862,-391.5001 603.3863,-384.5001"/>
</g>
<!-- dbtypes&#45;&gt;mempool -->
<g id="edge33" class="edge">
<title>dbtypes&#45;&gt;mempool</title>
<path fill="none" stroke="#da70d6" d="M486.6061,-384C486.6061,-384 399.6667,-384 399.6667,-384 399.6667,-384 399.6667,-90 399.6667,-90 399.6667,-90 303.4264,-90 246.2838,-90"/>
<polygon fill="#da70d6" stroke="#da70d6" points="486.6061,-387.5001 496.6061,-384 486.6061,-380.5001 486.6061,-387.5001"/>
</g>
<!-- dbtypes&#45;&gt;pubsub -->
<g id="edge43" class="edge">
<title>dbtypes&#45;&gt;pubsub</title>
<path fill="none" stroke="#5f9ea0" d="M486.7337,-378C486.7337,-378 426.3333,-378 426.3333,-378 426.3333,-378 426.3333,-25 426.3333,-25 426.3333,-25 201.4274,-25 113.5735,-25"/>
<polygon fill="#5f9ea0" stroke="#5f9ea0" points="486.7338,-381.5001 496.7337,-378 486.7337,-374.5001 486.7338,-381.5001"/>
</g>
<!-- dbtypes&#45;&gt;dcrsqlite -->
<g id="edge26" class="edge">
<title>dbtypes&#45;&gt;dcrsqlite</title>
<path fill="none" stroke="#cd5c5c" d="M603.1302,-367C603.1302,-367 610.75,-367 610.75,-367 610.75,-367 610.75,-27 610.75,-27 610.75,-27 598.2482,-27 583.2071,-27"/>
<polygon fill="#cd5c5c" stroke="#cd5c5c" points="603.1302,-363.5001 593.1302,-367 603.1302,-370.5001 603.1302,-363.5001"/>
</g>
<!-- dbtypes&#45;&gt;dcrpg -->
<g id="edge5" class="edge">
<title>dbtypes&#45;&gt;dcrpg</title>
<path fill="none" stroke="#7fffd4" d="M603.2855,-374C603.2855,-374 618,-374 618,-374 618,-374 618,-18 618,-18 618,-18 711.9331,-18 767.7059,-18"/>
<polygon fill="#7fffd4" stroke="#7fffd4" points="603.2856,-370.5001 593.2855,-374 603.2855,-377.5001 603.2856,-370.5001"/>
</g>
<!-- dbtypes&#45;&gt;dbcache -->
<g id="edge10" class="edge">
<title>dbtypes&#45;&gt;dbcache</title>
<path fill="none" stroke="#deb887" d="M603.0717,-381C603.0717,-381 625.25,-381 625.25,-381 625.25,-381 625.25,-300 625.25,-300 625.25,-300 771.1762,-300 843.8542,-300"/>
<polygon fill="#deb887" stroke="#deb887" points="603.0717,-377.5001 593.0717,-381 603.0716,-384.5001 603.0717,-377.5001"/>
</g>
<!-- dbtypes&#45;&gt;blockdata -->
<g id="edge14" class="edge">
<title>dbtypes&#45;&gt;blockdata</title>
<path fill="none" stroke="#ffd700" d="M486.6868,-366C486.6868,-366 479,-366 479,-366 479,-366 479,-169.5117 479,-108.1091"/>
<polygon fill="#ffd700" stroke="#ffd700" points="486.6868,-369.5001 496.6868,-366 486.6868,-362.5001 486.6868,-369.5001"/>
</g>
<!-- govagendas -->
<g id="node12" class="node">
<title>govagendas</title>
<path fill="#00fa9a" stroke="#000000" d="M586,-324C586,-324 504,-324 504,-324 498,-324 492,-318 492,-312 492,-312 492,-300 492,-300 492,-294 498,-288 504,-288 504,-288 586,-288 586,-288 592,-288 598,-294 598,-300 598,-300 598,-312 598,-312 598,-318 592,-324 586,-324"/>
<text text-anchor="middle" x="545" y="-302.3" font-family="Times,serif" font-size="14.00" fill="#000000">gov/agendas</text>
</g>
<!-- dbtypes&#45;&gt;govagendas -->
<g id="edge40" class="edge">
<title>dbtypes&#45;&gt;govagendas</title>
<path fill="none" stroke="#3a5fcd" d="M545,-349.8314C545,-349.8314 545,-324.4133 545,-324.4133"/>
<polygon fill="#3a5fcd" stroke="#3a5fcd" points="541.5001,-349.8313 545,-359.8314 548.5001,-349.8314 541.5001,-349.8313"/>
</g>
<!-- dbcache&#45;&gt;dcrpg -->
<g id="edge4" class="edge">
<title>dbcache&#45;&gt;dcrpg</title>
<path fill="none" stroke="#5f9ea0" d="M857,-277.9843C857,-277.9843 857,-18 857,-18 857,-18 853.3364,-18 848.0126,-18"/>
<polygon fill="#5f9ea0" stroke="#5f9ea0" points="853.5001,-277.9843 857,-287.9843 860.5001,-277.9843 853.5001,-277.9843"/>
</g>
<!-- blockdata&#45;&gt;pubsub -->
<g id="edge42" class="edge">
<title>blockdata&#45;&gt;pubsub</title>
<path fill="none" stroke="#ff7f50" d="M467,-61.9737C467,-61.9737 467,-5 467,-5 467,-5 209.0089,-5 113.7739,-5"/>
<polygon fill="#ff7f50" stroke="#ff7f50" points="463.5001,-61.9737 467,-71.9737 470.5001,-61.9737 463.5001,-61.9737"/>
</g>
<!-- blockdata&#45;&gt;dcrsqlite -->
<g id="edge25" class="edge">
<title>blockdata&#45;&gt;dcrsqlite</title>
<path fill="none" stroke="#da70d6" d="M510,-61.8314C510,-61.8314 510,-36.4133 510,-36.4133"/>
<polygon fill="#da70d6" stroke="#da70d6" points="506.5001,-61.8313 510,-71.8314 513.5001,-61.8314 506.5001,-61.8313"/>
</g>
<!-- blockdata&#45;&gt;dcrpg -->
<g id="edge3" class="edge">
<title>blockdata&#45;&gt;dcrpg</title>
<path fill="none" stroke="#ff7f50" d="M549.2348,-84C549.2348,-84 793.3333,-84 793.3333,-84 793.3333,-84 793.3333,-55.5762 793.3333,-36.0348"/>
<polygon fill="#ff7f50" stroke="#ff7f50" points="549.2349,-80.5001 539.2348,-84 549.2348,-87.5001 549.2349,-80.5001"/>
</g>
<!-- rpcutils&#45;&gt;mempool -->
<g id="edge36" class="edge">
<title>rpcutils&#45;&gt;mempool</title>
<path fill="none" stroke="#7fffd4" d="M622.4952,-230C622.4952,-230 229.6,-230 229.6,-230 229.6,-230 229.6,-145.8277 229.6,-108.0159"/>
<polygon fill="#7fffd4" stroke="#7fffd4" points="622.4953,-233.5001 632.4952,-230 622.4952,-226.5001 622.4953,-233.5001"/>
</g>
<!-- rpcutils&#45;&gt;dcrsqlite -->
<g id="edge29" class="edge">
<title>rpcutils&#45;&gt;dcrsqlite</title>
<path fill="none" stroke="#7fffd4" d="M668,-205.9146C668,-205.9146 668,-13 668,-13 668,-13 621.6189,-13 583.0283,-13"/>
<polygon fill="#7fffd4" stroke="#7fffd4" points="664.5001,-205.9146 668,-215.9146 671.5001,-205.9147 664.5001,-205.9146"/>
</g>
<!-- rpcutils&#45;&gt;dcrpg -->
<g id="edge6" class="edge">
<title>rpcutils&#45;&gt;dcrpg</title>
<path fill="none" stroke="#5f9ea0" d="M685.75,-205.925C685.75,-205.925 685.75,-22 685.75,-22 685.75,-22 732.3175,-22 767.9708,-22"/>
<polygon fill="#5f9ea0" stroke="#5f9ea0" points="682.2501,-205.925 685.75,-215.925 689.2501,-205.925 682.2501,-205.925"/>
</g>
<!-- rpcutils&#45;&gt;stakedb -->
<g id="edge21" class="edge">
<title>rpcutils&#45;&gt;stakedb</title>
<path fill="none" stroke="#5f9ea0" d="M650.25,-205.9652C650.25,-205.9652 650.25,-168 650.25,-168 650.25,-168 626.0585,-168 603.757,-168"/>
<polygon fill="#5f9ea0" stroke="#5f9ea0" points="646.7501,-205.9652 650.25,-215.9652 653.7501,-205.9652 646.7501,-205.9652"/>
</g>
<!-- stakedb&#45;&gt;dcrsqlite -->
<g id="edge30" class="edge">
<title>stakedb&#45;&gt;dcrsqlite</title>
<path fill="none" stroke="#5f9ea0" d="M561,-133.7623C561,-133.7623 561,-36.0896 561,-36.0896"/>
<polygon fill="#5f9ea0" stroke="#5f9ea0" points="557.5001,-133.7623 561,-143.7623 564.5001,-133.7623 557.5001,-133.7623"/>
</g>
<!-- stakedb&#45;&gt;dcrpg -->
<g id="edge7" class="edge">
<title>stakedb&#45;&gt;dcrpg</title>
<path fill="none" stroke="#20b2aa" d="M593.25,-133.8754C593.25,-133.8754 593.25,-4 593.25,-4 593.25,-4 705.7026,-4 767.8591,-4"/>
<polygon fill="#20b2aa" stroke="#20b2aa" points="589.7501,-133.8754 593.25,-143.8754 596.7501,-133.8754 589.7501,-133.8754"/>
</g>
<!-- stakedb&#45;&gt;blockdata -->
<g id="edge15" class="edge">
<title>stakedb&#45;&gt;blockdata</title>
<path fill="none" stroke="#7fff00" d="M534.75,-133.8314C534.75,-133.8314 534.75,-108.4133 534.75,-108.4133"/>
<polygon fill="#7fff00" stroke="#7fff00" points="531.2501,-133.8313 534.75,-143.8314 538.2501,-133.8314 531.2501,-133.8313"/>
</g>
<!-- govpoliteia -->
<g id="node13" class="node">
<title>govpoliteia</title>
<path fill="#ffe4c4" stroke="#000000" d="M954,-36C954,-36 878,-36 878,-36 872,-36 866,-30 866,-24 866,-24 866,-12 866,-12 866,-6 872,0 878,0 878,0 954,0 954,0 960,0 966,-6 966,-12 966,-12 966,-24 966,-24 966,-30 960,-36 954,-36"/>
<text text-anchor="middle" x="916" y="-14.3" font-family="Times,serif" font-size="14.00" fill="#000000">gov/politeia</text>
</g>
<!-- dcrrates -->
<g id="node14" class="node">
<title>dcrrates</title>
<path fill="#ffd700" stroke="#000000" d="M74.5,-396C74.5,-396 21.5,-396 21.5,-396 15.5,-396 9.5,-390 9.5,-384 9.5,-384 9.5,-372 9.5,-372 9.5,-366 15.5,-360 21.5,-360 21.5,-360 74.5,-360 74.5,-360 80.5,-360 86.5,-366 86.5,-372 86.5,-372 86.5,-384 86.5,-384 86.5,-390 80.5,-396 74.5,-396"/>
<text text-anchor="middle" x="48" y="-374.3" font-family="Times,serif" font-size="14.00" fill="#000000">dcrrates</text>
</g>
<!-- exchanges -->
<g id="node16" class="node">
<title>exchanges</title>
<path fill="#708090" stroke="#000000" d="M82,-324C82,-324 14,-324 14,-324 8,-324 2,-318 2,-312 2,-312 2,-300 2,-300 2,-294 8,-288 14,-288 14,-288 82,-288 82,-288 88,-288 94,-294 94,-300 94,-300 94,-312 94,-312 94,-318 88,-324 82,-324"/>
<text text-anchor="middle" x="48" y="-302.3" font-family="Times,serif" font-size="14.00" fill="#000000">exchanges</text>
</g>
<!-- dcrrates&#45;&gt;exchanges -->
<g id="edge17" class="edge">
<title>dcrrates&#45;&gt;exchanges</title>
<path fill="none" stroke="#da70d6" d="M48,-349.8314C48,-349.8314 48,-324.4133 48,-324.4133"/>
<polygon fill="#da70d6" stroke="#da70d6" points="44.5001,-349.8313 48,-359.8314 51.5001,-349.8314 44.5001,-349.8313"/>
</g>
<!-- txhelpers -->
<g id="node15" class="node">
<title>txhelpers</title>
<path fill="#da70d6" stroke="#000000" d="M361,-396C361,-396 301,-396 301,-396 295,-396 289,-390 289,-384 289,-384 289,-372 289,-372 289,-366 295,-360 301,-360 301,-360 361,-360 361,-360 367,-360 373,-366 373,-372 373,-372 373,-384 373,-384 373,-390 367,-396 361,-396"/>
<text text-anchor="middle" x="331" y="-374.3" font-family="Times,serif" font-size="14.00" fill="#000000">txhelpers</text>
</g>
<!-- txhelpers&#45;&gt;apitypes -->
<g id="edge19" class="edge">
<title>txhelpers&#45;&gt;apitypes</title>
<path fill="none" stroke="#7fffd4" d="M361,-349.5782C361,-349.5782 361,-342 361,-342 361,-342 682.25,-342 682.25,-342 682.25,-342 682.25,-350.7209 682.25,-359.5782"/>
<polygon fill="#7fffd4" stroke="#7fffd4" points="357.5001,-349.5781 361,-359.5782 364.5001,-349.5782 357.5001,-349.5781"/>
</g>
<!-- txhelpers&#45;&gt;mempool -->
<g id="edge37" class="edge">
<title>txhelpers&#45;&gt;mempool</title>
<path fill="none" stroke="#5f9ea0" d="M278.9065,-372C278.9065,-372 196.8,-372 196.8,-372 196.8,-372 196.8,-170.3097 196.8,-108.0694"/>
<polygon fill="#5f9ea0" stroke="#5f9ea0" points="278.9065,-375.5001 288.9065,-372 278.9065,-368.5001 278.9065,-375.5001"/>
</g>
<!-- txhelpers&#45;&gt;pubsub -->
<g id="edge47" class="edge">
<title>txhelpers&#45;&gt;pubsub</title>
<path fill="none" stroke="#20b2aa" d="M301,-349.78C301,-349.78 301,-30 301,-30 301,-30 176.125,-30 113.6875,-30"/>
<polygon fill="#20b2aa" stroke="#20b2aa" points="297.5001,-349.7799 301,-359.78 304.5001,-349.78 297.5001,-349.7799"/>
</g>
<!-- txhelpers&#45;&gt;dcrsqlite -->
<g id="edge31" class="edge">
<title>txhelpers&#45;&gt;dcrsqlite</title>
<path fill="none" stroke="#1e90ff" d="M313,-349.7545C313,-349.7545 313,-20 313,-20 313,-20 416.2179,-20 480.9306,-20"/>
<polygon fill="#1e90ff" stroke="#1e90ff" points="309.5001,-349.7545 313,-359.7545 316.5001,-349.7546 309.5001,-349.7545"/>
</g>
<!-- txhelpers&#45;&gt;dbtypes -->
<g id="edge23" class="edge">
<title>txhelpers&#45;&gt;dbtypes</title>
<path fill="none" stroke="#3a5fcd" d="M383.0242,-390C383.0242,-390 496.7178,-390 496.7178,-390"/>
<polygon fill="#3a5fcd" stroke="#3a5fcd" points="383.0242,-386.5001 373.0242,-390 383.0241,-393.5001 383.0242,-386.5001"/>
</g>
<!-- txhelpers&#45;&gt;dcrpg -->
<g id="edge8" class="edge">
<title>txhelpers&#45;&gt;dcrpg</title>
<path fill="none" stroke="#c71585" d="M349,-349.7644C349,-349.7644 349,-276 349,-276 349,-276 818.6667,-276 818.6667,-276 818.6667,-276 818.6667,-94.8683 818.6667,-36.1421"/>
<polygon fill="#c71585" stroke="#c71585" points="345.5001,-349.7644 349,-359.7644 352.5001,-349.7645 345.5001,-349.7644"/>
</g>
<!-- txhelpers&#45;&gt;blockdata -->
<g id="edge16" class="edge">
<title>txhelpers&#45;&gt;blockdata</title>
<path fill="none" stroke="#3a5fcd" d="M383.3444,-372C383.3444,-372 466,-372 466,-372 466,-372 466,-170.3097 466,-108.0694"/>
<polygon fill="#3a5fcd" stroke="#3a5fcd" points="383.3445,-368.5001 373.3444,-372 383.3444,-375.5001 383.3445,-368.5001"/>
</g>
<!-- txhelpers&#45;&gt;rpcutils -->
<g id="edge39" class="edge">
<title>txhelpers&#45;&gt;rpcutils</title>
<path fill="none" stroke="#deb887" d="M337,-349.8554C337,-349.8554 337,-237 337,-237 337,-237 546.6734,-237 632.2627,-237"/>
<polygon fill="#deb887" stroke="#deb887" points="333.5001,-349.8553 337,-359.8554 340.5001,-349.8554 333.5001,-349.8553"/>
</g>
<!-- txhelpers&#45;&gt;stakedb -->
<g id="edge22" class="edge">
<title>txhelpers&#45;&gt;stakedb</title>
<path fill="none" stroke="#7fffd4" d="M325,-349.9555C325,-349.9555 325,-162 325,-162 325,-162 462.5467,-162 530.2454,-162"/>
<polygon fill="#7fffd4" stroke="#7fffd4" points="321.5001,-349.9554 325,-359.9555 328.5001,-349.9555 321.5001,-349.9554"/>
</g>
<!-- exptypes -->
<g id="node17" class="node">
<title>exptypes</title>
<path fill="#7fff00" stroke="#000000" d="M108,-252C108,-252 12,-252 12,-252 6,-252 0,-246 0,-240 0,-240 0,-228 0,-228 0,-222 6,-216 12,-216 12,-216 108,-216 108,-216 114,-216 120,-222 120,-228 120,-228 120,-240 120,-240 120,-246 114,-252 108,-252"/>
<text text-anchor="middle" x="60" y="-230.3" font-family="Times,serif" font-size="14.00" fill="#000000">explorer/types</text>
</g>
<!-- txhelpers&#45;&gt;exptypes -->
<g id="edge12" class="edge">
<title>txhelpers&#45;&gt;exptypes</title>
<path fill="none" stroke="#00fa9a" d="M278.8673,-384C278.8673,-384 107,-384 107,-384 107,-384 107,-291.9889 107,-252.0935"/>
<polygon fill="#00fa9a" stroke="#00fa9a" points="278.8673,-387.5001 288.8673,-384 278.8673,-380.5001 278.8673,-387.5001"/>
</g>
<!-- exchanges&#45;&gt;exptypes -->
<g id="edge11" class="edge">
<title>exchanges&#45;&gt;exptypes</title>
<path fill="none" stroke="#1e90ff" d="M48,-277.8314C48,-277.8314 48,-252.4133 48,-252.4133"/>
<polygon fill="#1e90ff" stroke="#1e90ff" points="44.5001,-277.8313 48,-287.8314 51.5001,-277.8314 44.5001,-277.8313"/>
</g>
<!-- exptypes&#45;&gt;mempool -->
<g id="edge34" class="edge">
<title>exptypes&#45;&gt;mempool</title>
<path fill="none" stroke="#ff7f50" d="M130.2,-223C130.2,-223 180.4,-223 180.4,-223 180.4,-223 180.4,-144.6396 180.4,-108.2142"/>
<polygon fill="#ff7f50" stroke="#ff7f50" points="130.2,-219.5001 120.2,-223 130.2,-226.5001 130.2,-219.5001"/>
</g>
<!-- exptypes&#45;&gt;pubsub -->
<g id="edge44" class="edge">
<title>exptypes&#45;&gt;pubsub</title>
<path fill="none" stroke="#7fffd4" d="M9.25,-205.9555C9.25,-205.9555 9.25,-18 9.25,-18 9.25,-18 26.6875,-18 44.125,-18"/>
<polygon fill="#7fffd4" stroke="#7fffd4" points="5.7501,-205.9554 9.25,-215.9555 12.7501,-205.9555 5.7501,-205.9554"/>
</g>
<!-- exptypes&#45;&gt;pubsubtypes -->
<g id="edge41" class="edge">
<title>exptypes&#45;&gt;pubsubtypes</title>
<path fill="none" stroke="#5f9ea0" d="M69.25,-205.8314C69.25,-205.8314 69.25,-180.4133 69.25,-180.4133"/>
<polygon fill="#5f9ea0" stroke="#5f9ea0" points="65.7501,-205.8313 69.25,-215.8314 72.7501,-205.8314 65.7501,-205.8313"/>
</g>
<!-- exptypes&#45;&gt;dcrsqlite -->
<g id="edge27" class="edge">
<title>exptypes&#45;&gt;dcrsqlite</title>
<path fill="none" stroke="#ff7f50" d="M130.0176,-244C130.0176,-244 267.5,-244 267.5,-244 267.5,-244 267.5,-15 267.5,-15 267.5,-15 403.7701,-15 480.6881,-15"/>
<polygon fill="#ff7f50" stroke="#ff7f50" points="130.0176,-240.5001 120.0176,-244 130.0176,-247.5001 130.0176,-240.5001"/>
</g>
</g>
</svg>
