<?xml version="1.0" encoding="UTF-8" standalone="no"?>
<!DOCTYPE svg PUBLIC "-//W3C//DTD SVG 1.1//EN"
 "http://www.w3.org/Graphics/SVG/1.1/DTD/svg11.dtd">
<!-- Generated by graphviz version 2.40.1 (0)
 -->
<!-- Title: %3 Pages: 1 -->
<svg width="473pt" height="504pt"
 viewBox="0.00 0.00 473.00 504.00" xmlns="http://www.w3.org/2000/svg" xmlns:xlink="http://www.w3.org/1999/xlink">
<g id="graph0" class="graph" transform="scale(1 1) rotate(0) translate(4 500)">
<title>%3</title>
<polygon fill="#ffffff" stroke="#000000" points="-4,4 -4,-500 469,-500 469,4 -4,4"/>
<text text-anchor="start" x="94.5" y="-477.6" font-family="Times,serif" font-size="18.00" fill="#000000">dcrdata Module Dependencies</text>
<!-- apitypes -->
<g id="node1" class="node">
<title>apitypes</title>
<path fill="#bdb76b" stroke="#000000" d="M201,-324C201,-324 143,-324 143,-324 137,-324 131,-318 131,-312 131,-312 131,-300 131,-300 131,-294 137,-288 143,-288 143,-288 201,-288 201,-288 207,-288 213,-294 213,-300 213,-300 213,-312 213,-312 213,-318 207,-324 201,-324"/>
<text text-anchor="middle" x="172" y="-302.3" font-family="Times,serif" font-size="14.00" fill="#000000">api/types</text>
</g>
<!-- dbcache -->
<g id="node8" class="node">
<title>dbcache</title>
<path fill="#c71585" stroke="#000000" d="M102,-180C102,-180 46,-180 46,-180 40,-180 34,-174 34,-168 34,-168 34,-156 34,-156 34,-150 40,-144 46,-144 46,-144 102,-144 102,-144 108,-144 114,-150 114,-156 114,-156 114,-168 114,-168 114,-174 108,-180 102,-180"/>
<text text-anchor="middle" x="74" y="-158.3" font-family="Times,serif" font-size="14.00" fill="#000000">db/cache</text>
</g>
<!-- apitypes&#45;&gt;dbcache -->
<g id="edge5" class="edge">
<title>apitypes&#45;&gt;dbcache</title>
<path fill="none" stroke="#deb887" d="M120.7232,-306C120.7232,-306 74,-306 74,-306 74,-306 74,-218.9861 74,-180.2377"/>
<polygon fill="#deb887" stroke="#deb887" points="120.7232,-309.5001 130.7232,-306 120.7232,-302.5001 120.7232,-309.5001"/>
</g>
<!-- rpcutils -->
<g id="node10" class="node">
<title>rpcutils</title>
<path fill="#1e90ff" stroke="#000000" d="M195.5,-252C195.5,-252 148.5,-252 148.5,-252 142.5,-252 136.5,-246 136.5,-240 136.5,-240 136.5,-228 136.5,-228 136.5,-222 142.5,-216 148.5,-216 148.5,-216 195.5,-216 195.5,-216 201.5,-216 207.5,-222 207.5,-228 207.5,-228 207.5,-240 207.5,-240 207.5,-246 201.5,-252 195.5,-252"/>
<text text-anchor="middle" x="172" y="-230.3" font-family="Times,serif" font-size="14.00" fill="#000000">rpcutils</text>
</g>
<!-- apitypes&#45;&gt;rpcutils -->
<g id="edge18" class="edge">
<title>apitypes&#45;&gt;rpcutils</title>
<path fill="none" stroke="#20b2aa" d="M172,-277.8314C172,-277.8314 172,-252.4133 172,-252.4133"/>
<polygon fill="#20b2aa" stroke="#20b2aa" points="168.5001,-277.8313 172,-287.8314 175.5001,-277.8314 168.5001,-277.8313"/>
</g>
<!-- middleware -->
<g id="node17" class="node">
<title>middleware</title>
<path fill="#3a5fcd" stroke="#000000" d="M314.5,-252C314.5,-252 237.5,-252 237.5,-252 231.5,-252 225.5,-246 225.5,-240 225.5,-240 225.5,-228 225.5,-228 225.5,-222 231.5,-216 237.5,-216 237.5,-216 314.5,-216 314.5,-216 320.5,-216 326.5,-222 326.5,-228 326.5,-228 326.5,-240 326.5,-240 326.5,-246 320.5,-252 314.5,-252"/>
<text text-anchor="middle" x="276" y="-230.3" font-family="Times,serif" font-size="14.00" fill="#000000">middleware</text>
</g>
<!-- apitypes&#45;&gt;middleware -->
<g id="edge1" class="edge">
<title>apitypes&#45;&gt;middleware</title>
<path fill="none" stroke="#7fffd4" d="M216.7816,-300C216.7816,-300 217.1667,-300 217.1667,-300 217.1667,-300 217.1667,-234 217.1667,-234 217.1667,-234 220.3985,-234 225.3472,-234"/>
<polygon fill="#7fffd4" stroke="#7fffd4" points="223.3159,-296.5003 213.3158,-300 223.3157,-303.5003 223.3159,-296.5003"/>
</g>
<!-- mempool -->
<g id="node2" class="node">
<title>mempool</title>
<path fill="#7fffd4" stroke="#000000" d="M344,-108C344,-108 286,-108 286,-108 280,-108 274,-102 274,-96 274,-96 274,-84 274,-84 274,-78 280,-72 286,-72 286,-72 344,-72 344,-72 350,-72 356,-78 356,-84 356,-84 356,-96 356,-96 356,-102 350,-108 344,-108"/>
<text text-anchor="middle" x="315" y="-86.3" font-family="Times,serif" font-size="14.00" fill="#000000">mempool</text>
</g>
<!-- pubsub -->
<g id="node3" class="node">
<title>pubsub</title>
<path fill="#ff7f50" stroke="#000000" d="M338.5,-36C338.5,-36 293.5,-36 293.5,-36 287.5,-36 281.5,-30 281.5,-24 281.5,-24 281.5,-12 281.5,-12 281.5,-6 287.5,0 293.5,0 293.5,0 338.5,0 338.5,0 344.5,0 350.5,-6 350.5,-12 350.5,-12 350.5,-24 350.5,-24 350.5,-30 344.5,-36 338.5,-36"/>
<text text-anchor="middle" x="316" y="-14.3" font-family="Times,serif" font-size="14.00" fill="#000000">pubsub</text>
</g>
<!-- mempool&#45;&gt;pubsub -->
<g id="edge22" class="edge">
<title>mempool&#45;&gt;pubsub</title>
<path fill="none" stroke="#5f9ea0" d="M316,-61.8314C316,-61.8314 316,-36.4133 316,-36.4133"/>
<polygon fill="#5f9ea0" stroke="#5f9ea0" points="312.5001,-61.8313 316,-71.8314 319.5001,-61.8314 312.5001,-61.8313"/>
</g>
<!-- dcrsqlite -->
<g id="node5" class="node">
<title>dcrsqlite</title>
<path fill="#ffe4e1" stroke="#000000" d="M251,-36C251,-36 173,-36 173,-36 167,-36 161,-30 161,-24 161,-24 161,-12 161,-12 161,-6 167,0 173,0 173,0 251,0 251,0 257,0 263,-6 263,-12 263,-12 263,-24 263,-24 263,-30 257,-36 251,-36"/>
<text text-anchor="middle" x="212" y="-14.3" font-family="Times,serif" font-size="14.00" fill="#000000">db/dcrsqlite</text>
</g>
<!-- mempool&#45;&gt;dcrsqlite -->
<g id="edge14" class="edge">
<title>mempool&#45;&gt;dcrsqlite</title>
<path fill="none" stroke="#5f9ea0" d="M277.75,-61.9092C277.75,-61.9092 277.75,-12 277.75,-12 277.75,-12 271.6461,-12 263.1579,-12"/>
<polygon fill="#5f9ea0" stroke="#5f9ea0" points="274.2501,-61.9091 277.75,-71.9092 281.2501,-61.9092 274.2501,-61.9091"/>
</g>
<!-- pubsubtypes -->
<g id="node4" class="node">
<title>pubsubtypes</title>
<path fill="#ffa07a" stroke="#000000" d="M428.5,-180C428.5,-180 339.5,-180 339.5,-180 333.5,-180 327.5,-174 327.5,-168 327.5,-168 327.5,-156 327.5,-156 327.5,-150 333.5,-144 339.5,-144 339.5,-144 428.5,-144 428.5,-144 434.5,-144 440.5,-150 440.5,-156 440.5,-156 440.5,-168 440.5,-168 440.5,-174 434.5,-180 428.5,-180"/>
<text text-anchor="middle" x="384" y="-158.3" font-family="Times,serif" font-size="14.00" fill="#000000">pubsub/types</text>
</g>
<!-- pubsubtypes&#45;&gt;mempool -->
<g id="edge16" class="edge">
<title>pubsubtypes&#45;&gt;mempool</title>
<path fill="none" stroke="#5f9ea0" d="M341.75,-133.8314C341.75,-133.8314 341.75,-108.4133 341.75,-108.4133"/>
<polygon fill="#5f9ea0" stroke="#5f9ea0" points="338.2501,-133.8313 341.75,-143.8314 345.2501,-133.8314 338.2501,-133.8313"/>
</g>
<!-- pubsubtypes&#45;&gt;pubsub -->
<g id="edge23" class="edge">
<title>pubsubtypes&#45;&gt;pubsub</title>
<path fill="none" stroke="#9370db" d="M398.25,-133.7623C398.25,-133.7623 398.25,-18 398.25,-18 398.25,-18 373.2986,-18 350.8814,-18"/>
<polygon fill="#9370db" stroke="#9370db" points="394.7501,-133.7623 398.25,-143.7623 401.7501,-133.7623 394.7501,-133.7623"/>
</g>
<!-- dbtypes -->
<g id="node6" class="node">
<title>dbtypes</title>
<path fill="#9370db" stroke="#000000" d="M292,-396C292,-396 220,-396 220,-396 214,-396 208,-390 208,-384 208,-384 208,-372 208,-372 208,-366 214,-360 220,-360 220,-360 292,-360 292,-360 298,-360 304,-366 304,-372 304,-372 304,-384 304,-384 304,-390 298,-396 292,-396"/>
<text text-anchor="middle" x="256" y="-374.3" font-family="Times,serif" font-size="14.00" fill="#000000">db/dbtypes</text>
</g>
<!-- dbtypes&#45;&gt;apitypes -->
<g id="edge10" class="edge">
<title>dbtypes&#45;&gt;apitypes</title>
<path fill="none" stroke="#da70d6" d="M221.3333,-349.9652C221.3333,-349.9652 221.3333,-312 221.3333,-312 221.3333,-312 218.0543,-312 213.1869,-312"/>
<polygon fill="#da70d6" stroke="#da70d6" points="217.8334,-349.9652 221.3333,-359.9652 224.8334,-349.9652 217.8334,-349.9652"/>
</g>
<!-- gov -->
<g id="node12" class="node">
<title>gov</title>
<path fill="#00fa9a" stroke="#000000" d="M273,-324C273,-324 243,-324 243,-324 237,-324 231,-318 231,-312 231,-312 231,-300 231,-300 231,-294 237,-288 243,-288 243,-288 273,-288 273,-288 279,-288 285,-294 285,-300 285,-300 285,-312 285,-312 285,-318 279,-324 273,-324"/>
<text text-anchor="middle" x="258" y="-302.3" font-family="Times,serif" font-size="14.00" fill="#000000">gov</text>
</g>
<!-- dbtypes&#45;&gt;gov -->
<g id="edge19" class="edge">
<title>dbtypes&#45;&gt;gov</title>
<path fill="none" stroke="#3a5fcd" d="M258,-349.8314C258,-349.8314 258,-324.4133 258,-324.4133"/>
<polygon fill="#3a5fcd" stroke="#3a5fcd" points="254.5001,-349.8313 258,-359.8314 261.5001,-349.8314 254.5001,-349.8313"/>
</g>
<!-- dcrpg -->
<g id="node7" class="node">
<title>dcrpg</title>
<path fill="#20b2aa" stroke="#000000" d="M113,-36C113,-36 57,-36 57,-36 51,-36 45,-30 45,-24 45,-24 45,-12 45,-12 45,-6 51,0 57,0 57,0 113,0 113,0 119,0 125,-6 125,-12 125,-12 125,-24 125,-24 125,-30 119,-36 113,-36"/>
<text text-anchor="middle" x="85" y="-14.3" font-family="Times,serif" font-size="14.00" fill="#000000">db/dcrpg</text>
</g>
<!-- dbcache&#45;&gt;dcrpg -->
<g id="edge3" class="edge">
<title>dbcache&#45;&gt;dcrpg</title>
<path fill="none" stroke="#5f9ea0" d="M23.9679,-162C23.9679,-162 0,-162 0,-162 0,-162 0,-18 0,-18 0,-18 22.9426,-18 44.989,-18"/>
<polygon fill="#5f9ea0" stroke="#5f9ea0" points="23.9679,-165.5001 33.9679,-162 23.9678,-158.5001 23.9679,-165.5001"/>
</g>
<!-- blockdata -->
<g id="node9" class="node">
<title>blockdata</title>
<path fill="#deb887" stroke="#000000" d="M244,-108C244,-108 182,-108 182,-108 176,-108 170,-102 170,-96 170,-96 170,-84 170,-84 170,-78 176,-72 182,-72 182,-72 244,-72 244,-72 250,-72 256,-78 256,-84 256,-84 256,-96 256,-96 256,-102 250,-108 244,-108"/>
<text text-anchor="middle" x="213" y="-86.3" font-family="Times,serif" font-size="14.00" fill="#000000">blockdata</text>
</g>
<!-- blockdata&#45;&gt;pubsub -->
<g id="edge21" class="edge">
<title>blockdata&#45;&gt;pubsub</title>
<path fill="none" stroke="#ff7f50" d="M266.1828,-90C266.1828,-90 268.5,-90 268.5,-90 268.5,-90 268.5,-24 268.5,-24 268.5,-24 274.1128,-24 281.4796,-24"/>
<polygon fill="#ff7f50" stroke="#ff7f50" points="266.1828,-86.5001 256.1828,-90 266.1827,-93.5001 266.1828,-86.5001"/>
</g>
<!-- blockdata&#45;&gt;dcrsqlite -->
<g id="edge13" class="edge">
<title>blockdata&#45;&gt;dcrsqlite</title>
<path fill="none" stroke="#da70d6" d="M227.3333,-61.8314C227.3333,-61.8314 227.3333,-36.4133 227.3333,-36.4133"/>
<polygon fill="#da70d6" stroke="#da70d6" points="223.8334,-61.8313 227.3333,-71.8314 230.8334,-61.8314 223.8334,-61.8313"/>
</g>
<!-- blockdata&#45;&gt;dcrpg -->
<g id="edge2" class="edge">
<title>blockdata&#45;&gt;dcrpg</title>
<path fill="none" stroke="#ff7f50" d="M198.6667,-61.5782C198.6667,-61.5782 198.6667,-54 198.6667,-54 198.6667,-54 98.3333,-54 98.3333,-54 98.3333,-54 98.3333,-45.2791 98.3333,-36.4218"/>
<polygon fill="#ff7f50" stroke="#ff7f50" points="195.1668,-61.5781 198.6667,-71.5782 202.1668,-61.5782 195.1668,-61.5781"/>
</g>
<!-- rpcutils&#45;&gt;mempool -->
<g id="edge17" class="edge">
<title>rpcutils&#45;&gt;mempool</title>
<path fill="none" stroke="#7fffd4" d="M190.1667,-205.5782C190.1667,-205.5782 190.1667,-198 190.1667,-198 190.1667,-198 300.25,-198 300.25,-198 300.25,-198 300.25,-139.1336 300.25,-108.3207"/>
<polygon fill="#7fffd4" stroke="#7fffd4" points="186.6668,-205.5781 190.1667,-215.5782 193.6668,-205.5782 186.6668,-205.5781"/>
</g>
<!-- stakedb -->
<g id="node11" class="node">
<title>stakedb</title>
<path fill="#00bfff" stroke="#000000" d="M216.5,-180C216.5,-180 167.5,-180 167.5,-180 161.5,-180 155.5,-174 155.5,-168 155.5,-168 155.5,-156 155.5,-156 155.5,-150 161.5,-144 167.5,-144 167.5,-144 216.5,-144 216.5,-144 222.5,-144 228.5,-150 228.5,-156 228.5,-156 228.5,-168 228.5,-168 228.5,-174 222.5,-180 216.5,-180"/>
<text text-anchor="middle" x="192" y="-158.3" font-family="Times,serif" font-size="14.00" fill="#000000">stakedb</text>
</g>
<!-- rpcutils&#45;&gt;stakedb -->
<g id="edge11" class="edge">
<title>rpcutils&#45;&gt;stakedb</title>
<path fill="none" stroke="#5f9ea0" d="M172.8333,-205.8314C172.8333,-205.8314 172.8333,-180.4133 172.8333,-180.4133"/>
<polygon fill="#5f9ea0" stroke="#5f9ea0" points="169.3334,-205.8313 172.8333,-215.8314 176.3334,-205.8314 169.3334,-205.8313"/>
</g>
<!-- stakedb&#45;&gt;blockdata -->
<g id="edge8" class="edge">
<title>stakedb&#45;&gt;blockdata</title>
<path fill="none" stroke="#7fff00" d="M199.25,-133.8314C199.25,-133.8314 199.25,-108.4133 199.25,-108.4133"/>
<polygon fill="#7fff00" stroke="#7fff00" points="195.7501,-133.8313 199.25,-143.8314 202.7501,-133.8314 195.7501,-133.8313"/>
</g>
<!-- dcrrates -->
<g id="node13" class="node">
<title>dcrrates</title>
<path fill="#ffd700" stroke="#000000" d="M432.5,-396C432.5,-396 379.5,-396 379.5,-396 373.5,-396 367.5,-390 367.5,-384 367.5,-384 367.5,-372 367.5,-372 367.5,-366 373.5,-360 379.5,-360 379.5,-360 432.5,-360 432.5,-360 438.5,-360 444.5,-366 444.5,-372 444.5,-372 444.5,-384 444.5,-384 444.5,-390 438.5,-396 432.5,-396"/>
<text text-anchor="middle" x="406" y="-374.3" font-family="Times,serif" font-size="14.00" fill="#000000">dcrrates</text>
</g>
<!-- exchanges -->
<g id="node15" class="node">
<title>exchanges</title>
<path fill="#708090" stroke="#000000" d="M440,-324C440,-324 372,-324 372,-324 366,-324 360,-318 360,-312 360,-312 360,-300 360,-300 360,-294 366,-288 372,-288 372,-288 440,-288 440,-288 446,-288 452,-294 452,-300 452,-300 452,-312 452,-312 452,-318 446,-324 440,-324"/>
<text text-anchor="middle" x="406" y="-302.3" font-family="Times,serif" font-size="14.00" fill="#000000">exchanges</text>
</g>
<!-- dcrrates&#45;&gt;exchanges -->
<g id="edge9" class="edge">
<title>dcrrates&#45;&gt;exchanges</title>
<path fill="none" stroke="#da70d6" d="M406,-349.8314C406,-349.8314 406,-324.4133 406,-324.4133"/>
<polygon fill="#da70d6" stroke="#da70d6" points="402.5001,-349.8313 406,-359.8314 409.5001,-349.8314 402.5001,-349.8313"/>
</g>
<!-- txhelpers -->
<g id="node14" class="node">
<title>txhelpers</title>
<path fill="#da70d6" stroke="#000000" d="M324,-468C324,-468 264,-468 264,-468 258,-468 252,-462 252,-456 252,-456 252,-444 252,-444 252,-438 258,-432 264,-432 264,-432 324,-432 324,-432 330,-432 336,-438 336,-444 336,-444 336,-456 336,-456 336,-462 330,-468 324,-468"/>
<text text-anchor="middle" x="294" y="-446.3" font-family="Times,serif" font-size="14.00" fill="#000000">txhelpers</text>
</g>
<!-- txhelpers&#45;&gt;dbtypes -->
<g id="edge12" class="edge">
<title>txhelpers&#45;&gt;dbtypes</title>
<path fill="none" stroke="#3a5fcd" d="M278,-421.8314C278,-421.8314 278,-396.4133 278,-396.4133"/>
<polygon fill="#3a5fcd" stroke="#3a5fcd" points="274.5001,-421.8313 278,-431.8314 281.5001,-421.8314 274.5001,-421.8313"/>
</g>
<!-- exptypes -->
<g id="node16" class="node">
<title>exptypes</title>
<path fill="#7fff00" stroke="#000000" d="M453,-252C453,-252 357,-252 357,-252 351,-252 345,-246 345,-240 345,-240 345,-228 345,-228 345,-222 351,-216 357,-216 357,-216 453,-216 453,-216 459,-216 465,-222 465,-228 465,-228 465,-240 465,-240 465,-246 459,-252 453,-252"/>
<text text-anchor="middle" x="405" y="-230.3" font-family="Times,serif" font-size="14.00" fill="#000000">explorer/types</text>
</g>
<!-- txhelpers&#45;&gt;exptypes -->
<g id="edge7" class="edge">
<title>txhelpers&#45;&gt;exptypes</title>
<path fill="none" stroke="#00fa9a" d="M331.75,-421.9555C331.75,-421.9555 331.75,-234 331.75,-234 331.75,-234 337.0714,-234 344.8456,-234"/>
<polygon fill="#00fa9a" stroke="#00fa9a" points="328.2501,-421.9554 331.75,-431.9555 335.2501,-421.9555 328.2501,-421.9554"/>
</g>
<!-- exchanges&#45;&gt;exptypes -->
<g id="edge6" class="edge">
<title>exchanges&#45;&gt;exptypes</title>
<path fill="none" stroke="#1e90ff" d="M406,-277.8314C406,-277.8314 406,-252.4133 406,-252.4133"/>
<polygon fill="#1e90ff" stroke="#1e90ff" points="402.5001,-277.8313 406,-287.8314 409.5001,-277.8314 402.5001,-277.8313"/>
</g>
<!-- exptypes&#45;&gt;pubsubtypes -->
<g id="edge20" class="edge">
<title>exptypes&#45;&gt;pubsubtypes</title>
<path fill="none" stroke="#5f9ea0" d="M392.75,-205.8314C392.75,-205.8314 392.75,-180.4133 392.75,-180.4133"/>
<polygon fill="#5f9ea0" stroke="#5f9ea0" points="389.2501,-205.8313 392.75,-215.8314 396.2501,-205.8314 389.2501,-205.8313"/>
</g>
<!-- dbconfig -->
<g id="node18" class="node">
<title>dbconfig</title>
<path fill="#5f9ea0" stroke="#000000" d="M140,-108C140,-108 30,-108 30,-108 24,-108 18,-102 18,-96 18,-96 18,-84 18,-84 18,-78 24,-72 30,-72 30,-72 140,-72 140,-72 146,-72 152,-78 152,-84 152,-84 152,-96 152,-96 152,-102 146,-108 140,-108"/>
<text text-anchor="middle" x="85" y="-86.3" font-family="Times,serif" font-size="14.00" fill="#000000">testutil/dbconfig</text>
</g>
<!-- dbconfig&#45;&gt;dcrsqlite -->
<g id="edge15" class="edge">
<title>dbconfig&#45;&gt;dcrsqlite</title>
<path fill="none" stroke="#00fa9a" d="M162.2071,-90C162.2071,-90 165.5,-90 165.5,-90 165.5,-90 165.5,-57.498 165.5,-36.1686"/>
<polygon fill="#00fa9a" stroke="#00fa9a" points="162.2071,-86.5001 152.2071,-90 162.207,-93.5001 162.2071,-86.5001"/>
</g>
<!-- dbconfig&#45;&gt;dcrpg -->
<g id="edge4" class="edge">
<title>dbconfig&#45;&gt;dcrpg</title>
<path fill="none" stroke="#00fa9a" d="M71.6667,-61.8314C71.6667,-61.8314 71.6667,-36.4133 71.6667,-36.4133"/>
<polygon fill="#00fa9a" stroke="#00fa9a" points="68.1668,-61.8313 71.6667,-71.8314 75.1668,-61.8314 68.1668,-61.8313"/>
</g>
</g>
</svg>
