<?xml version="1.0" encoding="UTF-8" standalone="no"?>
<!DOCTYPE svg PUBLIC "-//W3C//DTD SVG 1.1//EN"
 "http://www.w3.org/Graphics/SVG/1.1/DTD/svg11.dtd">
<!-- Generated by graphviz version 2.40.1 (0)
 -->
<!-- Title: %3 Pages: 1 -->
<svg width="478pt" height="504pt"
 viewBox="0.00 0.00 478.00 504.00" xmlns="http://www.w3.org/2000/svg" xmlns:xlink="http://www.w3.org/1999/xlink">
<g id="graph0" class="graph" transform="scale(1 1) rotate(0) translate(4 500)">
<title>%3</title>
<polygon fill="#ffffff" stroke="#000000" points="-4,4 -4,-500 474,-500 474,4 -4,4"/>
<text text-anchor="start" x="97" y="-477.6" font-family="Times,serif" font-size="18.00" fill="#000000">dcrdata Module Dependencies</text>
<!-- apitypes -->
<g id="node1" class="node">
<title>apitypes</title>
<path fill="#bdb76b" stroke="#000000" d="M322,-324C322,-324 264,-324 264,-324 258,-324 252,-318 252,-312 252,-312 252,-300 252,-300 252,-294 258,-288 264,-288 264,-288 322,-288 322,-288 328,-288 334,-294 334,-300 334,-300 334,-312 334,-312 334,-318 328,-324 322,-324"/>
<text text-anchor="middle" x="293" y="-302.3" font-family="Times,serif" font-size="14.00" fill="#000000">api/types</text>
</g>
<!-- rpcutils -->
<g id="node10" class="node">
<title>rpcutils</title>
<path fill="#1e90ff" stroke="#000000" d="M316.5,-252C316.5,-252 269.5,-252 269.5,-252 263.5,-252 257.5,-246 257.5,-240 257.5,-240 257.5,-228 257.5,-228 257.5,-222 263.5,-216 269.5,-216 269.5,-216 316.5,-216 316.5,-216 322.5,-216 328.5,-222 328.5,-228 328.5,-228 328.5,-240 328.5,-240 328.5,-246 322.5,-252 316.5,-252"/>
<text text-anchor="middle" x="293" y="-230.3" font-family="Times,serif" font-size="14.00" fill="#000000">rpcutils</text>
</g>
<!-- apitypes&#45;&gt;rpcutils -->
<g id="edge18" class="edge">
<title>apitypes&#45;&gt;rpcutils</title>
<path fill="none" stroke="#20b2aa" d="M304.8333,-277.8314C304.8333,-277.8314 304.8333,-252.4133 304.8333,-252.4133"/>
<polygon fill="#20b2aa" stroke="#20b2aa" points="301.3334,-277.8313 304.8333,-287.8314 308.3334,-277.8314 301.3334,-277.8313"/>
</g>
<!-- middleware -->
<g id="node17" class="node">
<title>middleware</title>
<path fill="#3a5fcd" stroke="#000000" d="M227.5,-252C227.5,-252 150.5,-252 150.5,-252 144.5,-252 138.5,-246 138.5,-240 138.5,-240 138.5,-228 138.5,-228 138.5,-222 144.5,-216 150.5,-216 150.5,-216 227.5,-216 227.5,-216 233.5,-216 239.5,-222 239.5,-228 239.5,-228 239.5,-240 239.5,-240 239.5,-246 233.5,-252 227.5,-252"/>
<text text-anchor="middle" x="189" y="-230.3" font-family="Times,serif" font-size="14.00" fill="#000000">middleware</text>
</g>
<!-- apitypes&#45;&gt;middleware -->
<g id="edge1" class="edge">
<title>apitypes&#45;&gt;middleware</title>
<path fill="none" stroke="#7fffd4" d="M281.1667,-277.5782C281.1667,-277.5782 281.1667,-270 281.1667,-270 281.1667,-270 207,-270 207,-270 207,-270 207,-261.2791 207,-252.4218"/>
<polygon fill="#7fffd4" stroke="#7fffd4" points="277.6668,-277.5781 281.1667,-287.5782 284.6668,-277.5782 277.6668,-277.5781"/>
</g>
<!-- mempool -->
<g id="node2" class="node">
<title>mempool</title>
<path fill="#7fffd4" stroke="#000000" d="M184,-108C184,-108 126,-108 126,-108 120,-108 114,-102 114,-96 114,-96 114,-84 114,-84 114,-78 120,-72 126,-72 126,-72 184,-72 184,-72 190,-72 196,-78 196,-84 196,-84 196,-96 196,-96 196,-102 190,-108 184,-108"/>
<text text-anchor="middle" x="155" y="-86.3" font-family="Times,serif" font-size="14.00" fill="#000000">mempool</text>
</g>
<!-- pubsub -->
<g id="node3" class="node">
<title>pubsub</title>
<path fill="#ff7f50" stroke="#000000" d="M176.5,-36C176.5,-36 131.5,-36 131.5,-36 125.5,-36 119.5,-30 119.5,-24 119.5,-24 119.5,-12 119.5,-12 119.5,-6 125.5,0 131.5,0 131.5,0 176.5,0 176.5,0 182.5,0 188.5,-6 188.5,-12 188.5,-12 188.5,-24 188.5,-24 188.5,-30 182.5,-36 176.5,-36"/>
<text text-anchor="middle" x="154" y="-14.3" font-family="Times,serif" font-size="14.00" fill="#000000">pubsub</text>
</g>
<!-- mempool&#45;&gt;pubsub -->
<g id="edge22" class="edge">
<title>mempool&#45;&gt;pubsub</title>
<path fill="none" stroke="#5f9ea0" d="M154,-61.8314C154,-61.8314 154,-36.4133 154,-36.4133"/>
<polygon fill="#5f9ea0" stroke="#5f9ea0" points="150.5001,-61.8313 154,-71.8314 157.5001,-61.8314 150.5001,-61.8313"/>
</g>
<!-- dcrsqlite -->
<g id="node5" class="node">
<title>dcrsqlite</title>
<path fill="#ffe4e1" stroke="#000000" d="M297,-36C297,-36 219,-36 219,-36 213,-36 207,-30 207,-24 207,-24 207,-12 207,-12 207,-6 213,0 219,0 219,0 297,0 297,0 303,0 309,-6 309,-12 309,-12 309,-24 309,-24 309,-30 303,-36 297,-36"/>
<text text-anchor="middle" x="258" y="-14.3" font-family="Times,serif" font-size="14.00" fill="#000000">db/dcrsqlite</text>
</g>
<!-- mempool&#45;&gt;dcrsqlite -->
<g id="edge14" class="edge">
<title>mempool&#45;&gt;dcrsqlite</title>
<path fill="none" stroke="#5f9ea0" d="M206.2074,-84C206.2074,-84 210.5,-84 210.5,-84 210.5,-84 210.5,-55.5762 210.5,-36.0348"/>
<polygon fill="#5f9ea0" stroke="#5f9ea0" points="206.2074,-80.5001 196.2074,-84 206.2073,-87.5001 206.2074,-80.5001"/>
</g>
<!-- pubsubtypes -->
<g id="node4" class="node">
<title>pubsubtypes</title>
<path fill="#ffa07a" stroke="#000000" d="M130.5,-180C130.5,-180 41.5,-180 41.5,-180 35.5,-180 29.5,-174 29.5,-168 29.5,-168 29.5,-156 29.5,-156 29.5,-150 35.5,-144 41.5,-144 41.5,-144 130.5,-144 130.5,-144 136.5,-144 142.5,-150 142.5,-156 142.5,-156 142.5,-168 142.5,-168 142.5,-174 136.5,-180 130.5,-180"/>
<text text-anchor="middle" x="86" y="-158.3" font-family="Times,serif" font-size="14.00" fill="#000000">pubsub/types</text>
</g>
<!-- pubsubtypes&#45;&gt;mempool -->
<g id="edge16" class="edge">
<title>pubsubtypes&#45;&gt;mempool</title>
<path fill="none" stroke="#5f9ea0" d="M128.25,-133.8314C128.25,-133.8314 128.25,-108.4133 128.25,-108.4133"/>
<polygon fill="#5f9ea0" stroke="#5f9ea0" points="124.7501,-133.8313 128.25,-143.8314 131.7501,-133.8314 124.7501,-133.8313"/>
</g>
<!-- pubsubtypes&#45;&gt;pubsub -->
<g id="edge23" class="edge">
<title>pubsubtypes&#45;&gt;pubsub</title>
<path fill="none" stroke="#9370db" d="M71.75,-133.7623C71.75,-133.7623 71.75,-18 71.75,-18 71.75,-18 96.7014,-18 119.1186,-18"/>
<polygon fill="#9370db" stroke="#9370db" points="68.2501,-133.7623 71.75,-143.7623 75.2501,-133.7623 68.2501,-133.7623"/>
</g>
<!-- dbtypes -->
<g id="node6" class="node">
<title>dbtypes</title>
<path fill="#9370db" stroke="#000000" d="M293,-396C293,-396 221,-396 221,-396 215,-396 209,-390 209,-384 209,-384 209,-372 209,-372 209,-366 215,-360 221,-360 221,-360 293,-360 293,-360 299,-360 305,-366 305,-372 305,-372 305,-384 305,-384 305,-390 299,-396 293,-396"/>
<text text-anchor="middle" x="257" y="-374.3" font-family="Times,serif" font-size="14.00" fill="#000000">db/dbtypes</text>
</g>
<!-- dbtypes&#45;&gt;apitypes -->
<g id="edge10" class="edge">
<title>dbtypes&#45;&gt;apitypes</title>
<path fill="none" stroke="#da70d6" d="M278.5,-349.8314C278.5,-349.8314 278.5,-324.4133 278.5,-324.4133"/>
<polygon fill="#da70d6" stroke="#da70d6" points="275.0001,-349.8313 278.5,-359.8314 282.0001,-349.8314 275.0001,-349.8313"/>
</g>
<!-- dbcache -->
<g id="node8" class="node">
<title>dbcache</title>
<path fill="#c71585" stroke="#000000" d="M423,-180C423,-180 367,-180 367,-180 361,-180 355,-174 355,-168 355,-168 355,-156 355,-156 355,-150 361,-144 367,-144 367,-144 423,-144 423,-144 429,-144 435,-150 435,-156 435,-156 435,-168 435,-168 435,-174 429,-180 423,-180"/>
<text text-anchor="middle" x="395" y="-158.3" font-family="Times,serif" font-size="14.00" fill="#000000">db/cache</text>
</g>
<!-- dbtypes&#45;&gt;dbcache -->
<g id="edge5" class="edge">
<title>dbtypes&#45;&gt;dbcache</title>
<path fill="none" stroke="#deb887" d="M315.2657,-378C315.2657,-378 395,-378 395,-378 395,-378 395,-231.9579 395,-180.0445"/>
<polygon fill="#deb887" stroke="#deb887" points="315.2657,-374.5001 305.2657,-378 315.2657,-381.5001 315.2657,-374.5001"/>
</g>
<!-- gov -->
<g id="node12" class="node">
<title>gov</title>
<path fill="#00fa9a" stroke="#000000" d="M222,-324C222,-324 192,-324 192,-324 186,-324 180,-318 180,-312 180,-312 180,-300 180,-300 180,-294 186,-288 192,-288 192,-288 222,-288 222,-288 228,-288 234,-294 234,-300 234,-300 234,-312 234,-312 234,-318 228,-324 222,-324"/>
<text text-anchor="middle" x="207" y="-302.3" font-family="Times,serif" font-size="14.00" fill="#000000">gov</text>
</g>
<!-- dbtypes&#45;&gt;gov -->
<g id="edge19" class="edge">
<title>dbtypes&#45;&gt;gov</title>
<path fill="none" stroke="#3a5fcd" d="M221.5,-349.8314C221.5,-349.8314 221.5,-324.4133 221.5,-324.4133"/>
<polygon fill="#3a5fcd" stroke="#3a5fcd" points="218.0001,-349.8313 221.5,-359.8314 225.0001,-349.8314 218.0001,-349.8313"/>
</g>
<!-- dcrpg -->
<g id="node7" class="node">
<title>dcrpg</title>
<path fill="#20b2aa" stroke="#000000" d="M413,-36C413,-36 357,-36 357,-36 351,-36 345,-30 345,-24 345,-24 345,-12 345,-12 345,-6 351,0 357,0 357,0 413,0 413,0 419,0 425,-6 425,-12 425,-12 425,-24 425,-24 425,-30 419,-36 413,-36"/>
<text text-anchor="middle" x="385" y="-14.3" font-family="Times,serif" font-size="14.00" fill="#000000">db/dcrpg</text>
</g>
<!-- dbcache&#45;&gt;dcrpg -->
<g id="edge3" class="edge">
<title>dbcache&#45;&gt;dcrpg</title>
<path fill="none" stroke="#5f9ea0" d="M445.1348,-162C445.1348,-162 470,-162 470,-162 470,-162 470,-18 470,-18 470,-18 447.0574,-18 425.011,-18"/>
<polygon fill="#5f9ea0" stroke="#5f9ea0" points="445.1348,-158.5001 435.1348,-162 445.1348,-165.5001 445.1348,-158.5001"/>
</g>
<!-- blockdata -->
<g id="node9" class="node">
<title>blockdata</title>
<path fill="#deb887" stroke="#000000" d="M288,-108C288,-108 226,-108 226,-108 220,-108 214,-102 214,-96 214,-96 214,-84 214,-84 214,-78 220,-72 226,-72 226,-72 288,-72 288,-72 294,-72 300,-78 300,-84 300,-84 300,-96 300,-96 300,-102 294,-108 288,-108"/>
<text text-anchor="middle" x="257" y="-86.3" font-family="Times,serif" font-size="14.00" fill="#000000">blockdata</text>
</g>
<!-- blockdata&#45;&gt;pubsub -->
<g id="edge21" class="edge">
<title>blockdata&#45;&gt;pubsub</title>
<path fill="none" stroke="#ff7f50" d="M203.8172,-96C203.8172,-96 201.5,-96 201.5,-96 201.5,-96 201.5,-18 201.5,-18 201.5,-18 195.8872,-18 188.5204,-18"/>
<polygon fill="#ff7f50" stroke="#ff7f50" points="203.8173,-99.5001 213.8172,-96 203.8172,-92.5001 203.8173,-99.5001"/>
</g>
<!-- blockdata&#45;&gt;dcrsqlite -->
<g id="edge13" class="edge">
<title>blockdata&#45;&gt;dcrsqlite</title>
<path fill="none" stroke="#da70d6" d="M257,-61.8314C257,-61.8314 257,-36.4133 257,-36.4133"/>
<polygon fill="#da70d6" stroke="#da70d6" points="253.5001,-61.8313 257,-71.8314 260.5001,-61.8314 253.5001,-61.8313"/>
</g>
<!-- blockdata&#45;&gt;dcrpg -->
<g id="edge2" class="edge">
<title>blockdata&#45;&gt;dcrpg</title>
<path fill="none" stroke="#ff7f50" d="M310.1103,-96C310.1103,-96 313.5,-96 313.5,-96 313.5,-96 313.5,-18 313.5,-18 313.5,-18 328.4347,-18 344.6529,-18"/>
<polygon fill="#ff7f50" stroke="#ff7f50" points="310.1103,-92.5001 300.1103,-96 310.1103,-99.5001 310.1103,-92.5001"/>
</g>
<!-- rpcutils&#45;&gt;mempool -->
<g id="edge17" class="edge">
<title>rpcutils&#45;&gt;mempool</title>
<path fill="none" stroke="#7fffd4" d="M277.8333,-205.5782C277.8333,-205.5782 277.8333,-198 277.8333,-198 277.8333,-198 169.25,-198 169.25,-198 169.25,-198 169.25,-139.1336 169.25,-108.3207"/>
<polygon fill="#7fffd4" stroke="#7fffd4" points="274.3334,-205.5781 277.8333,-215.5782 281.3334,-205.5782 274.3334,-205.5781"/>
</g>
<!-- stakedb -->
<g id="node11" class="node">
<title>stakedb</title>
<path fill="#00bfff" stroke="#000000" d="M306.5,-180C306.5,-180 257.5,-180 257.5,-180 251.5,-180 245.5,-174 245.5,-168 245.5,-168 245.5,-156 245.5,-156 245.5,-150 251.5,-144 257.5,-144 257.5,-144 306.5,-144 306.5,-144 312.5,-144 318.5,-150 318.5,-156 318.5,-156 318.5,-168 318.5,-168 318.5,-174 312.5,-180 306.5,-180"/>
<text text-anchor="middle" x="282" y="-158.3" font-family="Times,serif" font-size="14.00" fill="#000000">stakedb</text>
</g>
<!-- rpcutils&#45;&gt;stakedb -->
<g id="edge11" class="edge">
<title>rpcutils&#45;&gt;stakedb</title>
<path fill="none" stroke="#5f9ea0" d="M298.1667,-205.8314C298.1667,-205.8314 298.1667,-180.4133 298.1667,-180.4133"/>
<polygon fill="#5f9ea0" stroke="#5f9ea0" points="294.6668,-205.8313 298.1667,-215.8314 301.6668,-205.8314 294.6668,-205.8313"/>
</g>
<!-- stakedb&#45;&gt;blockdata -->
<g id="edge8" class="edge">
<title>stakedb&#45;&gt;blockdata</title>
<path fill="none" stroke="#7fff00" d="M272.75,-133.8314C272.75,-133.8314 272.75,-108.4133 272.75,-108.4133"/>
<polygon fill="#7fff00" stroke="#7fff00" points="269.2501,-133.8313 272.75,-143.8314 276.2501,-133.8314 269.2501,-133.8313"/>
</g>
<!-- dcrrates -->
<g id="node13" class="node">
<title>dcrrates</title>
<path fill="#ffd700" stroke="#000000" d="M142.5,-396C142.5,-396 89.5,-396 89.5,-396 83.5,-396 77.5,-390 77.5,-384 77.5,-384 77.5,-372 77.5,-372 77.5,-366 83.5,-360 89.5,-360 89.5,-360 142.5,-360 142.5,-360 148.5,-360 154.5,-366 154.5,-372 154.5,-372 154.5,-384 154.5,-384 154.5,-390 148.5,-396 142.5,-396"/>
<text text-anchor="middle" x="116" y="-374.3" font-family="Times,serif" font-size="14.00" fill="#000000">dcrrates</text>
</g>
<!-- exchanges -->
<g id="node15" class="node">
<title>exchanges</title>
<path fill="#708090" stroke="#000000" d="M150,-324C150,-324 82,-324 82,-324 76,-324 70,-318 70,-312 70,-312 70,-300 70,-300 70,-294 76,-288 82,-288 82,-288 150,-288 150,-288 156,-288 162,-294 162,-300 162,-300 162,-312 162,-312 162,-318 156,-324 150,-324"/>
<text text-anchor="middle" x="116" y="-302.3" font-family="Times,serif" font-size="14.00" fill="#000000">exchanges</text>
</g>
<!-- dcrrates&#45;&gt;exchanges -->
<g id="edge9" class="edge">
<title>dcrrates&#45;&gt;exchanges</title>
<path fill="none" stroke="#da70d6" d="M116,-349.8314C116,-349.8314 116,-324.4133 116,-324.4133"/>
<polygon fill="#da70d6" stroke="#da70d6" points="112.5001,-349.8313 116,-359.8314 119.5001,-349.8314 112.5001,-349.8313"/>
</g>
<!-- txhelpers -->
<g id="node14" class="node">
<title>txhelpers</title>
<path fill="#da70d6" stroke="#000000" d="M161,-468C161,-468 101,-468 101,-468 95,-468 89,-462 89,-456 89,-456 89,-444 89,-444 89,-438 95,-432 101,-432 101,-432 161,-432 161,-432 167,-432 173,-438 173,-444 173,-444 173,-456 173,-456 173,-462 167,-468 161,-468"/>
<text text-anchor="middle" x="131" y="-446.3" font-family="Times,serif" font-size="14.00" fill="#000000">txhelpers</text>
</g>
<!-- txhelpers&#45;&gt;dbtypes -->
<g id="edge12" class="edge">
<title>txhelpers&#45;&gt;dbtypes</title>
<path fill="none" stroke="#3a5fcd" d="M167.5,-421.8314C167.5,-421.8314 167.5,-378 167.5,-378 167.5,-378 187.6602,-378 208.8442,-378"/>
<polygon fill="#3a5fcd" stroke="#3a5fcd" points="164.0001,-421.8313 167.5,-431.8314 171.0001,-421.8314 164.0001,-421.8313"/>
</g>
<!-- exptypes -->
<g id="node16" class="node">
<title>exptypes</title>
<path fill="#7fff00" stroke="#000000" d="M108,-252C108,-252 12,-252 12,-252 6,-252 0,-246 0,-240 0,-240 0,-228 0,-228 0,-222 6,-216 12,-216 12,-216 108,-216 108,-216 114,-216 120,-222 120,-228 120,-228 120,-240 120,-240 120,-246 114,-252 108,-252"/>
<text text-anchor="middle" x="60" y="-230.3" font-family="Times,serif" font-size="14.00" fill="#000000">explorer/types</text>
</g>
<!-- txhelpers&#45;&gt;exptypes -->
<g id="edge7" class="edge">
<title>txhelpers&#45;&gt;exptypes</title>
<path fill="none" stroke="#00fa9a" d="M78.893,-450C78.893,-450 35,-450 35,-450 35,-450 35,-303.9579 35,-252.0445"/>
<polygon fill="#00fa9a" stroke="#00fa9a" points="78.893,-453.5001 88.893,-450 78.893,-446.5001 78.893,-453.5001"/>
</g>
<!-- exchanges&#45;&gt;exptypes -->
<g id="edge6" class="edge">
<title>exchanges&#45;&gt;exptypes</title>
<path fill="none" stroke="#1e90ff" d="M95,-277.8314C95,-277.8314 95,-252.4133 95,-252.4133"/>
<polygon fill="#1e90ff" stroke="#1e90ff" points="91.5001,-277.8313 95,-287.8314 98.5001,-277.8314 91.5001,-277.8313"/>
</g>
<!-- exptypes&#45;&gt;pubsubtypes -->
<g id="edge20" class="edge">
<title>exptypes&#45;&gt;pubsubtypes</title>
<path fill="none" stroke="#5f9ea0" d="M74.75,-205.8314C74.75,-205.8314 74.75,-180.4133 74.75,-180.4133"/>
<polygon fill="#5f9ea0" stroke="#5f9ea0" points="71.2501,-205.8313 74.75,-215.8314 78.2501,-205.8314 71.2501,-205.8313"/>
</g>
<!-- dbconfig -->
<g id="node18" class="node">
<title>dbconfig</title>
<path fill="#5f9ea0" stroke="#000000" d="M440,-108C440,-108 330,-108 330,-108 324,-108 318,-102 318,-96 318,-96 318,-84 318,-84 318,-78 324,-72 330,-72 330,-72 440,-72 440,-72 446,-72 452,-78 452,-84 452,-84 452,-96 452,-96 452,-102 446,-108 440,-108"/>
<text text-anchor="middle" x="385" y="-86.3" font-family="Times,serif" font-size="14.00" fill="#000000">testutil/dbconfig</text>
</g>
<!-- dbconfig&#45;&gt;dcrsqlite -->
<g id="edge15" class="edge">
<title>dbconfig&#45;&gt;dcrsqlite</title>
<path fill="none" stroke="#00fa9a" d="M307.7929,-84C307.7929,-84 304.5,-84 304.5,-84 304.5,-84 304.5,-55.5762 304.5,-36.0348"/>
<polygon fill="#00fa9a" stroke="#00fa9a" points="307.793,-87.5001 317.7929,-84 307.7929,-80.5001 307.793,-87.5001"/>
</g>
<!-- dbconfig&#45;&gt;dcrpg -->
<g id="edge4" class="edge">
<title>dbconfig&#45;&gt;dcrpg</title>
<path fill="none" stroke="#00fa9a" d="M385,-61.8314C385,-61.8314 385,-36.4133 385,-36.4133"/>
<polygon fill="#00fa9a" stroke="#00fa9a" points="381.5001,-61.8313 385,-71.8314 388.5001,-61.8314 381.5001,-61.8313"/>
</g>
</g>
</svg>
